<svg xmlns="http://www.w3.org/2000/svg" xmlns:xlink="http://www.w3.org/1999/xlink" width="500" height="500" viewBox="0 0 500 500">
  <defs>
    <linearGradient id="linear-gradient" x1="0.147" y1="0.168" x2="0.854" y2="0.833" gradientUnits="objectBoundingBox">
      <stop offset="0.188" stop-color="#fff"/>
      <stop offset="1" stop-color="#dddee0"/>
    </linearGradient>
    <filter id="Ellipse_334" x="336.964" y="36.204" width="147.907" height="147.907" filterUnits="userSpaceOnUse">
      <feOffset dx="7" dy="7" input="SourceAlpha"/>
      <feGaussianBlur stdDeviation="2.5" result="blur"/>
      <feFlood flood-opacity="0.251"/>
      <feComposite operator="in" in2="blur"/>
      <feComposite in="SourceGraphic"/>
    </filter>
    <linearGradient id="linear-gradient-2" x1="0.138" y1="0.159" x2="0.863" y2="0.842" gradientUnits="objectBoundingBox">
      <stop offset="0" stop-color="#dddee0"/>
      <stop offset="0.812" stop-color="#fff"/>
    </linearGradient>
    <filter id="Ellipse_336" x="178.521" y="68.767" width="108.979" height="108.979" filterUnits="userSpaceOnUse">
      <feOffset dx="7" dy="7" input="SourceAlpha"/>
      <feGaussianBlur stdDeviation="2.5" result="blur-2"/>
      <feFlood flood-opacity="0.251"/>
      <feComposite operator="in" in2="blur-2"/>
      <feComposite in="SourceGraphic"/>
    </filter>
    <filter id="Ellipse_338" x="42.289" y="85.81" width="108.979" height="108.979" filterUnits="userSpaceOnUse">
      <feOffset dx="7" dy="7" input="SourceAlpha"/>
      <feGaussianBlur stdDeviation="2.5" result="blur-3"/>
      <feFlood flood-opacity="0.251"/>
      <feComposite operator="in" in2="blur-3"/>
      <feComposite in="SourceGraphic"/>
    </filter>
    <filter id="Ellipse_344" x="215.923" y="216.717" width="108.979" height="108.979" filterUnits="userSpaceOnUse">
      <feOffset dx="7" dy="7" input="SourceAlpha"/>
      <feGaussianBlur stdDeviation="2.5" result="blur-4"/>
      <feFlood flood-opacity="0.251"/>
      <feComposite operator="in" in2="blur-4"/>
      <feComposite in="SourceGraphic"/>
    </filter>
    <linearGradient id="linear-gradient-9" x1="0.181" y1="0.16" x2="0.734" y2="0.633" gradientUnits="objectBoundingBox">
      <stop offset="0.152" stop-color="#f29525"/>
      <stop offset="0.865" stop-color="#ffd81c"/>
    </linearGradient>
    <filter id="Ellipse_340" x="84.814" y="320.917" width="108.979" height="108.979" filterUnits="userSpaceOnUse">
      <feOffset dx="7" dy="7" input="SourceAlpha"/>
      <feGaussianBlur stdDeviation="2.5" result="blur-5"/>
      <feFlood flood-opacity="0.251"/>
      <feComposite operator="in" in2="blur-5"/>
      <feComposite in="SourceGraphic"/>
    </filter>
    <filter id="Ellipse_342" x="361.724" y="228.505" width="108.979" height="108.979" filterUnits="userSpaceOnUse">
      <feOffset dx="7" dy="7" input="SourceAlpha"/>
      <feGaussianBlur stdDeviation="2.5" result="blur-6"/>
      <feFlood flood-opacity="0.251"/>
      <feComposite operator="in" in2="blur-6"/>
      <feComposite in="SourceGraphic"/>
    </filter>
    <filter id="Ellipse_332" x="279.29" y="353.033" width="122.638" height="122.638" filterUnits="userSpaceOnUse">
      <feOffset dx="7" dy="7" input="SourceAlpha"/>
      <feGaussianBlur stdDeviation="2.5" result="blur-7"/>
      <feFlood flood-opacity="0.251"/>
      <feComposite operator="in" in2="blur-7"/>
      <feComposite in="SourceGraphic"/>
    </filter>
    <clipPath id="clip-Portfolio">
      <rect width="500" height="500"/>
    </clipPath>
  </defs>
  <g id="Portfolio" clip-path="url(#clip-Portfolio)">
    <g id="Group_6343" data-name="Group 6343" transform="translate(-1 -16)">
      <g id="Group_6253" data-name="Group 6253" transform="matrix(-0.966, -0.259, 0.259, -0.966, 461.339, 512.914)" opacity="0.14">
        <path id="Path_2240" data-name="Path 2240" d="M138.58,0,0,33.169,52.705,85.875l52.705,52.705Z" transform="translate(47.402 31.162)" fill="#f85373"/>
        <g id="Group_2217" data-name="Group 2217" transform="translate(0 0)">
          <path id="Path_2241" data-name="Path 2241" d="M164.3,217.144a1.677,1.677,0,0,1-1.183-.49L.49,54.028a1.673,1.673,0,0,1,.794-2.81L215.082.045A1.673,1.673,0,0,1,217.1,2.062l-51.172,213.8a1.673,1.673,0,0,1-1.627,1.283ZM4.969,53.775l158.4,158.4L213.21,3.934Z" transform="translate(0 0)" fill="#161414"/>
          <path id="Path_2242" data-name="Path 2242" d="M164.3,165.971a1.671,1.671,0,0,1-1.183-.49L.49,2.856a1.673,1.673,0,0,1,1.6-2.8l129.436,33.19a1.672,1.672,0,0,1,1.2,1.2l33.19,129.438a1.673,1.673,0,0,1-1.621,2.088ZM7.177,4.811,161.161,158.795,129.735,36.237Z" transform="translate(0 51.172)" fill="#161414"/>
          <path id="Path_2243" data-name="Path 2243" d="M1.673,84.172A1.673,1.673,0,0,1,.49,81.316L81.316.49a1.672,1.672,0,1,1,2.365,2.366L2.856,83.682A1.67,1.67,0,0,1,1.673,84.172Z" transform="translate(130.512 2.459)" fill="#161414"/>
        </g>
      </g>
      <g id="Group_6254" data-name="Group 6254" transform="translate(385 0)" opacity="0.14">
        <path id="Path_1404" data-name="Path 1404" d="M385.872,286.174a39.7,39.7,0,1,1-39.7,39.7A39.745,39.745,0,0,1,385.872,286.174Zm0,75.525a35.824,35.824,0,1,0-35.824-35.824A35.864,35.864,0,0,0,385.872,361.7Z" transform="translate(-346.171 -286.174)" fill="#f85373"/>
        <path id="Path_1405" data-name="Path 1405" d="M385.871,305.789a20.085,20.085,0,1,1-20.086,20.085A20.108,20.108,0,0,1,385.871,305.789Zm0,36.294a16.209,16.209,0,1,0-16.21-16.209A16.226,16.226,0,0,0,385.871,342.083Z" transform="translate(-346.17 -286.173)" fill="#161414"/>
      </g>
      <g id="Group_6255" data-name="Group 6255" transform="translate(0 87)" opacity="0.14">
        <path id="Path_1404-2" data-name="Path 1404" d="M385.872,286.174a39.7,39.7,0,1,1-39.7,39.7A39.745,39.745,0,0,1,385.872,286.174Zm0,75.525a35.824,35.824,0,1,0-35.824-35.824A35.864,35.864,0,0,0,385.872,361.7Z" transform="translate(-346.171 -286.174)" fill="#f85373"/>
        <path id="Path_1405-2" data-name="Path 1405" d="M385.871,305.789a20.085,20.085,0,1,1-20.086,20.085A20.108,20.108,0,0,1,385.871,305.789Zm0,36.294a16.209,16.209,0,1,0-16.21-16.209A16.226,16.226,0,0,0,385.871,342.083Z" transform="translate(-346.17 -286.173)" fill="#161414"/>
      </g>
      <g id="Group_6256" data-name="Group 6256" transform="translate(4 390)" opacity="0.14">
        <path id="Path_1404-3" data-name="Path 1404" d="M385.872,286.174a39.7,39.7,0,1,1-39.7,39.7A39.745,39.745,0,0,1,385.872,286.174Zm0,75.525a35.824,35.824,0,1,0-35.824-35.824A35.864,35.864,0,0,0,385.872,361.7Z" transform="translate(-346.171 -286.174)" fill="#f85373"/>
        <path id="Path_1405-3" data-name="Path 1405" d="M385.871,305.789a20.085,20.085,0,1,1-20.086,20.085A20.108,20.108,0,0,1,385.871,305.789Zm0,36.294a16.209,16.209,0,1,0-16.21-16.209A16.226,16.226,0,0,0,385.871,342.083Z" transform="translate(-346.17 -286.173)" fill="#161414"/>
      </g>
    </g>
    <path id="Path_4595" data-name="Path 4595" d="M221.484,265.192l-.674,0,.049-5.691.625,0a64.925,64.925,0,0,0,13.8-1.48l1.213,5.559A70.557,70.557,0,0,1,221.484,265.192Zm-16.4-1.928a69.834,69.834,0,0,1-14.839-5.4l2.538-5.095a64.1,64.1,0,0,0,13.627,4.956Zm46.422-4.8-2.438-5.143a64.569,64.569,0,0,0,12.316-7.645l3.526,4.468A70.294,70.294,0,0,1,251.5,258.463Zm-74.557-9.217a70.622,70.622,0,0,1-10.989-11.324l4.5-3.481a64.927,64.927,0,0,0,10.1,10.409Zm99.218-10.253-4.433-3.568a64.586,64.586,0,0,0,7.768-12.247l5.119,2.489A70.266,70.266,0,0,1,276.165,238.993ZM157.741,224.38a69.8,69.8,0,0,1-4.944-14.991l5.573-1.158A64.03,64.03,0,0,0,162.909,222Zm132.142-13.667-5.549-1.267a64.842,64.842,0,0,0,1.617-14.412h5.691A70.585,70.585,0,0,1,289.883,210.713ZM157.03,193.729l-5.689-.113a70.345,70.345,0,0,1,2.075-15.641l5.521,1.379A64.717,64.717,0,0,0,157.03,193.729Zm127.822-10.615a64.006,64.006,0,0,0-4.259-13.854l5.215-2.279a69.8,69.8,0,0,1,4.639,15.089Zm-120.8-17.391-5.067-2.592a70.377,70.377,0,0,1,8.721-13.154l4.361,3.658A64.649,64.649,0,0,0,164.05,165.723Zm109.243-9.058a64.824,64.824,0,0,0-9.889-10.609l3.7-4.322a70.674,70.674,0,0,1,10.758,11.54ZM182.619,143.6l-3.435-4.539a70.29,70.29,0,0,1,13.569-8.047l2.335,5.191A64.558,64.558,0,0,0,182.619,143.6Zm68.728-5.71a64.17,64.17,0,0,0-13.523-5.231l1.438-5.5a69.856,69.856,0,0,1,14.725,5.693Zm-42.393-6.1-1.1-5.584a71.2,71.2,0,0,1,15.721-1.293l-.164,5.689A65.719,65.719,0,0,0,208.954,131.784Z" transform="translate(182.426 -91.877)" fill="#fa09a7"/>
    <g transform="matrix(1, 0, 0, 1, 0, 0)" filter="url(#Ellipse_334)">
      <circle id="Ellipse_334-2" data-name="Ellipse 334" cx="46.99" cy="46.99" r="46.99" transform="translate(337.46 103.16) rotate(-45)" fill="url(#linear-gradient)"/>
    </g>
    <circle id="Ellipse_335" data-name="Ellipse 335" cx="45.049" cy="45.049" r="45.049" transform="translate(340.208 103.158) rotate(-45)" fill="url(#linear-gradient-2)"/>
    <path id="Path_4619" data-name="Path 4619" d="M232.523,205.091a19.244,19.244,0,1,1,19.245-19.244A19.265,19.265,0,0,1,232.523,205.091Zm0-35.682a16.438,16.438,0,1,0,16.438,16.438A16.456,16.456,0,0,0,232.523,169.409Z" transform="translate(182.426 -91.877)" fill="#fa09a7"/>
    <path id="Path_4620" data-name="Path 4620" d="M221.491,223.466a19.244,19.244,0,1,1,19.245-19.244A19.265,19.265,0,0,1,221.491,223.466Zm0-35.682a16.438,16.438,0,1,0,16.438,16.438A16.456,16.456,0,0,0,221.491,187.784Z" transform="translate(182.426 -91.877)" fill="#fa09a7"/>
    <path id="Path_4621" data-name="Path 4621" d="M210.459,205.091A19.244,19.244,0,1,1,229.7,185.847,19.265,19.265,0,0,1,210.459,205.091Zm0-35.682A16.438,16.438,0,1,0,226.9,185.847,16.456,16.456,0,0,0,210.459,169.409Z" transform="translate(182.426 -91.877)" fill="#fa09a7"/>
    <g id="Group_6345" data-name="Group 6345" transform="translate(14.426 4.123)">
      <g transform="matrix(1, 0, 0, 1, -14.43, -4.12)" filter="url(#Ellipse_336)">
        <circle id="Ellipse_336-2" data-name="Ellipse 336" cx="46.99" cy="46.99" r="46.99" transform="translate(179.02 69.27)" fill="url(#linear-gradient)"/>
      </g>
      <circle id="Ellipse_337" data-name="Ellipse 337" cx="45.049" cy="45.049" r="45.049" transform="translate(147.875 112.134) rotate(-45)" fill="url(#linear-gradient-2)"/>
      <g id="Group_6343-2" data-name="Group 6343" transform="translate(88 -10)">
        <path id="Path_4622" data-name="Path 4622" d="M128.964,151.932H118.205a15.84,15.84,0,0,1-15.823-15.822V108.158a15.84,15.84,0,0,1,15.823-15.822h10.759a15.84,15.84,0,0,1,15.823,15.822V136.11A15.84,15.84,0,0,1,128.964,151.932Zm-10.759-56.79a13.031,13.031,0,0,0-13.017,13.016V136.11a13.031,13.031,0,0,0,13.017,13.016h10.759A13.031,13.031,0,0,0,141.98,136.11V108.158a13.031,13.031,0,0,0-13.016-13.016Z" fill="#fa09a7"/>
        <path id="Path_4623" data-name="Path 4623" d="M143.383,120.692h-39.6a1.4,1.4,0,0,1,0-2.807h39.6a1.4,1.4,0,1,1,0,2.807Z" fill="#fa09a7"/>
        <path id="Path_4624" data-name="Path 4624" d="M123.584,120.692a1.4,1.4,0,0,1-1.4-1.4V93.749a1.4,1.4,0,0,1,2.806,0v25.539A1.4,1.4,0,0,1,123.584,120.692Z" fill="#fa09a7"/>
      </g>
    </g>
    <path id="Path_4596" data-name="Path 4596" d="M34.346,246.963l-.622,0,.045-5.255.577,0a60.009,60.009,0,0,0,12.747-1.366l1.12,5.134A65.214,65.214,0,0,1,34.346,246.963ZM19.2,245.182A64.435,64.435,0,0,1,5.5,240.2l2.344-4.7a59.233,59.233,0,0,0,12.584,4.576Zm42.867-4.434L59.816,236a59.552,59.552,0,0,0,11.373-7.059l3.256,4.126A64.884,64.884,0,0,1,62.067,240.748Zm-68.848-8.511a65.179,65.179,0,0,1-10.147-10.456l4.157-3.214a59.981,59.981,0,0,0,9.328,9.611ZM84.84,222.77l-4.094-3.295a59.6,59.6,0,0,0,7.173-11.309l4.727,2.3A64.853,64.853,0,0,1,84.84,222.77Zm-109.356-13.5a64.465,64.465,0,0,1-4.566-13.842l5.147-1.069a59.089,59.089,0,0,0,4.192,12.711Zm122.023-12.62-5.123-1.17a59.918,59.918,0,0,0,1.492-13.308h5.256A65.159,65.159,0,0,1,97.507,196.655ZM-25.172,180.972l-5.254-.1a64.99,64.99,0,0,1,1.916-14.443l5.1,1.273A59.762,59.762,0,0,0-25.172,180.972Zm118.034-9.8a59.156,59.156,0,0,0-3.933-12.794l4.816-2.1a64.423,64.423,0,0,1,4.283,13.933ZM-18.69,155.11l-4.679-2.393a64.944,64.944,0,0,1,8.053-12.147l4.027,3.377A59.694,59.694,0,0,0-18.69,155.11Zm100.878-8.365a59.839,59.839,0,0,0-9.132-9.8l3.42-3.991a65.254,65.254,0,0,1,9.935,10.657ZM-1.543,134.678l-3.172-4.192a64.868,64.868,0,0,1,12.53-7.43l2.156,4.793A59.563,59.563,0,0,0-1.543,134.678ZM61.923,129.4a59.261,59.261,0,0,0-12.488-4.83l1.327-5.085a64.463,64.463,0,0,1,13.6,5.258ZM22.775,123.77l-1.014-5.156a65.678,65.678,0,0,1,14.517-1.195l-.152,5.254A60.721,60.721,0,0,0,22.775,123.77Z" transform="translate(55.426 -48.877)" fill="#fa09a7"/>
    <g transform="matrix(1, 0, 0, 1, 0, 0)" filter="url(#Ellipse_338)">
      <circle id="Ellipse_338-2" data-name="Ellipse 338" cx="46.99" cy="46.99" r="46.99" transform="translate(42.79 86.31)" fill="url(#linear-gradient)"/>
    </g>
    <circle id="Ellipse_339" data-name="Ellipse 339" cx="45.049" cy="45.049" r="45.049" transform="translate(44.729 88.251)" fill="url(#linear-gradient-2)"/>
    <g id="Group_6344" data-name="Group 6344" transform="translate(55.426 -48.877)">
      <g id="Group_6355" data-name="Group 6355">
        <path id="Path_4625" data-name="Path 4625" d="M43.792,198.7H24.913a1.4,1.4,0,0,1-1.4-1.4V194.66a11.178,11.178,0,0,0-3.206-7.879,19.895,19.895,0,1,1,28.186-.088,11.047,11.047,0,0,0-3.3,7.783v2.815A1.4,1.4,0,0,1,43.792,198.7Zm-17.476-2.807H42.389v-1.412a13.833,13.833,0,0,1,4.108-9.758,17.087,17.087,0,0,0-12.145-29.109q-.338,0-.678.013a17.086,17.086,0,0,0-11.389,29.172,14,14,0,0,1,4.031,9.866Z" fill="#fa09a7"/>
        <g id="Group_6354" data-name="Group 6354">
          <path id="Path_4626" data-name="Path 4626" d="M43.329,202.827H25.376a3.469,3.469,0,1,1,0-6.939H43.329a3.469,3.469,0,1,1,0,6.939ZM25.376,198.7a.662.662,0,1,0,0,1.325H43.329a.662.662,0,1,0,0-1.325Z" fill="#fa09a7"/>
        </g>
        <path id="Path_4627" data-name="Path 4627" d="M43.329,206.959H25.376a3.469,3.469,0,1,1,0-6.939H43.329a3.469,3.469,0,1,1,0,6.939Zm-17.953-4.132a.663.663,0,0,0,0,1.326H43.329a.663.663,0,1,0,0-1.326Z" fill="#fa09a7"/>
        <path id="Path_4628" data-name="Path 4628" d="M39.251,211.552h-9.8a1.4,1.4,0,0,1-1.317-.92l-1.683-4.593a1.4,1.4,0,0,1,1.318-1.886H40.934a1.4,1.4,0,0,1,1.318,1.886l-1.683,4.593A1.4,1.4,0,0,1,39.251,211.552Zm-8.817-2.807h7.837l.654-1.786H29.78Z" fill="#fa09a7"/>
        <path id="Path_4629" data-name="Path 4629" d="M38.923,198.7H29.782a1.4,1.4,0,0,1-1.384-1.176l-2.65-16.129a3.207,3.207,0,0,1,.689-2.607,2.782,2.782,0,0,1,2.11-1,2.676,2.676,0,0,1,2.014.932l1.537-2.189a2.7,2.7,0,0,1,4.508,0l1.534,2.191a2.694,2.694,0,0,1,2.018-.934,2.782,2.782,0,0,1,2.11,1,3.211,3.211,0,0,1,.689,2.607l-2.65,16.129A1.4,1.4,0,0,1,38.923,198.7Zm-7.949-2.807h6.757l2.456-14.953a.483.483,0,0,0-.021-.272,2.7,2.7,0,0,1-4.285-.283L34.355,178.2l-1.531,2.181a2.695,2.695,0,0,1-4.291.275.594.594,0,0,0-.016.281Z" fill="#fa09a7"/>
      </g>
    </g>
    <g id="Group_6347" data-name="Group 6347" transform="translate(13.426 -80.877)">
      <g transform="matrix(1, 0, 0, 1, -13.43, 80.88)" filter="url(#Ellipse_344)">
        <circle id="Ellipse_344-2" data-name="Ellipse 344" cx="46.99" cy="46.99" r="46.99" transform="translate(216.42 217.22)" fill="url(#linear-gradient)"/>
      </g>
      <circle id="Ellipse_345" data-name="Ellipse 345" cx="45.049" cy="45.049" r="45.049" transform="translate(204.938 300.035)" fill="url(#linear-gradient-2)"/>
      <path id="Path_4641" data-name="Path 4641" d="M129.689,267.037a1.4,1.4,0,0,1-1.385-1.177l-.456-2.792h-5.721l-.457,2.792a1.4,1.4,0,0,1-1.637,1.154,27.089,27.089,0,0,1-10.585-4.384,1.4,1.4,0,0,1-.342-1.974l1.651-2.3-4.046-4.045-2.3,1.651a1.4,1.4,0,0,1-1.974-.342,27.1,27.1,0,0,1-4.384-10.585,1.4,1.4,0,0,1,1.154-1.637l2.791-.457v-5.721l-2.791-.457a1.4,1.4,0,0,1-1.154-1.637,27.12,27.12,0,0,1,4.384-10.585,1.4,1.4,0,0,1,1.974-.342l2.3,1.652,4.046-4.046-1.651-2.3a1.4,1.4,0,0,1,.342-1.973,27.071,27.071,0,0,1,10.585-4.384,1.4,1.4,0,0,1,1.637,1.153l.457,2.792h5.721l.456-2.792a1.4,1.4,0,0,1,1.637-1.153,27.081,27.081,0,0,1,10.586,4.384,1.4,1.4,0,0,1,.342,1.973l-1.651,2.3,4.045,4.046,2.3-1.652a1.4,1.4,0,0,1,1.974.342,27.084,27.084,0,0,1,4.383,10.585,1.4,1.4,0,0,1-1.154,1.637l-2.791.457v5.721l2.791.457a1.4,1.4,0,0,1,1.154,1.637,27.084,27.084,0,0,1-4.383,10.585,1.4,1.4,0,0,1-1.974.342l-2.3-1.651-4.045,4.045,1.651,2.3a1.4,1.4,0,0,1-.342,1.974,27.1,27.1,0,0,1-10.585,4.384A1.453,1.453,0,0,1,129.689,267.037ZM112.244,261.1a24.243,24.243,0,0,0,6.894,2.855l.412-2.516a1.4,1.4,0,0,1,1.384-1.177h8.106a1.4,1.4,0,0,1,1.385,1.177l.411,2.516a24.273,24.273,0,0,0,6.9-2.855l-1.488-2.072a1.4,1.4,0,0,1,.147-1.811l5.731-5.73a1.4,1.4,0,0,1,1.811-.148L146,252.827a24.254,24.254,0,0,0,2.855-6.894l-2.517-.412a1.4,1.4,0,0,1-1.176-1.384v-8.106a1.4,1.4,0,0,1,1.176-1.385l2.517-.412A24.278,24.278,0,0,0,146,227.34l-2.072,1.488a1.4,1.4,0,0,1-1.811-.147l-5.731-5.731a1.4,1.4,0,0,1-.147-1.811l1.488-2.071a24.246,24.246,0,0,0-6.9-2.856l-.411,2.517a1.4,1.4,0,0,1-1.385,1.176h-8.106a1.4,1.4,0,0,1-1.384-1.176l-.412-2.517a24.228,24.228,0,0,0-6.894,2.856l1.488,2.071a1.4,1.4,0,0,1-.148,1.811l-5.731,5.731a1.4,1.4,0,0,1-1.812.147l-2.07-1.488a24.221,24.221,0,0,0-2.855,6.894l2.516.412a1.4,1.4,0,0,1,1.177,1.385v8.106a1.4,1.4,0,0,1-1.177,1.384l-2.516.412a24.209,24.209,0,0,0,2.855,6.894l2.071-1.488a1.4,1.4,0,0,1,1.811.148l5.731,5.73a1.4,1.4,0,0,1,.148,1.811Zm12.743-7.313a13.7,13.7,0,1,1,13.7-13.7A13.718,13.718,0,0,1,124.987,253.787Zm0-24.6a10.9,10.9,0,1,0,10.9,10.9A10.91,10.91,0,0,0,124.987,229.186Z" transform="translate(125 105)" fill="#fa09a7"/>
    </g>
    <path id="Path_4594" data-name="Path 4594" d="M363.87,433.441l-.673,0,.048-5.691.625,0a64.917,64.917,0,0,0,13.8-1.48l1.214,5.559A70.561,70.561,0,0,1,363.87,433.441Zm-16.4-1.928a69.855,69.855,0,0,1-14.839-5.395l2.539-5.1a64.074,64.074,0,0,0,13.627,4.956Zm46.422-4.8-2.438-5.143a64.482,64.482,0,0,0,12.316-7.644l3.526,4.468A70.239,70.239,0,0,1,393.89,426.711Zm-74.557-9.216a70.621,70.621,0,0,1-10.989-11.324l4.5-3.481a64.886,64.886,0,0,0,10.1,10.408Zm99.218-10.253-4.433-3.568a64.587,64.587,0,0,0,7.768-12.247l5.119,2.488A70.244,70.244,0,0,1,418.551,407.242ZM300.127,392.629a69.853,69.853,0,0,1-4.944-14.991l5.573-1.158a64.032,64.032,0,0,0,4.54,13.766Zm132.142-13.667-5.548-1.267a64.9,64.9,0,0,0,1.616-14.412h5.691A70.592,70.592,0,0,1,432.269,378.962ZM299.417,361.978l-5.69-.113a70.4,70.4,0,0,1,2.075-15.641l5.521,1.379A64.767,64.767,0,0,0,299.417,361.978Zm127.821-10.615a64.034,64.034,0,0,0-4.259-13.855l5.215-2.278a69.748,69.748,0,0,1,4.639,15.088Zm-120.8-17.391-5.067-2.592a70.427,70.427,0,0,1,8.721-13.154l4.362,3.657A64.612,64.612,0,0,0,306.436,333.972Zm109.244-9.059a64.9,64.9,0,0,0-9.889-10.608l3.7-4.322a70.59,70.59,0,0,1,10.758,11.54Zm-90.675-13.068-3.435-4.539a70.3,70.3,0,0,1,13.57-8.047l2.334,5.191A64.588,64.588,0,0,0,325.005,311.845Zm68.729-5.71A64.2,64.2,0,0,0,380.21,300.9l1.438-5.506a69.867,69.867,0,0,1,14.726,5.694Zm-42.394-6.1-1.1-5.584a71.151,71.151,0,0,1,15.722-1.293l-.165,5.689A65.659,65.659,0,0,0,351.34,300.033Z" transform="translate(-231.574 5.123)" fill="#fa09a7"/>
    <path id="Path_4600" data-name="Path 4600" d="M351.608,394.828a36.317,36.317,0,0,1,54.975-31.157,36.315,36.315,0,1,0-40.165,60.416A36.257,36.257,0,0,1,351.608,394.828Z" transform="translate(-231.574 5.123)" opacity="0.4" fill="url(#linear-gradient-9)" style="mix-blend-mode: multiply;isolation: isolate"/>
    <g transform="matrix(1, 0, 0, 1, 0, 0)" filter="url(#Ellipse_340)">
      <circle id="Ellipse_340-2" data-name="Ellipse 340" cx="46.99" cy="46.99" r="46.99" transform="translate(85.31 321.42)" fill="url(#linear-gradient)"/>
    </g>
    <circle id="Ellipse_341" data-name="Ellipse 341" cx="45.049" cy="45.049" r="45.049" transform="translate(87.254 323.357)" fill="url(#linear-gradient-2)"/>
    <path id="Path_4630" data-name="Path 4630" d="M352.113,385.969a1.4,1.4,0,0,1-.992-.411l-3.18-3.181a1.4,1.4,0,0,1,0-1.984l36.183-36.183a1.4,1.4,0,0,1,1.984,0l3.18,3.18a1.4,1.4,0,0,1,0,1.985l-36.182,36.183A1.4,1.4,0,0,1,352.113,385.969Zm-1.2-4.584,1.2,1.2,34.2-34.2-1.2-1.2Z" transform="translate(-231.574 5.123)" fill="#fa09a7"/>
    <path id="Path_4632" data-name="Path 4632" d="M345.753,379.608a1.4,1.4,0,0,1-.992-.411l-3.18-3.18a1.4,1.4,0,0,1,0-1.984l36.183-36.183a1.4,1.4,0,0,1,1.984,0l3.18,3.18a1.4,1.4,0,0,1,0,1.984L346.745,379.2A1.4,1.4,0,0,1,345.753,379.608Zm-1.2-4.583,1.2,1.2,34.2-34.2-1.195-1.2Z" transform="translate(-231.574 5.123)" fill="#fa09a7"/>
    <g id="Group_6350" data-name="Group 6350" transform="translate(11.426 36.123)">
      <path id="Path_4631" data-name="Path 4631" d="M348.933,382.788a1.4,1.4,0,0,1-.992-.411l-3.18-3.18a1.4,1.4,0,0,1,0-1.984l36.183-36.183a1.4,1.4,0,0,1,1.984,0l3.18,3.18a1.4,1.4,0,0,1,0,1.984l-36.183,36.183A1.4,1.4,0,0,1,348.933,382.788Zm-1.2-4.583,1.2,1.2,34.2-34.2-1.2-1.2Z" transform="translate(-243 -31)" fill="#fa09a7"/>
      <g id="Group_6349" data-name="Group 6349" transform="translate(1560 -4008)">
        <path id="Path_4633" data-name="Path 4633" d="M388.3,349.786a1.4,1.4,0,0,1-.992-.411l-9.549-9.549a1.4,1.4,0,0,1,0-1.985l3.029-3.029a4.932,4.932,0,0,1,6.978,0l4.556,4.555a4.943,4.943,0,0,1,0,6.979l-3.03,3.029A1.4,1.4,0,0,1,388.3,349.786Zm-7.565-10.953L388.3,346.4l2.037-2.037a2.132,2.132,0,0,0,0-3.01l-4.555-4.555a2.179,2.179,0,0,0-3.01,0Z" transform="translate(-1803 3977)" fill="#f932b5"/>
        <path id="Path_4634" data-name="Path 4634" d="M335.4,393.2a1.4,1.4,0,0,1-1.291-1.955l7.175-16.773a1.4,1.4,0,0,1,2.282-.44l9.541,9.54a1.4,1.4,0,0,1-.435,2.28l-16.715,7.233A1.414,1.414,0,0,1,335.4,393.2Zm7.648-15.717-4.973,11.627,11.587-5.014Z" transform="translate(-1803 3977)" fill="#fa09a7"/>
        <path id="Path_4635" data-name="Path 4635" d="M340.9,390.82a1.4,1.4,0,0,1-.992-.411l-3.141-3.142a1.4,1.4,0,0,1,1.984-1.984l3.141,3.141a1.4,1.4,0,0,1-.992,2.4Z" transform="translate(-1803 3977)" fill="#fa09a7"/>
      </g>
    </g>
    <g id="Group_6349-2" data-name="Group 6349" transform="translate(1738.426 -4085.877)">
      <g transform="matrix(1, 0, 0, 1, -1738.43, 4085.88)" filter="url(#Ellipse_342)">
        <circle id="Ellipse_342-2" data-name="Ellipse 342" cx="46.99" cy="46.99" r="46.99" transform="translate(362.22 229)" fill="url(#linear-gradient)"/>
      </g>
      <circle id="Ellipse_343" data-name="Ellipse 343" cx="45.049" cy="45.049" r="45.049" transform="translate(-1380.982 4399.004) rotate(-80.65)" fill="url(#linear-gradient-2)"/>
      <path id="Path_4636" data-name="Path 4636" d="M484.873,368.882H462.7a1.4,1.4,0,0,1-1.4-1.4v-4.415a1.4,1.4,0,0,1,1.4-1.4h22.171a1.4,1.4,0,0,1,1.4,1.4v4.415A1.4,1.4,0,0,1,484.873,368.882Zm-20.767-2.807h19.363v-1.609H464.106Z" transform="translate(-1803 3977)" fill="#fa09a7"/>
      <path id="Path_4637" data-name="Path 4637" d="M473.787,416.934a1.4,1.4,0,0,1-1.258-.784l-13.163-26.744a1.391,1.391,0,0,1-.115-.9l4.416-21.309a1.4,1.4,0,0,1,1.373-1.118h17.495a1.4,1.4,0,0,1,1.374,1.118l4.415,21.309a1.4,1.4,0,0,1-.115.9L475.046,416.15A1.4,1.4,0,0,1,473.787,416.934ZM462.1,388.6l11.691,23.753L485.478,388.6l-4.085-19.718H466.182Z" transform="translate(-1803 3977)" fill="#fa09a7"/>
      <path id="Path_4638" data-name="Path 4638" d="M473.787,416.934a1.4,1.4,0,0,1-1.4-1.4V393.952a1.4,1.4,0,0,1,2.806,0v21.579A1.4,1.4,0,0,1,473.787,416.934Z" transform="translate(-1803 3977)" fill="#fa09a7"/>
      <path id="Path_4639" data-name="Path 4639" d="M473.787,395.355a5.2,5.2,0,1,1,5.2-5.2A5.208,5.208,0,0,1,473.787,395.355Zm0-7.6a2.4,2.4,0,1,0,2.4,2.4A2.4,2.4,0,0,0,473.787,387.758Z" transform="translate(-1803 3977)" fill="#fa09a7"/>
      <path id="Path_4640" data-name="Path 4640" d="M482.749,364.466H464.827a1.4,1.4,0,0,1-1.4-1.4v-8.85a1.4,1.4,0,0,1,1.4-1.4h17.922a1.4,1.4,0,0,1,1.4,1.4v8.85A1.4,1.4,0,0,1,482.749,364.466ZM466.23,361.66h15.115v-6.044H466.23Z" transform="translate(-1803 3977)" fill="#fa09a7"/>
    </g>
    <g id="Group_6350-2" data-name="Group 6350" transform="translate(1689.426 -3841.877)">
      <g transform="matrix(1, 0, 0, 1, -1689.43, 3841.88)" filter="url(#Ellipse_332)">
        <circle id="Ellipse_332-2" data-name="Ellipse 332" cx="46.99" cy="46.99" r="46.99" transform="translate(279.79 446.33) rotate(-80.92)" fill="url(#linear-gradient)"/>
      </g>
      <circle id="Ellipse_333" data-name="Ellipse 333" cx="45.049" cy="45.049" r="45.049" transform="matrix(0.919, -0.393, 0.393, 0.919, -1414.957, 4225.535)" fill="url(#linear-gradient-2)"/>
      <path id="Path_4615" data-name="Path 4615" d="M447.183,285.813a13.584,13.584,0,1,1,13.583-13.584A13.6,13.6,0,0,1,447.183,285.813Zm0-24.361a10.777,10.777,0,1,0,10.777,10.777A10.789,10.789,0,0,0,447.183,261.452Z" transform="translate(-1803 3977)" fill="#fa09a7"/>
      <path id="Path_4616" data-name="Path 4616" d="M442.281,272.045a3.9,3.9,0,1,1,3.9-3.9A3.9,3.9,0,0,1,442.281,272.045Zm0-4.986a1.09,1.09,0,1,0,1.09,1.089A1.09,1.09,0,0,0,442.281,267.059Z" transform="translate(-1803 3977)" fill="#fa09a7"/>
      <path id="Path_4617" data-name="Path 4617" d="M447.183,281.027a8.8,8.8,0,0,1-8.229-11.912,1.4,1.4,0,0,1,2.447-.328,1.078,1.078,0,0,0,.88.451,1.089,1.089,0,0,0,.468-2.072,1.4,1.4,0,0,1-.122-2.465,8.8,8.8,0,1,1,4.556,16.326ZM441.2,271.89c-.006.113-.01.226-.01.339a5.988,5.988,0,1,0,4.571-5.821,3.889,3.889,0,0,1-4.561,5.482Z" transform="translate(-1803 3977)" fill="#fa09a7"/>
      <path id="Path_4618" data-name="Path 4618" d="M447.183,289.759c-12.515,0-23.861-6.638-28.907-16.911a1.4,1.4,0,0,1,0-1.238c5.046-10.273,16.392-16.911,28.907-16.911s23.861,6.638,28.907,16.911a1.4,1.4,0,0,1,0,1.238C471.044,283.121,459.7,289.759,447.183,289.759Zm-26.073-17.53c4.725,8.968,14.875,14.724,26.073,14.724s21.347-5.756,26.073-14.724c-4.726-8.968-14.876-14.724-26.073-14.724S425.835,263.261,421.11,272.229Z" transform="translate(-1803 3977)" fill="#fa09a7"/>
    </g>
  </g>
</svg>
