<svg xmlns="http://www.w3.org/2000/svg" xmlns:xlink="http://www.w3.org/1999/xlink" width="500" height="500" viewBox="0 0 500 500">
  <defs>
    <clipPath id="clip-Contact_Us">
      <rect width="500" height="500"/>
    </clipPath>
  </defs>
  <g id="Contact_Us" data-name="Contact Us" clip-path="url(#clip-Contact_Us)">
    <g id="Group_6343" data-name="Group 6343" transform="translate(-1 -16)">
      <g id="Group_6253" data-name="Group 6253" transform="matrix(0.966, 0.259, -0.259, 0.966, 56.201, 0)" opacity="0.14">
        <path id="Path_2240" data-name="Path 2240" d="M138.58,0,0,33.169,52.705,85.875l52.705,52.705Z" transform="translate(47.402 31.162)" fill="#f85373"/>
        <g id="Group_2217" data-name="Group 2217" transform="translate(0 0)">
          <path id="Path_2241" data-name="Path 2241" d="M164.3,217.144a1.677,1.677,0,0,1-1.183-.49L.49,54.028a1.673,1.673,0,0,1,.794-2.81L215.082.045A1.673,1.673,0,0,1,217.1,2.062l-51.172,213.8a1.673,1.673,0,0,1-1.627,1.283ZM4.969,53.775l158.4,158.4L213.21,3.934Z" transform="translate(0 0)" fill="#161414"/>
          <path id="Path_2242" data-name="Path 2242" d="M164.3,165.971a1.671,1.671,0,0,1-1.183-.49L.49,2.856a1.673,1.673,0,0,1,1.6-2.8l129.436,33.19a1.672,1.672,0,0,1,1.2,1.2l33.19,129.438a1.673,1.673,0,0,1-1.621,2.088ZM7.177,4.811,161.161,158.795,129.735,36.237Z" transform="translate(0 51.172)" fill="#161414"/>
          <path id="Path_2243" data-name="Path 2243" d="M1.673,84.172A1.673,1.673,0,0,1,.49,81.316L81.316.49a1.672,1.672,0,1,1,2.365,2.366L2.856,83.682A1.67,1.67,0,0,1,1.673,84.172Z" transform="translate(130.512 2.459)" fill="#161414"/>
        </g>
      </g>
      <g id="Group_6254" data-name="Group 6254" transform="translate(53.14 433.513)" opacity="0.14">
        <path id="Path_1404" data-name="Path 1404" d="M385.87,365.575a39.7,39.7,0,1,1,39.7-39.7A39.745,39.745,0,0,1,385.87,365.575Zm0-75.525a35.824,35.824,0,1,0,35.824,35.824A35.864,35.864,0,0,0,385.87,290.05Z" transform="translate(-346.171 -286.174)" fill="#f85373"/>
        <path id="Path_1405" data-name="Path 1405" d="M385.87,345.959a20.085,20.085,0,1,1,20.086-20.085A20.108,20.108,0,0,1,385.87,345.959Zm0-36.294a16.209,16.209,0,1,0,16.21,16.209A16.226,16.226,0,0,0,385.87,309.665Z" transform="translate(-346.171 -286.174)" fill="#161414"/>
      </g>
      <g id="Group_6255" data-name="Group 6255" transform="translate(438.14 346.513)" opacity="0.14">
        <path id="Path_1404-2" data-name="Path 1404" d="M385.87,365.575a39.7,39.7,0,1,1,39.7-39.7A39.745,39.745,0,0,1,385.87,365.575Zm0-75.525a35.824,35.824,0,1,0,35.824,35.824A35.864,35.864,0,0,0,385.87,290.05Z" transform="translate(-346.171 -286.174)" fill="#f85373"/>
        <path id="Path_1405-2" data-name="Path 1405" d="M385.87,345.959a20.085,20.085,0,1,1,20.086-20.085A20.108,20.108,0,0,1,385.87,345.959Zm0-36.294a16.209,16.209,0,1,0,16.21,16.209A16.226,16.226,0,0,0,385.87,309.665Z" transform="translate(-346.171 -286.174)" fill="#161414"/>
      </g>
      <g id="Group_6256" data-name="Group 6256" transform="translate(434.14 43.513)" opacity="0.14">
        <path id="Path_1404-3" data-name="Path 1404" d="M385.87,365.575a39.7,39.7,0,1,1,39.7-39.7A39.745,39.745,0,0,1,385.87,365.575Zm0-75.525a35.824,35.824,0,1,0,35.824,35.824A35.864,35.864,0,0,0,385.87,290.05Z" transform="translate(-346.171 -286.174)" fill="#f85373"/>
        <path id="Path_1405-3" data-name="Path 1405" d="M385.87,345.959a20.085,20.085,0,1,1,20.086-20.085A20.108,20.108,0,0,1,385.87,345.959Zm0-36.294a16.209,16.209,0,1,0,16.21,16.209A16.226,16.226,0,0,0,385.87,309.665Z" transform="translate(-346.171 -286.174)" fill="#161414"/>
      </g>
    </g>
    <rect id="Rectangle_3624" data-name="Rectangle 3624" width="262.171" height="179.552" transform="translate(37 142.559)" fill="#d54284"/>
    <path id="Path_4643" data-name="Path 4643" d="M373.387,365.741,504.473,259.225,635.558,365.741Z" transform="translate(-336.387 -43.629)" fill="#fc7cb5"/>
    <path id="Path_4644" data-name="Path 4644" d="M373.387,210.206l131.086,98.077,131.086-98.077Z" transform="translate(-336.387 -67.647)" fill="#fc7cb5"/>
    <path id="Path_4645" data-name="Path 4645" d="M480.014,150.6H435.535a24.391,24.391,0,0,0-24.392,24.392v31.565a24.383,24.383,0,0,0,16.437,23.038l.781,16.917,21.913-15.564h29.74a24.391,24.391,0,0,0,24.391-24.391V174.987A24.391,24.391,0,0,0,480.014,150.6Z" transform="translate(-317.888 -96.855)" fill="#bdbdbd"/>
    <path id="Path_4646" data-name="Path 4646" d="M523.307,120.568h-58.68a32.181,32.181,0,0,0-32.181,32.181v41.643a32.181,32.181,0,0,0,32.181,32.18h39.234l28.91,20.532,1.03-22.317a32.169,32.169,0,0,0,21.687-30.4V152.749A32.181,32.181,0,0,0,523.307,120.568Z" transform="translate(-307.447 -111.568)" fill="#fc7cb5"/>
    <text id="_" data-name="@" transform="translate(149 82.357)" fill="#fff" font-size="73" font-family="Montserrat-Black, Montserrat" font-weight="800"><tspan x="0" y="0">@</tspan></text>
    <path id="Rectangle_3625" data-name="Rectangle 3625" d="M13.169,0H71.8A25.939,25.939,0,0,1,97.739,25.939V309.967A25.939,25.939,0,0,1,71.8,335.906H13.169A13.169,13.169,0,0,1,0,322.737V13.169A13.169,13.169,0,0,1,13.169,0Z" transform="translate(351.579 68.498)" fill="#cf3a53"/>
    <rect id="Rectangle_3626" data-name="Rectangle 3626" width="47.354" height="184.778" transform="translate(349.956 144.062)" fill="#992b3e"/>
    <rect id="Rectangle_3627" data-name="Rectangle 3627" width="87.778" height="100.998" rx="13.169" transform="translate(314.472 68.498)" fill="#f24561"/>
    <rect id="Rectangle_3628" data-name="Rectangle 3628" width="62.369" height="75.328" rx="10.465" transform="translate(327.176 81.333)" fill="#cf3a53"/>
    <path id="Path_4647" data-name="Path 4647" d="M588.344,179.174a3.7,3.7,0,1,1-3.7-3.7A3.7,3.7,0,0,1,588.344,179.174Z" transform="translate(-234.688 -84.664)" fill="#571823"/>
    <path id="Path_4648" data-name="Path 4648" d="M599.624,179.174a3.7,3.7,0,1,1-3.7-3.7A3.7,3.7,0,0,1,599.624,179.174Z" transform="translate(-229.161 -84.664)" fill="#571823"/>
    <path id="Path_4649" data-name="Path 4649" d="M582.7,187.391a3.7,3.7,0,1,1-3.7-3.7A3.7,3.7,0,0,1,582.7,187.391Z" transform="translate(-237.452 -80.638)" fill="#571823"/>
    <path id="Path_4650" data-name="Path 4650" d="M593.983,187.391a3.7,3.7,0,1,1-3.7-3.7A3.7,3.7,0,0,1,593.983,187.391Z" transform="translate(-231.925 -80.638)" fill="#571823"/>
    <path id="Path_4651" data-name="Path 4651" d="M605.264,187.391a3.7,3.7,0,1,1-3.7-3.7A3.7,3.7,0,0,1,605.264,187.391Z" transform="translate(-226.397 -80.638)" fill="#571823"/>
    <path id="Path_4652" data-name="Path 4652" d="M577.063,195.608a3.7,3.7,0,1,1-3.7-3.7A3.7,3.7,0,0,1,577.063,195.608Z" transform="translate(-240.216 -76.612)" fill="#571823"/>
    <path id="Path_4653" data-name="Path 4653" d="M588.344,195.608a3.7,3.7,0,1,1-3.7-3.7A3.7,3.7,0,0,1,588.344,195.608Z" transform="translate(-234.688 -76.612)" fill="#571823"/>
    <path id="Path_4654" data-name="Path 4654" d="M599.624,195.608a3.7,3.7,0,1,1-3.7-3.7A3.7,3.7,0,0,1,599.624,195.608Z" transform="translate(-229.161 -76.612)" fill="#571823"/>
    <path id="Path_4655" data-name="Path 4655" d="M610.906,195.608a3.7,3.7,0,1,1-3.7-3.7A3.7,3.7,0,0,1,610.906,195.608Z" transform="translate(-223.634 -76.612)" fill="#571823"/>
    <path id="Path_4656" data-name="Path 4656" d="M582.7,203.825a3.7,3.7,0,1,1-3.7-3.7A3.7,3.7,0,0,1,582.7,203.825Z" transform="translate(-237.452 -72.586)" fill="#571823"/>
    <path id="Path_4657" data-name="Path 4657" d="M593.983,203.825a3.7,3.7,0,1,1-3.7-3.7A3.7,3.7,0,0,1,593.983,203.825Z" transform="translate(-231.925 -72.586)" fill="#571823"/>
    <path id="Path_4658" data-name="Path 4658" d="M605.264,203.825a3.7,3.7,0,1,1-3.7-3.7A3.7,3.7,0,0,1,605.264,203.825Z" transform="translate(-226.397 -72.586)" fill="#571823"/>
    <path id="Path_4659" data-name="Path 4659" d="M588.344,212.042a3.7,3.7,0,1,1-3.7-3.7A3.7,3.7,0,0,1,588.344,212.042Z" transform="translate(-234.688 -68.559)" fill="#571823"/>
    <path id="Path_4660" data-name="Path 4660" d="M599.624,212.042a3.7,3.7,0,1,1-3.7-3.7A3.7,3.7,0,0,1,599.624,212.042Z" transform="translate(-229.161 -68.559)" fill="#571823"/>
    <rect id="Rectangle_3629" data-name="Rectangle 3629" width="87.778" height="100.998" rx="13.169" transform="translate(314.472 303.406)" fill="#f24561"/>
    <rect id="Rectangle_3630" data-name="Rectangle 3630" width="62.369" height="75.328" rx="10.465" transform="translate(327.176 316.241)" fill="#cf3a53"/>
    <path id="Path_4661" data-name="Path 4661" d="M588.344,336.833a3.7,3.7,0,1,1-3.7-3.7A3.7,3.7,0,0,1,588.344,336.833Z" transform="translate(-234.688 -7.415)" fill="#571823"/>
    <path id="Path_4662" data-name="Path 4662" d="M599.624,336.833a3.7,3.7,0,1,1-3.7-3.7A3.7,3.7,0,0,1,599.624,336.833Z" transform="translate(-229.161 -7.415)" fill="#571823"/>
    <path id="Path_4663" data-name="Path 4663" d="M582.7,345.05a3.7,3.7,0,1,1-3.7-3.7A3.7,3.7,0,0,1,582.7,345.05Z" transform="translate(-237.452 -3.389)" fill="#571823"/>
    <path id="Path_4664" data-name="Path 4664" d="M593.983,345.05a3.7,3.7,0,1,1-3.7-3.7A3.7,3.7,0,0,1,593.983,345.05Z" transform="translate(-231.925 -3.389)" fill="#571823"/>
    <path id="Path_4665" data-name="Path 4665" d="M605.264,345.05a3.7,3.7,0,1,1-3.7-3.7A3.7,3.7,0,0,1,605.264,345.05Z" transform="translate(-226.397 -3.389)" fill="#571823"/>
    <path id="Path_4666" data-name="Path 4666" d="M577.063,353.267a3.7,3.7,0,1,1-3.7-3.7A3.7,3.7,0,0,1,577.063,353.267Z" transform="translate(-240.216 0.637)" fill="#571823"/>
    <path id="Path_4667" data-name="Path 4667" d="M588.344,353.267a3.7,3.7,0,1,1-3.7-3.7A3.7,3.7,0,0,1,588.344,353.267Z" transform="translate(-234.688 0.637)" fill="#571823"/>
    <path id="Path_4668" data-name="Path 4668" d="M599.624,353.267a3.7,3.7,0,1,1-3.7-3.7A3.7,3.7,0,0,1,599.624,353.267Z" transform="translate(-229.161 0.637)" fill="#571823"/>
    <path id="Path_4669" data-name="Path 4669" d="M610.906,353.267a3.7,3.7,0,1,1-3.7-3.7A3.7,3.7,0,0,1,610.906,353.267Z" transform="translate(-223.634 0.637)" fill="#571823"/>
    <path id="Path_4670" data-name="Path 4670" d="M582.7,361.484a3.7,3.7,0,1,1-3.7-3.7A3.7,3.7,0,0,1,582.7,361.484Z" transform="translate(-237.452 4.664)" fill="#571823"/>
    <path id="Path_4671" data-name="Path 4671" d="M593.983,361.484a3.7,3.7,0,1,1-3.7-3.7A3.7,3.7,0,0,1,593.983,361.484Z" transform="translate(-231.925 4.664)" fill="#571823"/>
    <path id="Path_4672" data-name="Path 4672" d="M605.264,361.484a3.7,3.7,0,1,1-3.7-3.7A3.7,3.7,0,0,1,605.264,361.484Z" transform="translate(-226.397 4.664)" fill="#571823"/>
    <path id="Path_4673" data-name="Path 4673" d="M588.344,369.7a3.7,3.7,0,1,1-3.7-3.7A3.7,3.7,0,0,1,588.344,369.7Z" transform="translate(-234.688 8.69)" fill="#571823"/>
    <path id="Path_4674" data-name="Path 4674" d="M599.624,369.7a3.7,3.7,0,1,1-3.7-3.7A3.7,3.7,0,0,1,599.624,369.7Z" transform="translate(-229.161 8.69)" fill="#571823"/>
    <path id="Path_4675" data-name="Path 4675" d="M485.973,330.713v23.54a20.494,20.494,0,0,1-20.495,20.5H423.854a12.71,12.71,0,0,0-12.711,12.711h0a12.71,12.71,0,0,0,12.711,12.709H535.623a12.57,12.57,0,0,1,12.569,12.569h0a12.57,12.57,0,0,1-12.569,12.569H465.3a22.411,22.411,0,0,0-22.411,22.411h0A22.41,22.41,0,0,0,465.3,470.129H686.465a22.6,22.6,0,0,0,22.6-22.6V413.006" transform="translate(-317.888 -8.602)" fill="none" stroke="#fc7cb5" stroke-miterlimit="10" stroke-width="3"/>
    <path id="Path2" d="M537.369,364.691a58,58,0,0,0,16.344,40.25l12.137-9.454a42.459,42.459,0,0,1,0-61.593l-12.137-9.452A57.989,57.989,0,0,0,537.369,364.691Z" transform="translate(-256.04 -11.674)" fill="#fc7cb5" opacity="0.5"/>
    <path id="Path3" d="M514.795,371.5a91.538,91.538,0,0,0,23.4,60.955l12.064-9.4a75.875,75.875,0,0,1,0-103.117l-12.064-9.4A91.537,91.537,0,0,0,514.795,371.5Z" transform="translate(-267.101 -18.483)" fill="#fc7cb5" opacity="0.5"/>
    <path id="Path_4678" data-name="Path 4678" d="M688.289,467.591l-100.205-.012a9.9,9.9,0,0,1-9.9-9.9l0-31.361a9.9,9.9,0,0,1,9.9-9.9h0l0-19.484,18.483,19.487,81.719.009a9.9,9.9,0,0,1,9.9,9.905l0,31.36A9.9,9.9,0,0,1,688.289,467.591Z" transform="translate(-236.043 23.842)" fill="#fc7cb5"/>
    <circle id="Ellipse_346" data-name="Ellipse 346" cx="7.963" cy="7.963" r="7.963" transform="translate(429.109 471.584) rotate(-83.008)" fill="#24335c"/>
    <circle id="Ellipse_347" data-name="Ellipse 347" cx="7.963" cy="7.963" r="7.963" transform="translate(390.88 464.795) rotate(-45)" fill="#24335c"/>
    <circle id="Ellipse_348" data-name="Ellipse 348" cx="7.963" cy="7.963" r="7.963" transform="translate(355.039 464.94) rotate(-45)" fill="#24335c"/>
  </g>
</svg>
