<svg xmlns="http://www.w3.org/2000/svg" xmlns:xlink="http://www.w3.org/1999/xlink" width="500" height="500" viewBox="0 0 500 500">
  <defs>
    <filter id="Path_4404" x="145.336" y="93.841" width="227.826" height="385.682" filterUnits="userSpaceOnUse">
      <feOffset dy="3" input="SourceAlpha"/>
      <feGaussianBlur stdDeviation="5" result="blur"/>
      <feFlood flood-opacity="0.161"/>
      <feComposite operator="in" in2="blur"/>
      <feComposite in="SourceGraphic"/>
    </filter>
    <filter id="Ellipse_240" x="90.872" y="52.082" width="79.575" height="79.575" filterUnits="userSpaceOnUse">
      <feOffset dy="3" input="SourceAlpha"/>
      <feGaussianBlur stdDeviation="3" result="blur-2"/>
      <feFlood flood-opacity="0.161"/>
      <feComposite operator="in" in2="blur-2"/>
      <feComposite in="SourceGraphic"/>
    </filter>
    <filter id="Path_4350" x="91.81" y="53.021" width="77.698" height="77.698" filterUnits="userSpaceOnUse">
      <feOffset dy="3" input="SourceAlpha"/>
      <feGaussianBlur stdDeviation="3" result="blur-3"/>
      <feFlood flood-opacity="0.161"/>
      <feComposite operator="in" in2="blur-3"/>
      <feComposite in="SourceGraphic"/>
    </filter>
    <filter id="Ellipse_241" x="88.158" y="49.444" width="85.112" height="85.112" filterUnits="userSpaceOnUse">
      <feOffset dy="3" input="SourceAlpha"/>
      <feGaussianBlur stdDeviation="3" result="blur-4"/>
      <feFlood flood-opacity="0.161"/>
      <feComposite operator="in" in2="blur-4"/>
      <feComposite in="SourceGraphic"/>
    </filter>
    <filter id="Path_4351" x="98.559" y="59.777" width="64.21" height="64.211" filterUnits="userSpaceOnUse">
      <feOffset dy="3" input="SourceAlpha"/>
      <feGaussianBlur stdDeviation="3" result="blur-5"/>
      <feFlood flood-opacity="0.161"/>
      <feComposite operator="in" in2="blur-5"/>
      <feComposite in="SourceGraphic"/>
    </filter>
    <filter id="Path_4352" x="98.175" y="89.379" width="24.281" height="22.064" filterUnits="userSpaceOnUse">
      <feOffset dy="3" input="SourceAlpha"/>
      <feGaussianBlur stdDeviation="3" result="blur-6"/>
      <feFlood flood-opacity="0.161"/>
      <feComposite operator="in" in2="blur-6"/>
      <feComposite in="SourceGraphic"/>
    </filter>
    <filter id="Path_4353" x="128.161" y="100.091" width="22.065" height="24.281" filterUnits="userSpaceOnUse">
      <feOffset dy="3" input="SourceAlpha"/>
      <feGaussianBlur stdDeviation="3" result="blur-7"/>
      <feFlood flood-opacity="0.161"/>
      <feComposite operator="in" in2="blur-7"/>
      <feComposite in="SourceGraphic"/>
    </filter>
    <filter id="Path_4354" x="138.873" y="72.322" width="24.281" height="22.064" filterUnits="userSpaceOnUse">
      <feOffset dy="3" input="SourceAlpha"/>
      <feGaussianBlur stdDeviation="3" result="blur-8"/>
      <feFlood flood-opacity="0.161"/>
      <feComposite operator="in" in2="blur-8"/>
      <feComposite in="SourceGraphic"/>
    </filter>
    <filter id="Path_4355" x="111.104" y="59.393" width="22.064" height="24.281" filterUnits="userSpaceOnUse">
      <feOffset dy="3" input="SourceAlpha"/>
      <feGaussianBlur stdDeviation="3" result="blur-9"/>
      <feFlood flood-opacity="0.161"/>
      <feComposite operator="in" in2="blur-9"/>
      <feComposite in="SourceGraphic"/>
    </filter>
    <filter id="Rectangle_3616" x="120.382" y="43.554" width="25.43" height="24.768" filterUnits="userSpaceOnUse">
      <feOffset dy="3" input="SourceAlpha"/>
      <feGaussianBlur stdDeviation="3" result="blur-10"/>
      <feFlood flood-opacity="0.161"/>
      <feComposite operator="in" in2="blur-10"/>
      <feComposite in="SourceGraphic"/>
    </filter>
    <filter id="Rectangle_3617" x="89.994" y="54.699" width="27.335" height="27.414" filterUnits="userSpaceOnUse">
      <feOffset dy="3" input="SourceAlpha"/>
      <feGaussianBlur stdDeviation="3" result="blur-11"/>
      <feFlood flood-opacity="0.161"/>
      <feComposite operator="in" in2="blur-11"/>
      <feComposite in="SourceGraphic"/>
    </filter>
    <filter id="Rectangle_3618" x="102.188" y="42.848" width="27.758" height="25.811" filterUnits="userSpaceOnUse">
      <feOffset dy="3" input="SourceAlpha"/>
      <feGaussianBlur stdDeviation="3" result="blur-12"/>
      <feFlood flood-opacity="0.161"/>
      <feComposite operator="in" in2="blur-12"/>
      <feComposite in="SourceGraphic"/>
    </filter>
    <filter id="Path_4356" x="96.385" y="34.416" width="36.975" height="36.973" filterUnits="userSpaceOnUse">
      <feOffset dy="3" input="SourceAlpha"/>
      <feGaussianBlur stdDeviation="3" result="blur-13"/>
      <feFlood flood-opacity="0.161"/>
      <feComposite operator="in" in2="blur-13"/>
      <feComposite in="SourceGraphic"/>
    </filter>
    <filter id="Path_4357" x="106.315" y="48.53" width="23.578" height="24.11" filterUnits="userSpaceOnUse">
      <feOffset dy="3" input="SourceAlpha"/>
      <feGaussianBlur stdDeviation="3" result="blur-14"/>
      <feFlood flood-opacity="0.161"/>
      <feComposite operator="in" in2="blur-14"/>
      <feComposite in="SourceGraphic"/>
    </filter>
    <filter id="Path_4358" x="119.413" y="80.588" width="22.497" height="22.497" filterUnits="userSpaceOnUse">
      <feOffset dy="3" input="SourceAlpha"/>
      <feGaussianBlur stdDeviation="3" result="blur-15"/>
      <feFlood flood-opacity="0.161"/>
      <feComposite operator="in" in2="blur-15"/>
      <feComposite in="SourceGraphic"/>
    </filter>
    <filter id="Path_4359" x="120.76" y="64.46" width="21.294" height="37.244" filterUnits="userSpaceOnUse">
      <feOffset dy="3" input="SourceAlpha"/>
      <feGaussianBlur stdDeviation="3" result="blur-16"/>
      <feFlood flood-opacity="0.161"/>
      <feComposite operator="in" in2="blur-16"/>
      <feComposite in="SourceGraphic"/>
    </filter>
    <filter id="Path_4360" x="120.871" y="82.056" width="35.035" height="27.922" filterUnits="userSpaceOnUse">
      <feOffset dy="3" input="SourceAlpha"/>
      <feGaussianBlur stdDeviation="3" result="blur-17"/>
      <feFlood flood-opacity="0.161"/>
      <feComposite operator="in" in2="blur-17"/>
      <feComposite in="SourceGraphic"/>
    </filter>
    <filter id="Path_4361" x="120.743" y="81.918" width="19.837" height="19.837" filterUnits="userSpaceOnUse">
      <feOffset dy="3" input="SourceAlpha"/>
      <feGaussianBlur stdDeviation="3" result="blur-18"/>
      <feFlood flood-opacity="0.161"/>
      <feComposite operator="in" in2="blur-18"/>
      <feComposite in="SourceGraphic"/>
    </filter>
    <filter id="Path_4362" x="373.818" y="168.091" width="66.262" height="65.683" filterUnits="userSpaceOnUse">
      <feOffset dy="3" input="SourceAlpha"/>
      <feGaussianBlur stdDeviation="3" result="blur-19"/>
      <feFlood flood-opacity="0.161"/>
      <feComposite operator="in" in2="blur-19"/>
      <feComposite in="SourceGraphic"/>
    </filter>
    <filter id="Path_4363" x="414.121" y="195.612" width="56.214" height="55.757" filterUnits="userSpaceOnUse">
      <feOffset dy="3" input="SourceAlpha"/>
      <feGaussianBlur stdDeviation="3" result="blur-20"/>
      <feFlood flood-opacity="0.161"/>
      <feComposite operator="in" in2="blur-20"/>
      <feComposite in="SourceGraphic"/>
    </filter>
    <filter id="Path_4427" x="220.213" y="28" width="71.762" height="71.762" filterUnits="userSpaceOnUse">
      <feOffset dy="3" input="SourceAlpha"/>
      <feGaussianBlur stdDeviation="3" result="blur-21"/>
      <feFlood flood-opacity="0.161"/>
      <feComposite operator="in" in2="blur-21"/>
      <feComposite in="SourceGraphic"/>
    </filter>
    <filter id="Path_4428" x="232.524" y="39.354" width="46.695" height="46.694" filterUnits="userSpaceOnUse">
      <feOffset dy="3" input="SourceAlpha"/>
      <feGaussianBlur stdDeviation="3" result="blur-22"/>
      <feFlood flood-opacity="0.161"/>
      <feComposite operator="in" in2="blur-22"/>
      <feComposite in="SourceGraphic"/>
    </filter>
    <filter id="Path_4429" x="242.147" y="47.808" width="24.189" height="26.352" filterUnits="userSpaceOnUse">
      <feOffset dy="3" input="SourceAlpha"/>
      <feGaussianBlur stdDeviation="3" result="blur-23"/>
      <feFlood flood-opacity="0.161"/>
      <feComposite operator="in" in2="blur-23"/>
      <feComposite in="SourceGraphic"/>
    </filter>
    <filter id="Path_4430" x="246.117" y="49.304" width="27.388" height="24.837" filterUnits="userSpaceOnUse">
      <feOffset dy="3" input="SourceAlpha"/>
      <feGaussianBlur stdDeviation="3" result="blur-24"/>
      <feFlood flood-opacity="0.161"/>
      <feComposite operator="in" in2="blur-24"/>
      <feComposite in="SourceGraphic"/>
    </filter>
    <filter id="Rectangle_3619" x="-1.002" y="154.867" width="102.864" height="62.145" filterUnits="userSpaceOnUse">
      <feOffset dy="3" input="SourceAlpha"/>
      <feGaussianBlur stdDeviation="3" result="blur-25"/>
      <feFlood flood-opacity="0.161"/>
      <feComposite operator="in" in2="blur-25"/>
      <feComposite in="SourceGraphic"/>
    </filter>
    <filter id="Path_4431" x="73.791" y="172.127" width="38.901" height="37.587" filterUnits="userSpaceOnUse">
      <feOffset dy="3" input="SourceAlpha"/>
      <feGaussianBlur stdDeviation="3" result="blur-26"/>
      <feFlood flood-opacity="0.161"/>
      <feComposite operator="in" in2="blur-26"/>
      <feComposite in="SourceGraphic"/>
    </filter>
    <filter id="Path_4432" x="19.934" y="172.258" width="25.321" height="24.508" filterUnits="userSpaceOnUse">
      <feOffset dy="3" input="SourceAlpha"/>
      <feGaussianBlur stdDeviation="3" result="blur-27"/>
      <feFlood flood-opacity="0.161"/>
      <feComposite operator="in" in2="blur-27"/>
      <feComposite in="SourceGraphic"/>
    </filter>
    <filter id="Path_4433" x="36.966" y="172.258" width="25.322" height="24.508" filterUnits="userSpaceOnUse">
      <feOffset dy="3" input="SourceAlpha"/>
      <feGaussianBlur stdDeviation="3" result="blur-28"/>
      <feFlood flood-opacity="0.161"/>
      <feComposite operator="in" in2="blur-28"/>
      <feComposite in="SourceGraphic"/>
    </filter>
    <filter id="Path_4434" x="53.999" y="172.258" width="25.321" height="24.508" filterUnits="userSpaceOnUse">
      <feOffset dy="3" input="SourceAlpha"/>
      <feGaussianBlur stdDeviation="3" result="blur-29"/>
      <feFlood flood-opacity="0.161"/>
      <feComposite operator="in" in2="blur-29"/>
      <feComposite in="SourceGraphic"/>
    </filter>
    <filter id="Path_4370" x="358.162" y="74.556" width="65.06" height="60.312" filterUnits="userSpaceOnUse">
      <feOffset dy="3" input="SourceAlpha"/>
      <feGaussianBlur stdDeviation="3" result="blur-30"/>
      <feFlood flood-opacity="0.161"/>
      <feComposite operator="in" in2="blur-30"/>
      <feComposite in="SourceGraphic"/>
    </filter>
    <filter id="Path_4371" x="367.464" y="81.335" width="46.083" height="47.402" filterUnits="userSpaceOnUse">
      <feOffset dy="3" input="SourceAlpha"/>
      <feGaussianBlur stdDeviation="3" result="blur-31"/>
      <feFlood flood-opacity="0.161"/>
      <feComposite operator="in" in2="blur-31"/>
      <feComposite in="SourceGraphic"/>
    </filter>
    <filter id="Path_4372" x="358.162" y="96.541" width="36.863" height="38.327" filterUnits="userSpaceOnUse">
      <feOffset dy="3" input="SourceAlpha"/>
      <feGaussianBlur stdDeviation="3" result="blur-32"/>
      <feFlood flood-opacity="0.161"/>
      <feComposite operator="in" in2="blur-32"/>
      <feComposite in="SourceGraphic"/>
    </filter>
    <filter id="Path_4437" x="380.143" y="56.266" width="23.243" height="29.598" filterUnits="userSpaceOnUse">
      <feOffset dy="3" input="SourceAlpha"/>
      <feGaussianBlur stdDeviation="3" result="blur-33"/>
      <feFlood flood-opacity="0.161"/>
      <feComposite operator="in" in2="blur-33"/>
      <feComposite in="SourceGraphic"/>
    </filter>
    <filter id="Path_4438" x="396.534" y="54.985" width="23.274" height="30.376" filterUnits="userSpaceOnUse">
      <feOffset dy="3" input="SourceAlpha"/>
      <feGaussianBlur stdDeviation="3" result="blur-34"/>
      <feFlood flood-opacity="0.161"/>
      <feComposite operator="in" in2="blur-34"/>
      <feComposite in="SourceGraphic"/>
    </filter>
    <filter id="Path_4439" x="408.632" y="71.475" width="29.805" height="24.78" filterUnits="userSpaceOnUse">
      <feOffset dy="3" input="SourceAlpha"/>
      <feGaussianBlur stdDeviation="3" result="blur-35"/>
      <feFlood flood-opacity="0.161"/>
      <feComposite operator="in" in2="blur-35"/>
      <feComposite in="SourceGraphic"/>
    </filter>
    <filter id="Path_4440" x="404.608" y="106.086" width="25.806" height="27.166" filterUnits="userSpaceOnUse">
      <feOffset dy="3" input="SourceAlpha"/>
      <feGaussianBlur stdDeviation="3" result="blur-36"/>
      <feFlood flood-opacity="0.161"/>
      <feComposite operator="in" in2="blur-36"/>
      <feComposite in="SourceGraphic"/>
    </filter>
    <filter id="Path_4441" x="410.787" y="94.196" width="29.059" height="23.714" filterUnits="userSpaceOnUse">
      <feOffset dy="3" input="SourceAlpha"/>
      <feGaussianBlur stdDeviation="3" result="blur-37"/>
      <feFlood flood-opacity="0.161"/>
      <feComposite operator="in" in2="blur-37"/>
      <feComposite in="SourceGraphic"/>
    </filter>
    <clipPath id="clip-FAQ">
      <rect width="500" height="500"/>
    </clipPath>
  </defs>
  <g id="FAQ" clip-path="url(#clip-FAQ)">
    <g id="Group_6257" data-name="Group 6257">
      <g id="Group_6253" data-name="Group 6253" transform="matrix(0.966, 0.259, -0.259, 0.966, -60.625, -282.72)" opacity="0.14">
        <path id="Path_2240" data-name="Path 2240" d="M311.939,237.258l-138.58,33.169,52.705,52.705,52.705,52.705Z" transform="translate(11.979 7.875)" fill="#f85373"/>
        <g id="Group_2217" data-name="Group 2217" transform="translate(137.937 213.971)">
          <path id="Path_2241" data-name="Path 2241" d="M302.236,431.115a1.677,1.677,0,0,1-1.183-.49L138.427,268a1.673,1.673,0,0,1,.794-2.81l213.8-51.172a1.673,1.673,0,0,1,2.017,2.017l-51.172,213.8a1.673,1.673,0,0,1-1.627,1.283ZM142.906,267.746l158.4,158.4,49.842-208.239Z" transform="translate(-137.937 -213.971)" fill="#161414"/>
          <path id="Path_2242" data-name="Path 2242" d="M302.236,418.182a1.671,1.671,0,0,1-1.183-.49L138.427,255.067a1.673,1.673,0,0,1,1.6-2.8l129.436,33.19a1.672,1.672,0,0,1,1.2,1.2l33.19,129.438a1.673,1.673,0,0,1-1.621,2.088ZM145.114,257.022,299.1,411.006,267.672,288.448Z" transform="translate(-137.937 -201.039)" fill="#161414"/>
          <path id="Path_2243" data-name="Path 2243" d="M237.139,299.981a1.673,1.673,0,0,1-1.183-2.856L316.782,216.3a1.672,1.672,0,0,1,2.365,2.366l-80.825,80.827A1.67,1.67,0,0,1,237.139,299.981Z" transform="translate(-104.954 -213.35)" fill="#161414"/>
        </g>
      </g>
      <g id="Group_6254" data-name="Group 6254" transform="translate(-332 127)" opacity="0.14">
        <path id="Path_1404" data-name="Path 1404" d="M385.87,365.575a39.7,39.7,0,1,1,39.7-39.7A39.745,39.745,0,0,1,385.87,365.575Zm0-75.525a35.824,35.824,0,1,0,35.824,35.824A35.864,35.864,0,0,0,385.87,290.05Z" fill="#f85373"/>
        <path id="Path_1405" data-name="Path 1405" d="M385.87,345.959a20.085,20.085,0,1,1,20.086-20.085A20.108,20.108,0,0,1,385.87,345.959Zm0-36.294a16.209,16.209,0,1,0,16.21,16.209A16.226,16.226,0,0,0,385.87,309.665Z" fill="#161414"/>
      </g>
      <g id="Group_6255" data-name="Group 6255" transform="translate(53 20)" opacity="0.14">
        <path id="Path_1404-2" data-name="Path 1404" d="M385.87,365.575a39.7,39.7,0,1,1,39.7-39.7A39.745,39.745,0,0,1,385.87,365.575Zm0-75.525a35.824,35.824,0,1,0,35.824,35.824A35.864,35.864,0,0,0,385.87,290.05Z" fill="#f85373"/>
        <path id="Path_1405-2" data-name="Path 1405" d="M385.87,345.959a20.085,20.085,0,1,1,20.086-20.085A20.108,20.108,0,0,1,385.87,345.959Zm0-36.294a16.209,16.209,0,1,0,16.21,16.209A16.226,16.226,0,0,0,385.87,309.665Z" fill="#161414"/>
      </g>
      <g id="Group_6256" data-name="Group 6256" transform="translate(68 -283)" opacity="0.14">
        <path id="Path_1404-3" data-name="Path 1404" d="M385.87,365.575a39.7,39.7,0,1,1,39.7-39.7A39.745,39.745,0,0,1,385.87,365.575Zm0-75.525a35.824,35.824,0,1,0,35.824,35.824A35.864,35.864,0,0,0,385.87,290.05Z" fill="#f85373"/>
        <path id="Path_1405-3" data-name="Path 1405" d="M385.87,345.959a20.085,20.085,0,1,1,20.086-20.085A20.108,20.108,0,0,1,385.87,345.959Zm0-36.294a16.209,16.209,0,1,0,16.21,16.209A16.226,16.226,0,0,0,385.87,309.665Z" fill="#161414"/>
      </g>
    </g>
    <g id="Group_6204" data-name="Group 6204" transform="translate(0 461.319)">
      <path id="Path_4349" data-name="Path 4349" d="M713.966,1680.49H217.283a1.88,1.88,0,0,0-.056,3.733H713.966a1.761,1.761,0,0,0,1.631-1.866h0A1.761,1.761,0,0,0,713.966,1680.49Z" transform="translate(-215.597 -1680.49)" fill="#fc7cb5"/>
    </g>
    <g id="Group_6219" data-name="Group 6219" transform="translate(334.737 242.505)">
      <path id="Path_4390" data-name="Path 4390" d="M1334.658,1023.933l16.912,16.912s32.2,12.594,35.8,20.33-3.239,7.376-10.8,6.3-28.966-14.393-28.966-14.393L1328,1030.41Z" transform="translate(-1328.001 -1023.933)" fill="#4951ec"/>
      <path id="Path_4391" data-name="Path 4391" d="M1457.9,1122.529l-4.182-1.484-8.1,3.778s-4.183,2.834-6.207,9.85,0,48.981,3.373,55.728S1457.9,1122.529,1457.9,1122.529Z" transform="translate(-1401.746 -1088.68)" fill="#bed1f9"/>
      <path id="Path_4392" data-name="Path 4392" d="M1576.187,1614.372s2.974,1.915,3.218,2.8,2.425,10.417,1.609,11.522-3.8.571-2.643,1.375c.877.608,6.53,1.073,10.143.1,1.055-.285.573-9.2.728-10.556.225-1.972,1.591-6.448.762-7.615-.4-.568-2.724-1.568-4.811-2.382a17.262,17.262,0,0,1-4.632-3.277Z" transform="translate(-1493.473 -1412.234)" fill="#fb9390"/>
      <path id="Path_4393" data-name="Path 4393" d="M1587.613,1615.941s-1.756,16.916-3.811,18.165c-.545.332-3.437.579-3.7,1.96-.007.035-.067,1.417.81,1.451l10.963-.034s.115-8.317.045-11.575c0,0,1.514-8.317,1.02-8.939S1587.613,1615.941,1587.613,1615.941Z" transform="translate(-1496.079 -1418.639)" fill="#0b0754"/>
      <path id="Path_4394" data-name="Path 4394" d="M1704.936,1614.372s2.975,1.915,3.219,2.8,2.425,10.417,1.609,11.522-3.8.571-2.643,1.375c.877.608,6.53,1.073,10.143.1,1.055-.285.573-9.2.728-10.556.225-1.972,1.591-6.448.762-7.615-.4-.568-2.724-1.568-4.811-2.382a17.268,17.268,0,0,1-4.632-3.277Z" transform="translate(-1579.313 -1412.234)" fill="#fb9390"/>
      <path id="Path_4395" data-name="Path 4395" d="M1499.921,1300.577s10.025,19.907,12.08,25.252l15.278,38.761,33.693,39.635s-2.466,6.368-6.2,8.075c0,0-40.623-32.8-43.964-37.968-5.093-7.875-28.286-56.124-28.286-56.124l-4.312-9.28Z" transform="translate(-1428.15 -1208.378)" fill="#e8605d"/>
      <path id="Path_4396" data-name="Path 4396" d="M1458.908,1287.943l.16,16.975s-7.252,55.447-5.847,58.742c3.428,8.036,41.11,35.262,41.11,35.262l5.127-8.816-27.077-30.225,10.254-29.416c2.87-6.833,8.973-20.037,8.818-27.446-.133-6.35-12.72-21.075-12.72-21.075Z" transform="translate(-1411.368 -1195.956)" fill="#fa7167"/>
      <path id="Path_4397" data-name="Path 4397" d="M1468.269,1205.049c9.984-2.268,18.064-5.8,18.892-8.58.375-1.26-5.193-13.925-9.289-30.836-1.338-5.521-1.1-10.708-3.238-30.045-.455-4.1-2.154-12.7-8.505-14.917a9.531,9.531,0,0,0-3.476-.679c-.053.01-8.082.063-11.755,2.1-.906,1.231-4.285,7.962-5.185,26.313-.393,8.012-1.993,33.737-1.664,37.917q.074.93.186,1.8C1445.671,1199.229,1457.349,1207.529,1468.269,1205.049Z" transform="translate(-1405.343 -1087.975)" fill="#4951ec"/>
      <path id="Path_4398" data-name="Path 4398" d="M1463.861,1116.132c.007,0,.017,0,.029,0,4.069-.449,14.307-13.862,14.307-13.862l-.022-.037-6.317-10s-9.3,1.694-7.484,4.528,2.84,9.628,2.84,9.628c-.031.077-.072.171-.128.284C1466.448,1108.056,1464.363,1112.168,1463.861,1116.132Z" transform="translate(-1418.582 -1069.467)" fill="#fb9390"/>
      <path id="Path_4399" data-name="Path 4399" d="M1464.932,1096.755c-1.82-2.83,7.485-4.526,7.485-4.526l.526.833a5.418,5.418,0,0,1-.261,1.9,12.159,12.159,0,0,1-5.931,6.536A18.036,18.036,0,0,0,1464.932,1096.755Z" transform="translate(-1419.139 -1069.468)" fill="#ef7f7f"/>
      <g id="Group_6218" data-name="Group 6218" transform="translate(34.765 1.449)">
        <path id="Path_4400" data-name="Path 4400" d="M1447.562,1042.725c.2-.191,7.257,11.415,5.563,16.194s-7.4,8.59-10.781,6.885c-3.745-1.886-9.407-15.2-5.994-20.843S1447.562,1042.725,1447.562,1042.725Z" transform="translate(-1434.303 -1037.232)" fill="#fb9390"/>
        <path id="Path_4401" data-name="Path 4401" d="M1435.355,1028.567c4.153-.892,11.571.334,15.748,3.272,5.136,3.613,5.305,10.025,2.991,14.216s-.921,7.278-.921,7.278-7.218-.453-8.68-5.366c-.613-2.061.15-3.458-1.237-4.62-1.068-.9-1.966-3.5-3.025-5.594,0,0-4.656-2.476-6.429-.437C1433.2,1038.013,1430.027,1029.712,1435.355,1028.567Z" transform="translate(-1432.315 -1028.282)" fill="#0b0754"/>
        <path id="Path_4402" data-name="Path 4402" d="M1462.229,1069.212c.632,1.516,1.858,2.448,2.739,2.081s1.084-1.893.452-3.409-1.858-2.448-2.739-2.08S1461.6,1067.7,1462.229,1069.212Z" transform="translate(-1452.014 -1053.245)" fill="#fb9390"/>
      </g>
      <path id="Path_4403" data-name="Path 4403" d="M1716.407,1616s-1.8,16.9-3.858,18.146c-.546.332-3.437.579-3.7,1.96-.007.035-.09,1.462.81,1.439l10.952-.022s.126-8.317.056-11.575c0,0,1.515-8.317,1.02-8.939S1716.407,1616,1716.407,1616Z" transform="translate(-1581.916 -1418.678)" fill="#0b0754"/>
    </g>
    <g transform="matrix(1, 0, 0, 1, 0, 0)" filter="url(#Path_4404)">
      <path id="Path_4404-2" data-name="Path 4404" d="M871.418,869.773c-8.7-18.209-11.1-45.383-1.609-66.937,15.993-36.38,60-51.228,56.759-92.459-.816-10.385-5.436-18.739-12.243-24.113-17.911-14.143-46.729-6.658-67.3,3.218a128.9,128.9,0,0,0-36.6,26.851l-5.722-72.822c24.69-17.52,54.566-26.681,84.385-29.024,61.1-4.8,108.289,18.116,113.091,79.237,4.38,55.743-33.29,80.438-58.56,108.3-14.027,15.468-17.2,27.383-16.111,41.185.561,7.135,3.237,15.946,7.538,21.561Zm43.874,99.582c-59.394,4.667-66.272-75.125-6.274-79.84C968.118,884.872,974.458,964.706,915.292,969.356Z" transform="translate(-644.37 -508.03)" fill="#fc7cb5"/>
    </g>
    <path id="Path_4405" data-name="Path 4405" d="M1289.276,1008.854c-.111-.5.3-.105-.459-4.041a7.415,7.415,0,0,0-1.453-2.97,6.8,6.8,0,0,0-1.347-1.178.674.674,0,0,0-1.075.63c.136.374.838,1.666.973,2.04s.2,1.292-.113,1.6-5.229-5.336-5.535-5.83a19.528,19.528,0,0,1-.843-2.255s-.429-1.335-.953-.995c-.342.223-.719,1.322.267,3.489.862,1.892,2.054,3.4,1.919,3.515-.354.291-2.49-2.267-2.49-2.267a11.256,11.256,0,0,0-1.25-1.932c-.318-.947-.9-2.125-1.5-1.664a12.29,12.29,0,0,0,.291,2.1s.745,1.335,1.063,1.992c.56,1.159,1.835,2.565,2.272,3.321.364.628.011.483-.018.556a16.554,16.554,0,0,1-1.413-1.675,13.908,13.908,0,0,1-1.407-1.69,16.76,16.76,0,0,0-1.4-1.883c-1.107-1.321-1.7-.423-.853.97.321.53.674,1.1,1.035,1.686,1.4,2.26,3.132,4.026,2.964,4.239-.218.276-3.191-3.13-3.191-3.13s-2.1-1.4-.849.659a21.086,21.086,0,0,0,3.084,3.974,19.955,19.955,0,0,0,3.742,3.682c1.932,1.23,5.066,3.087,5.066,3.087.359.434,1.277,1.847,2.547,3.843l4.685-5.637A36.631,36.631,0,0,1,1289.276,1008.854Z" transform="translate(-956.936 -762.669)" fill="#fb9390"/>
    <path id="Path_4406" data-name="Path 4406" d="M1309.718,1047.492l6.477-5.667,22.241,21.949s34.432,3.019,34.522,3.044l1.379.431c12.49,4.314,7.348,14.506,4.942,16.083-5.606,3.674-36.738,1.472-46.713-4.715C1324.355,1073.523,1309.718,1047.492,1309.718,1047.492Z" transform="translate(-981.074 -793.357)" fill="#7c9af2"/>
    <g id="Group_6225" data-name="Group 6225" transform="translate(88.159 205.41)">
      <path id="Path_4407" data-name="Path 4407" d="M614.243,1145.142a7.447,7.447,0,0,0,.706,1.828,69.129,69.129,0,0,0,6.755,9.592l3.652-8.78s-.6-2.758-1.628-6.7C620.2,1142.065,616.843,1142.634,614.243,1145.142Z" transform="translate(-605.543 -1064.945)" fill="#fb9390"/>
      <path id="Path_4408" data-name="Path 4408" d="M618.118,1068.993s-20.367,9.36-21.026,9.182c-.424-.115-8.355-14.282-8.439-27.6-.039-6.153,5.948-13.554,12.628-12.091,3.363.737,3.311,1.735,8.287,9.452S618.118,1068.993,618.118,1068.993Z" transform="translate(-588.481 -996.412)" fill="#4951ec"/>
      <path id="Path_4409" data-name="Path 4409" d="M726.505,1633.978s-.483,8.537-.486,8.555c-.178,1.084-.877,3.762-.877,4.747,0,3.7,16.47-3.142,12.778-4.783-.334-.148-2.084-1.271-2.194-2.532-.169-1.941-.6-5.868-.6-5.868Z" transform="translate(-679.482 -1393.57)" fill="#fb9390"/>
      <path id="Path_4410" data-name="Path 4410" d="M736.713,1659.13a59.372,59.372,0,0,1-5.847,1.416c-1.98.283-4.591-2.1-5.992-1.457-1.542.708-1.481,7.088-1.481,7.088s20.736,1.816,26.567-.062C752.269,1665.369,744.618,1661.767,736.713,1659.13Z" transform="translate(-678.315 -1410.238)" fill="#0b0754"/>
      <path id="Path_4411" data-name="Path 4411" d="M625.414,1633.978s-.483,8.537-.486,8.555c-.178,1.084-.877,3.762-.877,4.747,0,3.7,16.47-3.142,12.778-4.783-.334-.148-2.6-2.11-2.713-3.37-.169-1.941-.08-5.03-.08-5.03Z" transform="translate(-612.082 -1393.57)" fill="#fb9390"/>
      <path id="Path_4412" data-name="Path 4412" d="M635.378,1659.13a59.39,59.39,0,0,1-5.847,1.416c-1.98.283-4.591-2.1-5.992-1.457-1.542.708-1.6,7.088-1.6,7.088s20.83,2.117,26.689-.062C650.9,1665.267,643.283,1661.767,635.378,1659.13Z" transform="translate(-610.671 -1410.238)" fill="#0b0754"/>
      <g id="Group_6223" data-name="Group 6223" transform="translate(18.366 17.9)">
        <path id="Path_4413" data-name="Path 4413" d="M643.245,1033.365l14.505-21.686c.061-.19.193-.578.394-1.172.73-2.152,2.251-6.63,3.575-11.084l.014-.047c.416-1.557,1.3-4.273,2.151-6.9.948-2.922,2.125-6.545,2.166-7.163-.036-.106-.1-.295-.2-.547a52.844,52.844,0,0,1-1.505-6.508c-.162-.971-.324-3.333.758-3.333,1.7,0,.891,2.359,1.675,3.832a39.259,39.259,0,0,0,1.179-4.914l.284-4.611c.055-.348-.292-2.891.9-2.891l.057,0c1.072.083,1.048,2.788,1.494,7.361.141-.527.282-1.161.388-1.745a17.772,17.772,0,0,1,.363-2.414c-.216-1.274-.091-3.284,1.181-3.095.638.1.585,2.9.585,2.9-.007.385-.044,3.351-.025,3.937.131-1,.64-5.24,1.638-5.24.827,0,.893,1.143.876,2.046-.01.535-.53,5.134-.559,5.668.389-.7.852-4.75,1.237-4.75,1.613,0,1.03,5.762.438,7.263a6.983,6.983,0,0,0-.184.8,14.8,14.8,0,0,1-1.384,4.287c-1.013,1.849-2.41,4.79-2.623,5.241-.156.919-.641,4.222-1.252,8.377-.261,1.778-.548,3.728-.846,5.747l-.016,0c-.055.437-.357,1.827-1.5,7.04-1.57,7.134-1.733,7.442-1.8,7.574-.682,1.288-16.321,23.955-16.987,24.919l-.392.569Z" transform="translate(-643.245 -966.338)" fill="#fb9390"/>
        <path id="Path_4414" data-name="Path 4414" d="M717.649,1009.011s-1.177-3.213-3.273-3.219a2.282,2.282,0,0,1,2.175.4A4.6,4.6,0,0,1,717.649,1009.011Z" transform="translate(-690.67 -992.563)" fill="#ef7f7f"/>
      </g>
      <g id="Group_6224" data-name="Group 6224">
        <path id="Path_4415" data-name="Path 4415" d="M628.993,995.585l-1.867,12.6s7.115,6.1,11.262,4.811c3.48-1.079,1.093-5.935,1.093-5.935s-1.854-6.729-1.285-10.255S628.993,995.585,628.993,995.585Z" transform="translate(-614.132 -967.446)" fill="#fb9390"/>
        <path id="Path_4416" data-name="Path 4416" d="M633.351,999.4a27.671,27.671,0,0,0,8.053,2.422,17.833,17.833,0,0,1-.19-5.007c.263-1.628-1.678-2.013-3.844-1.957-2.834.259-5.36.732-5.36.732l-.359,2.422A5.911,5.911,0,0,0,633.351,999.4Z" transform="translate(-617.149 -967.448)" fill="#ef7f7f"/>
        <path id="Path_4417" data-name="Path 4417" d="M605.748,939.889c-.294,0,2.813,14.08,7.619,16.5s11.976,1.16,13.321-2.633c1.488-4.194-3.939-18.558-10.7-20.383S605.748,939.889,605.748,939.889Z" transform="translate(-599.866 -926.288)" fill="#fb9390"/>
        <path id="Path_4418" data-name="Path 4418" d="M599.582,913.294a15.9,15.9,0,0,0-6.195,7.3c-1.8.913-3.983,2.887-5.029,8.206-1.287,6.54,3.289,11.582,8.14,13.1s5.671,4.943,5.671,4.943l.48-3.687a14.857,14.857,0,0,0-2.7-4.816c-1.623-1.607.768-3.948.979-5.858.162-1.471-.853-4.326-.633-6.739,0,0,2.7-4.36,5.353-5.437C610.175,918.471,604.508,910.262,599.582,913.294Z" transform="translate(-588.138 -912.629)" fill="#0b0754"/>
        <path id="Path_4419" data-name="Path 4419" d="M621.073,974.844c.628,1.626.371,3.24-.574,3.606s-2.22-.657-2.849-2.283-.371-3.24.574-3.606S620.445,973.218,621.073,974.844Z" transform="translate(-607.586 -952.538)" fill="#fb9390"/>
      </g>
      <path id="Path_4420" data-name="Path 4420" d="M682.334,1141.651l27.98-4.868s-3.183-8.554-4.321-8.554-21.157,9.327-21.157,9.327l-1.592,3.412Z" transform="translate(-650.941 -1056.375)" fill="#fb9390"/>
      <path id="Path_4421" data-name="Path 4421" d="M629.794,1227.2s-2.791,14.4-1.654,25.321,1.227,49.708,1.227,49.708l-4.34,62.064,10.3.24s12.212-62.034,11.985-60.442,4.095-43.678,4.095-43.678l-14.559-34.578Z" transform="translate(-612.733 -1121.454)" fill="#0b0754"/>
      <path id="Path_4422" data-name="Path 4422" d="M646.143,1218.33s-1.82,12.967.455,18.654,19.512,61.489,19.74,66.039,5.96,54.838,5.96,54.838l11.976-.36,2.591-55.911-5.425-70.272-5.267-17.766Z" transform="translate(-626.352 -1113.262)" fill="#0b0754"/>
      <path id="Path_4423" data-name="Path 4423" d="M627.126,1026.719s2.953,2.068,5.707,1.828,6.648-2.952,6.648-2.952l-.541-1.958s-7.125-1.108-7.305-.988S627.126,1026.719,627.126,1026.719Z" transform="translate(-614.132 -985.976)" fill="#fb9390"/>
      <path id="Path_4424" data-name="Path 4424" d="M721.567,1105.823s10.583,10.659,15.361,8.839,6.754-8.041-4.9-17.142C721.593,1089.374,721.567,1105.823,721.567,1105.823Z" transform="translate(-677.098 -1034.39)" fill="#fb9390"/>
      <path id="Path_4425" data-name="Path 4425" d="M646.01,1076.07c-1.572-9.129-12.967-37.536-13.877-42.767-.442-2.545-6.589-2.6-12.443-2.269-6.184.351-12.326,1.186-12.326,1.186s-5.474.959-7.883,3.368-3.048,9.07.414,21.714c2.733,9.981,6.121,15.462,7.8,22.733.34,2.439.631,4.844,1.016,7.655.616,10.871-.007,25.233-.007,25.233s29.8,6.6,40.948-3.412C649.65,1109.511,647.621,1085.423,646.01,1076.07Z" transform="translate(-594.371 -991.477)" fill="#7c9af2"/>
      <path id="Path_4426" data-name="Path 4426" d="M699.181,1057.172s-11.694,10.3-12.376,10.3c-.439,0-16.687-12.756-20.437-23.235-2.073-5.794,2.276-12.275,7.243-12.254,3.443.015,4.973.962,11.8,7.1S699.181,1057.172,699.181,1057.172Z" transform="translate(-639.943 -992.206)" fill="#4951ec"/>
    </g>
    <g id="Group_6258" data-name="Group 6258">
      <g transform="matrix(1, 0, 0, 1, 0, 0)" filter="url(#Ellipse_240)">
        <circle id="Ellipse_240-2" data-name="Ellipse 240" cx="30.647" cy="30.647" r="30.647" transform="matrix(1, 0, 0, 1, 99.87, 58.36)" fill="#fc7cb5"/>
      </g>
      <g transform="matrix(1, 0, 0, 1, 0, 0)" filter="url(#Path_4350)">
        <path id="Path_4350-2" data-name="Path 4350" d="M765.555,488.733a29.849,29.849,0,1,1,15.991-39.067A29.883,29.883,0,0,1,765.555,488.733Z" transform="translate(-623.36 -372.33)" fill="#fc7cb5"/>
      </g>
      <g transform="matrix(1, 0, 0, 1, 0, 0)" filter="url(#Ellipse_241)">
        <circle id="Ellipse_241-2" data-name="Ellipse 241" cx="24.375" cy="24.375" r="24.375" transform="matrix(0.53, -0.85, 0.85, 0.53, 97.16, 96.89)" fill="#fff"/>
      </g>
      <g transform="matrix(1, 0, 0, 1, 0, 0)" filter="url(#Path_4351)">
        <path id="Path_4351-2" data-name="Path 4351" d="M776.455,496.043a23.105,23.105,0,1,1,12.379-30.24A23.131,23.131,0,0,1,776.455,496.043Z" transform="translate(-636.86 -385.85)" fill="#fff"/>
      </g>
      <g transform="matrix(1, 0, 0, 1, 0, 0)" filter="url(#Path_4352)">
        <path id="Path_4352-2" data-name="Path 4352" d="M747.838,540.544l-3.815,1.6a1.232,1.232,0,1,0,.953,2.273l3.815-1.6a1.233,1.233,0,1,0-.953-2.274Z" transform="translate(-636.09 -445.07)" fill="#fc7cb5"/>
      </g>
      <g transform="matrix(1, 0, 0, 1, 0, 0)" filter="url(#Path_4353)">
        <path id="Path_4353-2" data-name="Path 4353" d="M834,572.687a1.234,1.234,0,0,0-.66,1.613l1.6,3.815a1.233,1.233,0,0,0,2.274-.953l-1.6-3.815A1.234,1.234,0,0,0,834,572.687Z" transform="translate(-696.08 -466.5)" fill="#fc7cb5"/>
      </g>
      <g transform="matrix(1, 0, 0, 1, 0, 0)" filter="url(#Path_4354)">
        <path id="Path_4354-2" data-name="Path 4354" d="M869.953,489.365l-3.815,1.6a1.233,1.233,0,1,0,.953,2.274l3.815-1.6a1.232,1.232,0,1,0-.953-2.273Z" transform="translate(-717.51 -410.95)" fill="#fc7cb5"/>
      </g>
      <g transform="matrix(1, 0, 0, 1, 0, 0)" filter="url(#Path_4355)">
        <path id="Path_4355-2" data-name="Path 4355" d="M782.816,450.572a1.234,1.234,0,0,0-.661,1.613l1.6,3.816a1.233,1.233,0,0,0,2.274-.953l-1.6-3.815A1.233,1.233,0,0,0,782.816,450.572Z" transform="translate(-661.96 -385.08)" fill="#fc7cb5"/>
      </g>
      <g transform="matrix(1, 0, 0, 1, 0, 0)" filter="url(#Rectangle_3616)">
        <path id="Rectangle_3616-2" data-name="Rectangle 3616" d="M2.164,0H4.13A2.162,2.162,0,0,1,6.293,2.162V4.843A2.163,2.163,0,0,1,4.13,7.006H2.164A2.164,2.164,0,0,1,0,4.841V2.164A2.164,2.164,0,0,1,2.164,0Z" transform="translate(129.38 55.83) rotate(-85.98)" fill="#fc7cb5"/>
      </g>
      <g transform="matrix(1, 0, 0, 1, 0, 0)" filter="url(#Rectangle_3617)">
        <path id="Rectangle_3617-2" data-name="Rectangle 3617" d="M2.164,0H4.843A2.163,2.163,0,0,1,7.006,2.163V4.13A2.163,2.163,0,0,1,4.843,6.292H2.164A2.164,2.164,0,0,1,0,4.128V2.164A2.164,2.164,0,0,1,2.164,0Z" transform="matrix(0.65, -0.76, 0.76, 0.65, 98.99, 66.03)" fill="#fc7cb5"/>
      </g>
      <g transform="matrix(1, 0, 0, 1, 0, 0)" filter="url(#Rectangle_3618)">
        <path id="Rectangle_3618-2" data-name="Rectangle 3618" d="M2.105,0H6.422A2.106,2.106,0,0,1,8.529,2.106v.685a2.1,2.1,0,0,1-2.1,2.1H2.1A2.1,2.1,0,0,1,0,2.791V2.105A2.105,2.105,0,0,1,2.105,0Z" transform="matrix(0.92, -0.39, 0.39, 0.92, 111.19, 52.14)" fill="#fc7cb5"/>
      </g>
      <g transform="matrix(1, 0, 0, 1, 0, 0)" filter="url(#Path_4356)">
        <path id="Path_4356-2" data-name="Path 4356" d="M747.963,392.664a7.666,7.666,0,1,1,4.465-1.867l.732,1.746a9.488,9.488,0,1,0-4.463,1.87Z" transform="translate(-632.51 -335.11)" fill="#fc7cb5"/>
      </g>
      <g transform="matrix(1, 0, 0, 1, 0, 0)" filter="url(#Path_4357)">
        <path id="Path_4357-2" data-name="Path 4357" d="M770.953,423.393q1.15-.482,2.316-.866l-1.947-4.647-3.63,1.521,1.923,4.589Q770.273,423.678,770.953,423.393Z" transform="translate(-652.38 -363.35)" fill="#fc7cb5"/>
      </g>
      <g transform="matrix(1, 0, 0, 1, 0, 0)" filter="url(#Path_4358)">
        <path id="Path_4358-2" data-name="Path 4358" d="M811.314,515.452a2.248,2.248,0,1,1-2.942-1.2A2.248,2.248,0,0,1,811.314,515.452Z" transform="translate(-678.58 -427.48)" fill="#fc7cb5"/>
      </g>
      <g transform="matrix(1, 0, 0, 1, 0, 0)" filter="url(#Path_4359)">
        <path id="Path_4359-2" data-name="Path 4359" d="M814.327,465.679l-1.605,18.471a.846.846,0,0,1-1.685-.146C811.043,483.93,810.9,484.745,814.327,465.679Z" transform="translate(-681.27 -395.22)" fill="#fc7cb5"/>
      </g>
      <g transform="matrix(1, 0, 0, 1, 0, 0)" filter="url(#Path_4360)">
        <path id="Path_4360-2" data-name="Path 4360" d="M828.4,528.4l-16.568-8.321a.846.846,0,1,1,.759-1.511C812.658,518.6,811.954,518.166,828.4,528.4Z" transform="translate(-681.5 -430.42)" fill="#fc7cb5"/>
      </g>
      <g transform="matrix(1, 0, 0, 1, 0, 0)" filter="url(#Path_4361)">
        <path id="Path_4361-2" data-name="Path 4361" d="M812.748,518.626a.918.918,0,1,1-1.2-.492A.919.919,0,0,1,812.748,518.626Z" transform="translate(-681.24 -430.14)" fill="#fc7cb5"/>
      </g>
      <g transform="matrix(1, 0, 0, 1, 0, 0)" filter="url(#Path_4362)">
        <path id="Path_4362-2" data-name="Path 4362" d="M1480.759,852.116a.9.9,0,0,0-.909-.273c-1.619.438-4.552-.215-6-.722l-1.579-7.818c1.139-1.03,3.589-2.769,5.251-2.994a.9.9,0,0,0,.732-.6l2-5.943a.9.9,0,0,0-.218-.924c-1.189-1.183-2.089-4.05-2.375-5.559l5.981-5.276c1.461.472,4.193,1.723,5.219,3.05a.9.9,0,0,0,.89.332l6.145-1.241a.9.9,0,0,0,.691-.651c.431-1.621,2.463-3.834,3.626-4.836l7.56,2.542c.322,1.5.6,4.493-.033,6.045a.9.9,0,0,0,.158.936l4.147,4.7a.9.9,0,0,0,.909.273c1.62-.438,4.552.215,6,.722l1.579,7.818c-1.14,1.029-3.589,2.77-5.251,2.995a.9.9,0,0,0-.732.6l-2,5.942a.9.9,0,0,0,.218.924c1.189,1.183,2.089,4.05,2.376,5.559l-5.982,5.276c-1.461-.472-4.193-1.723-5.219-3.05a.9.9,0,0,0-.889-.332l-6.146,1.241a.9.9,0,0,0-.691.651c-.43,1.621-2.462,3.834-3.626,4.837l-7.56-2.542c-.322-1.5-.6-4.493.032-6.045a.9.9,0,0,0-.157-.936Zm17.2-1.918a7.855,7.855,0,1,0-9.254-6.145A7.855,7.855,0,0,0,1497.955,850.2Zm1,4.938a12.892,12.892,0,1,0-15.189-10.086A12.892,12.892,0,0,0,1498.951,855.136Z" transform="translate(-1089.45 -644.57)" fill="#fc7cb5"/>
      </g>
      <g transform="matrix(1, 0, 0, 1, 0, 0)" filter="url(#Path_4363)">
        <path id="Path_4363-2" data-name="Path 4363" d="M1612.16,935.161a.713.713,0,0,1,.548-.516l4.865-.982a.713.713,0,0,1,.7.263,10.21,10.21,0,0,0,4.132,2.416l4.736-4.178a10.207,10.207,0,0,0-1.881-4.4.713.713,0,0,1-.173-.731l1.582-4.706a.712.712,0,0,1,.579-.479,10.211,10.211,0,0,0,4.158-2.371l-1.25-6.191a10.213,10.213,0,0,0-4.753-.571.712.712,0,0,1-.72-.216l-3.284-3.723a.714.714,0,0,1-.125-.741,10.2,10.2,0,0,0,.026-4.786l-5.986-2.013a10.2,10.2,0,0,0-2.872,3.83.712.712,0,0,1-.547.515l-4.866.982a.712.712,0,0,1-.7-.263,10.208,10.208,0,0,0-4.133-2.416l-4.736,4.178a10.209,10.209,0,0,0,1.881,4.4.713.713,0,0,1,.173.732l-1.582,4.705a.714.714,0,0,1-.58.479,10.212,10.212,0,0,0-4.158,2.371l1.25,6.191a10.205,10.205,0,0,0,4.752.572.714.714,0,0,1,.72.216l3.284,3.723a.712.712,0,0,1,.125.742,10.2,10.2,0,0,0-.025,4.786l5.986,2.013A10.211,10.211,0,0,0,1612.16,935.161Zm1.676-7.464a7.737,7.737,0,1,1,6.053-9.116A7.737,7.737,0,0,1,1613.836,927.7Z" transform="translate(-1170.08 -699.62)" fill="#fc7cb5"/>
      </g>
      <g transform="matrix(1, 0, 0, 1, 0, 0)" filter="url(#Path_4427)">
        <path id="Path_4427-2" data-name="Path 4427" d="M1199.259,423.445,1173.9,440.6a5.627,5.627,0,0,1-7.814-1.508l-17.153-25.354a5.627,5.627,0,0,1,1.508-7.814L1175.8,388.77a5.627,5.627,0,0,1,7.813,1.507l17.153,25.354A5.627,5.627,0,0,1,1199.259,423.445Z" transform="translate(-918.76 -353.8)" fill="#fc7cb5"/>
      </g>
      <g transform="matrix(1, 0, 0, 1, 0, 0)" filter="url(#Path_4428)">
        <path id="Path_4428-2" data-name="Path 4428" d="M1211.14,428.18a14.346,14.346,0,1,1-19.921-3.844A14.345,14.345,0,0,1,1211.14,428.18Z" transform="translate(-943.39 -376.52)" fill="#fff"/>
      </g>
      <g transform="matrix(1, 0, 0, 1, 0, 0)" filter="url(#Path_4429)">
        <path id="Path_4429-2" data-name="Path 4429" d="M1213.785,447.236l5.885,6.417a1.155,1.155,0,0,1-1.7,1.561,1.207,1.207,0,0,1-.174-.249Z" transform="translate(-962.64 -393.43)" fill="#fc7cb5"/>
      </g>
      <g transform="matrix(1, 0, 0, 1, 0, 0)" filter="url(#Path_4430)">
        <path id="Path_4430-2" data-name="Path 4430" d="M1226.208,456.7l8.878-4.971-7.745,6.6a1,1,0,1,1-1.293-1.517A1.043,1.043,0,0,1,1226.208,456.7Z" transform="translate(-970.58 -396.42)" fill="#fc7cb5"/>
      </g>
      <g transform="matrix(1, 0, 0, 1, 0, 0)" filter="url(#Rectangle_3619)">
        <rect id="Rectangle_3619-2" data-name="Rectangle 3619" width="84.864" height="44.145" rx="22.073" transform="translate(8 160.87)" fill="#fc7cb5"/>
      </g>
      <g transform="matrix(1, 0, 0, 1, 0, 0)" filter="url(#Path_4431)">
        <path id="Path_4431-2" data-name="Path 4431" d="M572.032,840.985l20.9,9.368-13.994-19.587Z" transform="translate(-489.24 -652.64)" fill="#fc7cb5"/>
      </g>
      <g transform="matrix(1, 0, 0, 1, 0, 0)" filter="url(#Path_4432)">
        <path id="Path_4432-2" data-name="Path 4432" d="M417.755,834.414a3.686,3.686,0,1,1-3.661-3.254A3.475,3.475,0,0,1,417.755,834.414Z" transform="translate(-381.5 -652.9)" fill="#fff"/>
      </g>
      <g transform="matrix(1, 0, 0, 1, 0, 0)" filter="url(#Path_4433)">
        <path id="Path_4433-2" data-name="Path 4433" d="M468.861,834.414a3.686,3.686,0,1,1-3.661-3.254A3.475,3.475,0,0,1,468.861,834.414Z" transform="translate(-415.57 -652.9)" fill="#fff"/>
      </g>
      <g transform="matrix(1, 0, 0, 1, 0, 0)" filter="url(#Path_4434)">
        <path id="Path_4434-2" data-name="Path 4434" d="M519.966,834.414a3.686,3.686,0,1,1-3.661-3.254A3.475,3.475,0,0,1,519.966,834.414Z" transform="translate(-449.65 -652.9)" fill="#fff"/>
      </g>
      <g transform="matrix(1, 0, 0, 1, 0, 0)" filter="url(#Path_4370)">
        <path id="Path_4370-2" data-name="Path 4370" d="M1469.534,545.227c8.307,12.694-2.991,30.313-17.783,27.692a11.2,11.2,0,0,0-7.805,1.607l-8.18,5.042a4.72,4.72,0,0,1-6.507-1.384l-3.147-4.809a5.354,5.354,0,0,1,1.074-6.919c7.4-6.335,10.544-8.133,11.538-13.445C1441.63,537.471,1461.226,532.529,1469.534,545.227Z" transform="translate(-1058.13 -457.45)" fill="#ffc0dc"/>
      </g>
      <g transform="matrix(1, 0, 0, 1, 0, 0)" filter="url(#Path_4371)">
        <path id="Path_4371-2" data-name="Path 4371" d="M1468.635,565.771a15.656,15.656,0,0,1-.387-2.236c-.378-4.438,3.052-5.973,4.859-4.828a3.269,3.269,0,0,1,.961,4.043,10.794,10.794,0,0,1-3.207,3.64,21.429,21.429,0,0,0,3.291,6.758c4.045-2.438,6.935-1.1,7.123,1.1a3.6,3.6,0,0,1-2.159,3.472c-.818.356-2.936.846-5.443-1.928-6.828,4.815-15.738,11.931-15.766,11.952l-1.131-1.572c.027-.021,8.887-7.091,15.691-11.9a23.257,23.257,0,0,1-3.256-6.434c-7.782,6.793-14.641,12.163-14.88,12.357l-1.127-1.576C1453.7,578.216,1460.345,573.042,1468.635,565.771Zm3.282-5.406c-.6-.229-2.205.435-1.56,3.9C1472.159,562.68,1472.707,561.987,1471.917,560.365Zm3.482,14.305c.995,1.034,2.5,1.968,3.509.851C1480.2,574.088,1478.351,573.014,1475.4,574.67Z" transform="translate(-1076.74 -471.01)" fill="#fff"/>
      </g>
      <g transform="matrix(1, 0, 0, 1, 0, 0)" filter="url(#Path_4372)">
        <path id="Path_4372-2" data-name="Path 4372" d="M1444.155,618.39c-.069.041-.141.075-.209.117l-8.18,5.042a4.72,4.72,0,0,1-6.507-1.384l-3.147-4.809a5.354,5.354,0,0,1,1.074-6.919c3.29-2.818,5.739-4.738,7.532-6.469Z" transform="translate(-1058.13 -501.43)" fill="#fc7cb5"/>
      </g>
      <g transform="matrix(1, 0, 0, 1, 0, 0)" filter="url(#Path_4437)">
        <path id="Path_4437-2" data-name="Path 4437" d="M1491.312,484.676q.851,2.714,1.7,5.427c.444,1.416.774,3.713,2.156,4.517a.8.8,0,0,0,1.086-.285c.685-1.508-.3-3.437-.772-4.913q-.866-2.709-1.732-5.419c-.493-1.544-2.929-.888-2.439.673Z" transform="translate(-1102.1 -420.86)" fill="#fc7cb5"/>
      </g>
      <g transform="matrix(1, 0, 0, 1, 0, 0)" filter="url(#Path_4438)">
        <path id="Path_4438-2" data-name="Path 4438" d="M1543.25,480.154c-2.931,10-2.96,9.7-2.743,10.722a1.083,1.083,0,0,0,1.8.474c.685-.706.514-.5,3.345-10.535a1.245,1.245,0,0,0-2.4-.661Z" transform="translate(-1134.89 -418.29)" fill="#fc7cb5"/>
      </g>
      <g transform="matrix(1, 0, 0, 1, 0, 0)" filter="url(#Path_4439)">
        <path id="Path_4439-2" data-name="Path 4439" d="M1578.63,535.4l5.179-2.484c1.536-.736,3.516-1.322,4.567-2.718.462-.614-.173-1.422-.827-1.441-1.705-.05-3.524,1.256-5.014,1.98l-5.166,2.507c-1.448.7-.182,2.849,1.261,2.157Z" transform="translate(-1159.1 -451.28)" fill="#fc7cb5"/>
      </g>
      <g transform="matrix(1, 0, 0, 1, 0, 0)" filter="url(#Path_4440)">
        <path id="Path_4440-2" data-name="Path 4440" d="M1564.925,634.689a82.63,82.63,0,0,0,5.552,6.711c1.079,1.123,2.649-.526,1.684-1.684-1.86-2.232-3.771-4.408-5.566-6.7-.939-1.2-2.586.485-1.669,1.669Z" transform="translate(-1151.05 -520.52)" fill="#fc7cb5"/>
      </g>
      <g transform="matrix(1, 0, 0, 1, 0, 0)" filter="url(#Path_4441)">
        <path id="Path_4441-2" data-name="Path 4441" d="M1583.8,599.236c1.6.7,3.217,1.351,4.843,1.987,1.484.581,3.247,1.62,4.853,1.391.853-.121.951-1.259.472-1.787-.6-.661-.923-.611-4.453-1.97-1.593-.614-3.174-1.258-4.773-1.856-1.284-.48-2.212,1.677-.942,2.235Z" transform="translate(-1163.41 -496.74)" fill="#fc7cb5"/>
      </g>
    </g>
  </g>
</svg>
