<svg xmlns="http://www.w3.org/2000/svg" xmlns:xlink="http://www.w3.org/1999/xlink" width="500" height="500" viewBox="0 0 500 500">
  <defs>
    <clipPath id="clip-_3">
      <rect width="500" height="500"/>
    </clipPath>
  </defs>
  <g id="_3" data-name="3" clip-path="url(#clip-_3)">
    <g id="OBJECTS">
      <g id="Group_45" data-name="Group 45">
        <text id="H_A_P_P_Y_S_H_O_P_P_I_N_G" data-name="H A P P Y  S H O P P I N G" transform="translate(243.721 394.308)" fill="#2192d0" font-size="18.684" font-family="Quicksand-Bold, Quicksand" font-weight="700"><tspan x="-110.117" y="0" xml:space="preserve">H A P P Y  S H O P P I N G</tspan></text>
        <text id="MARKET" transform="translate(124.624 375.166)" fill="#323c64" font-size="59.062" font-family="Quicksand-Bold, Quicksand" font-weight="700"><tspan x="0" y="0">MARKET</tspan></text>
        <g id="Group_44" data-name="Group 44">
          <path id="Path_47" data-name="Path 47" d="M393.227,143.9l-3.234-19.4L331.935,132.5,306.678,243.384,168.165,260.7l-26.994-99.5H129.159l24.75,114.833,170.634-11.7L349.757,149.52Z" fill="#323c64"/>
          <path id="Path_48" data-name="Path 48" d="M294.166,273.029a27.6,27.6,0,1,0,27.6,27.605A27.6,27.6,0,0,0,294.166,273.029Zm0,42.678a15.074,15.074,0,1,1,15.073-15.073A15.073,15.073,0,0,1,294.166,315.707Z" fill="#2192d0"/>
          <path id="Path_49" data-name="Path 49" d="M181.571,280.537a23.851,23.851,0,1,0,23.851,23.851A23.851,23.851,0,0,0,181.571,280.537Zm0,38.2a14.347,14.347,0,1,1,14.347-14.346A14.346,14.346,0,0,1,181.571,318.734Z" fill="#2192d0"/>
        </g>
        <path id="Path_50" data-name="Path 50" d="M217.827,158.2a14.2,14.2,0,0,0-2.972.318c-.048-.154-.092-.309-.141-.463-.166-.523-.324-1.045-.526-1.554a3.737,3.737,0,0,0-.913-1.543.628.628,0,0,0-1.034.273,2.37,2.37,0,0,0-.089.932,11.5,11.5,0,0,0-1.41-.233,14.707,14.707,0,0,0-2.726-.126,5.613,5.613,0,0,0-4.116,1.751,10.745,10.745,0,0,0-.711.931.625.625,0,0,0-.116.733c.319.55,1.325.75,1.892.829a9.152,9.152,0,0,0,4.438-.71,8.28,8.28,0,0,0,2.117-1.165,6.457,6.457,0,0,0,.839-.766c.089.407.192.811.3,1.215q.067.258.133.517a14.146,14.146,0,1,0,5.039-.939Z" fill="#e7b034"/>
        <path id="Path_51" data-name="Path 51" d="M180.686,186.024s.317-4.078,1.772-4.582c0,0,8.008.55,10.919,2.578s6.6,3.345,11.907,4.209,6.946.985,10.526,2.648S226,193.421,226,193.421s-.658,3.975-1.645,5.381c0,0,.23,27.211-11.182,46.309l-1.815,5.329s-6.8-2.078-11.885-3.064-9.814-.722-14.084-3.166-6.862-2.477-10.877-3.325a17.487,17.487,0,0,1-6.7-3l1.273-4.165S169.995,201.546,180.686,186.024Z" fill="#2192d0"/>
        <path id="Path_52" data-name="Path 52" d="M272.376,177.019l1.266,59.232,28.857,1.772,12.15-58.726-3.038-13.922,1.266-6.075-29.869-3.038-.759,6.581Z" fill="#ca577c"/>
        <path id="Path_53" data-name="Path 53" d="M234.66,152.719c-2.245,6.734,7.974,40.374,9.619,43.791s18.1,3.923,19.491,1.392-2.025-44.171-2.152-46.576-7.214-3.543-8.733-4.176-2.278-5.189-2.025-6.328,1.9-1.14,1.519-3.165-3.417-2.4-7.341-1.518-4.936,2.151-4.809,3.543,1.645.76,2.025,1.772.886,5.7.506,6.708S235.546,150.061,234.66,152.719Z" fill="#2192d0"/>
        <path id="Path_54" data-name="Path 54" d="M287.514,149.079c-6.31-3.1-12.764-18.437-10.166-20.633s6.253-.093,6.253-.093,1.047-7.954,5.312-8.309,6.7,3.879,6.784,4.424,3.566-6.935,8.325-5.832,5.529,6.282,5.529,6.282,5.534-6.81,8.22-3.727-.477,8.983-.477,8.983,4.835.675,5.962,3.571-4.818,6.008-4.818,6.008,4.537-.4,4.75,2.915S304.181,157.273,287.514,149.079Z" fill="#c6d035"/>
        <path id="Path_55" data-name="Path 55" d="M278.111,159.557c-.46-1.118-.954-2.225-1.45-3.328l-.1-.225a2.359,2.359,0,0,0,.129-1.022c-.168-1.73-.57-3.47-.9-5.175q-.518-2.642-1.143-5.263-1.231-5.177-2.859-10.247c-.83-2.584-1.576-5.842-3.827-7.61-.077-.744-.131-1.491-.138-2.242-.009-.806.17-1.882-.373-2.572-.671-.853-1.508-.022-2.318,0-1.027.027-1.877-.153-2.734.546-.372.3-.715.763-1.2.893-.623.169-1.263-.265-1.808-.5-.813-.356-1.941-.566-2.563.249-.637.836.21,1.687.767,2.281a12.178,12.178,0,0,1,2.385,3.025,7.027,7.027,0,0,1,.437,1.269,9.848,9.848,0,0,0-.237,4.669c.308,2.007.869,3.985,1.337,5.959,1.248,5.264,3.065,10.355,4.579,15.543a6.293,6.293,0,0,0,.8,2.007,2.758,2.758,0,0,0,1.815,1.045c.046.283.085.568.135.849q.291,1.611.584,3.221c.117.634.173,1.6,1.017,1.637a1.437,1.437,0,0,0,.886-.3c.368-.269.653-.826,1.158-.827.686,0,1.231.619,1.954.427a1.645,1.645,0,0,0,.777-.59,2.464,2.464,0,0,1,.919-.6,5.408,5.408,0,0,0,1.711-.854A1.993,1.993,0,0,0,278.111,159.557Z" fill="#e7b034"/>
        <path id="Path_56" data-name="Path 56" d="M196.627,135.63c-6.273-2.916-13.362-2.842-20.034-1.743a39.568,39.568,0,0,0-9.9,2.789,24.66,24.66,0,0,0-3.022,1.671c-.3.165-.609.311-.9.487A28.405,28.405,0,0,0,151.763,151.5a35.265,35.265,0,0,0-3.085,17.245,17.336,17.336,0,0,0,3.041,9.077,13.855,13.855,0,0,0,7.4,5.011,20.91,20.91,0,0,0,10.543.076,19.9,19.9,0,0,0,8.839-4.442c2.554-2.275,4.52-5.193,6.569-7.933,2.223-2.973,4.394-6,6.687-8.915a18.4,18.4,0,0,1,3.384-3.514,23.72,23.72,0,0,1,4.109-2.176c2.693-1.269,4.866-3.181,5.593-6.257C206.323,143.4,201.861,138.063,196.627,135.63Z" fill="#ca577c"/>
        <path id="Path_57" data-name="Path 57" d="M248.763,122.135c-.492-4.046-3.761-6.865-7.428-8.176a14.765,14.765,0,0,0-12.465,1.109,13.706,13.706,0,0,0-6.394,9.808c-.355,2.237-.375,4.506-.586,6.757-.177,1.9-.311,4.038-1.3,5.726a7.66,7.66,0,0,1-.691.993c-.022.025-.041.051-.062.075-.039.045-.08.086-.12.131a13.145,13.145,0,0,1-2.285,1.957c-1.56,1.042-3.533,1.39-5,2.562a3.437,3.437,0,0,0-.9,4.364,3.373,3.373,0,0,0,4.209,1.381c.841-.347,1.449-1.5,2.365-1.546s1.773.623,2.668.763c2.014.315,2.936-1.674,3.245-3.318a9.009,9.009,0,0,1,2.676-5.316c1.695-1.545,3.922-2.065,6.1-2.529,4.133-.879,8.153-1.809,11.492-4.566A11.839,11.839,0,0,0,248.763,122.135Z" fill="#c6d035"/>
        <path id="Path_58" data-name="Path 58" d="M265.856,226.485c1.046-15.906-15.72-28.48-29.392-18.349-6.391,4.736-9.069,14.743-8.128,22.335.617,4.982,3.468,10.919,9.011,11.714a4.377,4.377,0,0,0,3.949-1.178,8.984,8.984,0,0,0,1.75-4.088c.693-2.841.921-5.848,2.18-8.521a9,9,0,0,1,1.04-1.766c.237-.3.795-1.107,1.268-.935.377.137.565.94.637,1.277a4.767,4.767,0,0,1,.019,1.676c-.363,2.411-1.487,4.653-1.8,7.075a6.126,6.126,0,0,0,3.073,6.53c2.692,1.4,5.833.667,8.256-.928C262.609,238.109,265.479,232.224,265.856,226.485Z" fill="#c6d035"/>
        <path id="Path_59" data-name="Path 59" d="M243.912,319.763c-.983.881-1.914,2.091-2.6,2.533-2.422,1.571-5.842,2.076-8.135-.006-1.059-.962-2.041-2.581-3.535-2.878-3.27-.649-2.667,3.4-1.457,5.057a10.649,10.649,0,0,0,9.109,4.683,11.05,11.05,0,0,0,8.927-5.223c.666-1.126,1.8-2.881,1.016-4.174C246.27,318.157,245.056,318.737,243.912,319.763Z" fill="#2192d0"/>
        <path id="Path_60" data-name="Path 60" d="M287.6,303.847c.983-.881,1.914-2.091,2.6-2.533,2.422-1.57,5.842-2.075,8.135.007,1.06.962,2.041,2.58,3.536,2.877,3.269.65,2.667-3.4,1.456-5.056a10.648,10.648,0,0,0-9.109-4.683,11.048,11.048,0,0,0-8.926,5.223c-.666,1.125-1.8,2.88-1.017,4.173C285.244,305.453,286.458,304.873,287.6,303.847Z" fill="#323c64"/>
        <path id="Path_61" data-name="Path 61" d="M175.541,306.711c.793-.71,1.544-1.686,2.094-2.043,1.954-1.267,4.712-1.674,6.561.005.855.776,1.646,2.082,2.852,2.321,2.637.524,2.151-2.74,1.174-4.078a8.587,8.587,0,0,0-7.346-3.777,8.913,8.913,0,0,0-7.2,4.212c-.537.908-1.454,2.324-.82,3.367C173.64,308.006,174.619,307.539,175.541,306.711Z" fill="#323c64"/>
      </g>
    </g>
  </g>
</svg>
