<svg xmlns="http://www.w3.org/2000/svg" xmlns:xlink="http://www.w3.org/1999/xlink" width="300" height="400" viewBox="0 0 300 400">
  <defs>
    <filter id="Path_3344" x="244.994" y="169.407" width="49.49" height="46.099" filterUnits="userSpaceOnUse">
      <feOffset dy="3" input="SourceAlpha"/>
      <feGaussianBlur stdDeviation="3" result="blur"/>
      <feFlood flood-opacity="0.161"/>
      <feComposite operator="in" in2="blur"/>
      <feComposite in="SourceGraphic"/>
    </filter>
    <filter id="Path_3345" x="233.106" y="106.883" width="56.604" height="44.659" filterUnits="userSpaceOnUse">
      <feOffset dy="3" input="SourceAlpha"/>
      <feGaussianBlur stdDeviation="3" result="blur-2"/>
      <feFlood flood-opacity="0.161"/>
      <feComposite operator="in" in2="blur-2"/>
      <feComposite in="SourceGraphic"/>
    </filter>
    <filter id="Path_3346" x="162.167" y="78.097" width="60.631" height="60.114" filterUnits="userSpaceOnUse">
      <feOffset dy="3" input="SourceAlpha"/>
      <feGaussianBlur stdDeviation="3" result="blur-3"/>
      <feFlood flood-opacity="0.161"/>
      <feComposite operator="in" in2="blur-3"/>
      <feComposite in="SourceGraphic"/>
    </filter>
    <filter id="Path_3347" x="203.66" y="173.409" width="26.103" height="64.976" filterUnits="userSpaceOnUse">
      <feOffset dy="3" input="SourceAlpha"/>
      <feGaussianBlur stdDeviation="3" result="blur-4"/>
      <feFlood flood-opacity="0.161"/>
      <feComposite operator="in" in2="blur-4"/>
      <feComposite in="SourceGraphic"/>
    </filter>
    <filter id="Path_3348" x="115.493" y="127.652" width="55.3" height="61.631" filterUnits="userSpaceOnUse">
      <feOffset dy="3" input="SourceAlpha"/>
      <feGaussianBlur stdDeviation="3" result="blur-5"/>
      <feFlood flood-opacity="0.161"/>
      <feComposite operator="in" in2="blur-5"/>
      <feComposite in="SourceGraphic"/>
    </filter>
    <filter id="Path_3349" x="113.546" y="104.868" width="59.197" height="56.541" filterUnits="userSpaceOnUse">
      <feOffset dy="3" input="SourceAlpha"/>
      <feGaussianBlur stdDeviation="3" result="blur-6"/>
      <feFlood flood-opacity="0.161"/>
      <feComposite operator="in" in2="blur-6"/>
      <feComposite in="SourceGraphic"/>
    </filter>
    <filter id="Path_3350" x="130.981" y="164.732" width="57.213" height="39.399" filterUnits="userSpaceOnUse">
      <feOffset dy="3" input="SourceAlpha"/>
      <feGaussianBlur stdDeviation="3" result="blur-7"/>
      <feFlood flood-opacity="0.161"/>
      <feComposite operator="in" in2="blur-7"/>
      <feComposite in="SourceGraphic"/>
    </filter>
    <filter id="Path_3351" x="216.244" y="160.706" width="51.727" height="43.405" filterUnits="userSpaceOnUse">
      <feOffset dy="3" input="SourceAlpha"/>
      <feGaussianBlur stdDeviation="3" result="blur-8"/>
      <feFlood flood-opacity="0.161"/>
      <feComposite operator="in" in2="blur-8"/>
      <feComposite in="SourceGraphic"/>
    </filter>
    <filter id="Path_3352" x="256.169" y="126.601" width="49.083" height="60.807" filterUnits="userSpaceOnUse">
      <feOffset dy="3" input="SourceAlpha"/>
      <feGaussianBlur stdDeviation="3" result="blur-9"/>
      <feFlood flood-opacity="0.161"/>
      <feComposite operator="in" in2="blur-9"/>
      <feComposite in="SourceGraphic"/>
    </filter>
    <filter id="Path_3353" x="163.115" y="165.804" width="53.9" height="49.094" filterUnits="userSpaceOnUse">
      <feOffset dy="3" input="SourceAlpha"/>
      <feGaussianBlur stdDeviation="3" result="blur-10"/>
      <feFlood flood-opacity="0.161"/>
      <feComposite operator="in" in2="blur-10"/>
      <feComposite in="SourceGraphic"/>
    </filter>
    <filter id="Path_3354" x="198.407" y="107.161" width="52.698" height="51.957" filterUnits="userSpaceOnUse">
      <feOffset dy="3" input="SourceAlpha"/>
      <feGaussianBlur stdDeviation="3" result="blur-11"/>
      <feFlood flood-opacity="0.161"/>
      <feComposite operator="in" in2="blur-11"/>
      <feComposite in="SourceGraphic"/>
    </filter>
    <filter id="Path_3355" x="186.219" y="140.377" width="51.433" height="47.44" filterUnits="userSpaceOnUse">
      <feOffset dy="3" input="SourceAlpha"/>
      <feGaussianBlur stdDeviation="3" result="blur-12"/>
      <feFlood flood-opacity="0.161"/>
      <feComposite operator="in" in2="blur-12"/>
      <feComposite in="SourceGraphic"/>
    </filter>
    <filter id="Path_3356" x="202.039" y="78.099" width="51.505" height="45.987" filterUnits="userSpaceOnUse">
      <feOffset dy="3" input="SourceAlpha"/>
      <feGaussianBlur stdDeviation="3" result="blur-13"/>
      <feFlood flood-opacity="0.161"/>
      <feComposite operator="in" in2="blur-13"/>
      <feComposite in="SourceGraphic"/>
    </filter>
    <filter id="Path_3357" x="224.531" y="135.144" width="51.183" height="46.647" filterUnits="userSpaceOnUse">
      <feOffset dy="3" input="SourceAlpha"/>
      <feGaussianBlur stdDeviation="3" result="blur-14"/>
      <feFlood flood-opacity="0.161"/>
      <feComposite operator="in" in2="blur-14"/>
      <feComposite in="SourceGraphic"/>
    </filter>
    <filter id="Path_3358" x="164.024" y="192.45" width="52.43" height="54.749" filterUnits="userSpaceOnUse">
      <feOffset dy="3" input="SourceAlpha"/>
      <feGaussianBlur stdDeviation="3" result="blur-15"/>
      <feFlood flood-opacity="0.161"/>
      <feComposite operator="in" in2="blur-15"/>
      <feComposite in="SourceGraphic"/>
    </filter>
    <filter id="Path_3359" x="151.104" y="119.397" width="55.454" height="53.563" filterUnits="userSpaceOnUse">
      <feOffset dy="3" input="SourceAlpha"/>
      <feGaussianBlur stdDeviation="3" result="blur-16"/>
      <feFlood flood-opacity="0.161"/>
      <feComposite operator="in" in2="blur-16"/>
      <feComposite in="SourceGraphic"/>
    </filter>
    <filter id="Path_3360" x="124.293" y="70.234" width="43" height="52.857" filterUnits="userSpaceOnUse">
      <feOffset dy="3" input="SourceAlpha"/>
      <feGaussianBlur stdDeviation="3" result="blur-17"/>
      <feFlood flood-opacity="0.161"/>
      <feComposite operator="in" in2="blur-17"/>
      <feComposite in="SourceGraphic"/>
    </filter>
    <filter id="Path_3361" x="195.539" y="319.508" width="52.546" height="43.472" filterUnits="userSpaceOnUse">
      <feOffset dy="3" input="SourceAlpha"/>
      <feGaussianBlur stdDeviation="3" result="blur-18"/>
      <feFlood flood-opacity="0.161"/>
      <feComposite operator="in" in2="blur-18"/>
      <feComposite in="SourceGraphic"/>
    </filter>
    <filter id="Path_3362" x="215.758" y="188.996" width="58.687" height="51.041" filterUnits="userSpaceOnUse">
      <feOffset dy="3" input="SourceAlpha"/>
      <feGaussianBlur stdDeviation="3" result="blur-19"/>
      <feFlood flood-opacity="0.161"/>
      <feComposite operator="in" in2="blur-19"/>
      <feComposite in="SourceGraphic"/>
    </filter>
    <filter id="Path_3363" x="195.121" y="271.784" width="65.304" height="38.486" filterUnits="userSpaceOnUse">
      <feOffset dy="3" input="SourceAlpha"/>
      <feGaussianBlur stdDeviation="3" result="blur-20"/>
      <feFlood flood-opacity="0.161"/>
      <feComposite operator="in" in2="blur-20"/>
      <feComposite in="SourceGraphic"/>
    </filter>
    <filter id="Path_3364" x="158.817" y="274.646" width="62.842" height="45.784" filterUnits="userSpaceOnUse">
      <feOffset dy="3" input="SourceAlpha"/>
      <feGaussianBlur stdDeviation="3" result="blur-21"/>
      <feFlood flood-opacity="0.161"/>
      <feComposite operator="in" in2="blur-21"/>
      <feComposite in="SourceGraphic"/>
    </filter>
    <filter id="Path_3365" x="211.764" y="222.104" width="53.606" height="54.1" filterUnits="userSpaceOnUse">
      <feOffset dy="3" input="SourceAlpha"/>
      <feGaussianBlur stdDeviation="3" result="blur-22"/>
      <feFlood flood-opacity="0.161"/>
      <feComposite operator="in" in2="blur-22"/>
      <feComposite in="SourceGraphic"/>
    </filter>
    <filter id="Path_3366" x="162.98" y="302.513" width="59.008" height="33.673" filterUnits="userSpaceOnUse">
      <feOffset dy="3" input="SourceAlpha"/>
      <feGaussianBlur stdDeviation="3" result="blur-23"/>
      <feFlood flood-opacity="0.161"/>
      <feComposite operator="in" in2="blur-23"/>
      <feComposite in="SourceGraphic"/>
    </filter>
    <filter id="Path_3367" x="169.355" y="322.019" width="50.463" height="24.532" filterUnits="userSpaceOnUse">
      <feOffset dy="3" input="SourceAlpha"/>
      <feGaussianBlur stdDeviation="3" result="blur-24"/>
      <feFlood flood-opacity="0.161"/>
      <feComposite operator="in" in2="blur-24"/>
      <feComposite in="SourceGraphic"/>
    </filter>
    <filter id="Path_3368" x="140.312" y="183.958" width="38.55" height="63.441" filterUnits="userSpaceOnUse">
      <feOffset dy="3" input="SourceAlpha"/>
      <feGaussianBlur stdDeviation="3" result="blur-25"/>
      <feFlood flood-opacity="0.161"/>
      <feComposite operator="in" in2="blur-25"/>
      <feComposite in="SourceGraphic"/>
    </filter>
    <filter id="Path_3369" x="226.491" y="60.663" width="55.003" height="42.969" filterUnits="userSpaceOnUse">
      <feOffset dy="3" input="SourceAlpha"/>
      <feGaussianBlur stdDeviation="3" result="blur-26"/>
      <feFlood flood-opacity="0.161"/>
      <feComposite operator="in" in2="blur-26"/>
      <feComposite in="SourceGraphic"/>
    </filter>
    <filter id="Path_3370" x="158.817" y="232.531" width="45.4" height="44.156" filterUnits="userSpaceOnUse">
      <feOffset dy="3" input="SourceAlpha"/>
      <feGaussianBlur stdDeviation="3" result="blur-27"/>
      <feFlood flood-opacity="0.161"/>
      <feComposite operator="in" in2="blur-27"/>
      <feComposite in="SourceGraphic"/>
    </filter>
    <filter id="Path_3371" x="149.292" y="53.672" width="52.652" height="50.672" filterUnits="userSpaceOnUse">
      <feOffset dy="3" input="SourceAlpha"/>
      <feGaussianBlur stdDeviation="3" result="blur-28"/>
      <feFlood flood-opacity="0.161"/>
      <feComposite operator="in" in2="blur-28"/>
      <feComposite in="SourceGraphic"/>
    </filter>
    <filter id="Path_3372" x="211.223" y="293.262" width="46.891" height="47.751" filterUnits="userSpaceOnUse">
      <feOffset dy="3" input="SourceAlpha"/>
      <feGaussianBlur stdDeviation="3" result="blur-29"/>
      <feFlood flood-opacity="0.161"/>
      <feComposite operator="in" in2="blur-29"/>
      <feComposite in="SourceGraphic"/>
    </filter>
    <filter id="Path_3373" x="188.556" y="229.399" width="43.577" height="50.419" filterUnits="userSpaceOnUse">
      <feOffset dy="3" input="SourceAlpha"/>
      <feGaussianBlur stdDeviation="3" result="blur-30"/>
      <feFlood flood-opacity="0.161"/>
      <feComposite operator="in" in2="blur-30"/>
      <feComposite in="SourceGraphic"/>
    </filter>
    <filter id="Path_3374" x="181.339" y="44" width="71.477" height="48.786" filterUnits="userSpaceOnUse">
      <feOffset dy="3" input="SourceAlpha"/>
      <feGaussianBlur stdDeviation="3" result="blur-31"/>
      <feFlood flood-opacity="0.161"/>
      <feComposite operator="in" in2="blur-31"/>
      <feComposite in="SourceGraphic"/>
    </filter>
    <filter id="Path_3375" x="254.041" y="87.186" width="53.34" height="55.796" filterUnits="userSpaceOnUse">
      <feOffset dy="3" input="SourceAlpha"/>
      <feGaussianBlur stdDeviation="3" result="blur-32"/>
      <feFlood flood-opacity="0.161"/>
      <feComposite operator="in" in2="blur-32"/>
      <feComposite in="SourceGraphic"/>
    </filter>
    <clipPath id="clip-unlimited_graphics_">
      <rect width="300" height="400"/>
    </clipPath>
  </defs>
  <g id="unlimited_graphics_" data-name="unlimited graphics " clip-path="url(#clip-unlimited_graphics_)">
    <g id="Group_4228" data-name="Group 4228" transform="translate(-35 16)">
      <path id="Path_514" data-name="Path 514" d="M1014.546,1585.515c5.831-.182,20.451-1.439,32-9.115,16.828-11.187,19.945-17.182,19.945-17.182a14.657,14.657,0,0,1,.444-4.069c.509-1.371.409-3.367,1.352-3.083s.425,2.038.207,2.626a.38.38,0,0,0,.18.469.984.984,0,0,0,1.317-.219,9.94,9.94,0,0,0,1.19-2.423c1.018-2.742,2.166-5.122,2.552-4.425s-1.651,5.411-2.014,6.391,2.445-3.644,3.7-5.515,1.683-.546.909.455-3.579,5.6-3.181,5.715,3.818-5.016,4.8-4.722-.259.962-.824,1.759-3.135,2.975-2.717,3.73c0,0,3.927-2.5,3.828-1.956a46.532,46.532,0,0,1-5.281,4.857c-3.884,2.961-20.471,23.3-27.034,26.23-6.4,2.857-23.194,12.8-29.845,11.2C1011.726,1591.8,1012.733,1590.4,1014.546,1585.515Z" transform="translate(-895.879 -1435.81)" fill="#fd5e5a"/>
      <path id="Path_519" data-name="Path 519" d="M1082.625,1566.587s-6.88-.367-9.265,6.055-2.1,19.722,1.146,23.483,2.706,13.393,5.55,16.237,10.091,4.128,10.091-2.569c0,0-3.532.816-4.426-3.353,0,0,5.068,3.238,7.544-1.7s-2.844-5.4-2.844-5.4,2.569,3.394-.551,2.66-4.924-3.544-4.924-7.138,5.292-1.3,4.741-7.905S1084.949,1566.36,1082.625,1566.587Z" transform="translate(-952.259 -1449.315)" fill="#001429"/>
      <path id="Path_520" data-name="Path 520" d="M1068.453,1606.327s1.037,23.84-1.036,32.577-2.962,10.218-2.962,10.218,14.216,9.477,20.434,7.551c0,0,10.217-24.284,12.29-29.615s-7.588-23.271-7.588-23.271S1071.119,1607.216,1068.453,1606.327Z" transform="translate(-950.119 -1457.659)" fill="#ff85d5"/>
      <path id="Path_521" data-name="Path 521" d="M1077.522,1590.782l3.8,12.084s7.687,8.66,2.647,10.687-14.385-9.993-14.385-9.993l1.787-15.614Z" transform="translate(-942.3 -1454.107)" fill="#fd5e5a"/>
      <path id="Path_522" data-name="Path 522" d="M1108.027,1771.84s-6.589,13.438,4.109,42.423l1.974,5.345,5.467-1.457s-.334-38.426,2.333-42.2S1108.027,1771.84,1108.027,1771.84Z" transform="translate(-1007.091 -1495.345)" fill="#fd5e5a"/>
      <path id="Path_523" data-name="Path 523" d="M1159.077,1692.669s13.929,29.329,16.372,31.772,4.22-15.88,4.22-15.88l-6.848-7.849s-9.589-11.476-10.366-11.476S1159.077,1690.67,1159.077,1692.669Z" transform="translate(-1105.719 -1476.821)" fill="#fc7575"/>
      <path id="Path_524" data-name="Path 524" d="M1080.674,1691.4s9.328,9.625,13.622,8.737,13.179-35.094,33.613-37.907c0,0,16.437,9.772,20.434,7.551,0,0-14.613,75.453-12.984,85.67,0,0-15.3,3.323-23.146-6.153s-31.539-11.106-31.539-19.694Z" transform="translate(-1013.572 -1470.764)" fill="#263238"/>
      <path id="Path_525" data-name="Path 525" d="M1117.82,1574.561l-2.217-.168s-5.4,8.55-11.889,10.547-7.739,8.539-4.619,12.695-4.244,3.283-3.62,7.777,6.432,15.215,13.083,4.369S1117.82,1574.561,1117.82,1574.561Z" transform="translate(-994.502 -1451.067)" fill="#001429"/>
      <path id="Path_526" data-name="Path 526" d="M1070.75,1570.5l10.067,5.556a2.072,2.072,0,0,0,2.088-2.279c0-2.326-2.564-4.605-5.176-5.935a24.393,24.393,0,0,0-5.887-1.9Z" transform="translate(-940.436 -1449.171)" fill="#001429"/>
      <path id="Path_527" data-name="Path 527" d="M1076.516,1568.578s3.894.666,4.938,2.517,1.33,6.268,2.375,7.313a4.755,4.755,0,0,0,1.954,1.274s.278.483-.767,1-.844,1.423-.195,1.423.388,1.21-.111,1.353a.745.745,0,0,1,.445.839c-.119.617-.666.989-.333,1.75s.116,3.23-4.981,2.233c0,0-7.574-1.779-8.025-3.917s-3.821-9.9-.949-12.775A9.5,9.5,0,0,1,1076.516,1568.578Z" transform="translate(-942.546 -1449.763)" fill="#fc7575"/>
      <path id="Path_528" data-name="Path 528" d="M1071.29,1565.716s1.363-1.03,6.111.323,5.883,6.492,5.883,6.492-2.983-3.527-4.906-3.527-6.349.731-7.054.025S1071.29,1565.716,1071.29,1565.716Z" transform="translate(-941.01 -1449.037)" fill="#001429"/>
      <path id="Path_529" data-name="Path 529" d="M1089.571,1565.577c.663,0,4.972,4.513,3.832,8.073s-3.846,1.971-5.555,2.921.331,5.342.023,7.123-5.105,11.964-5.105,11.964-4.036-21.529-1.588-25.518S1089.571,1565.577,1089.571,1565.577Z" transform="translate(-958.602 -1449.09)" fill="#001429"/>
      <path id="Path_530" data-name="Path 530" d="M1088.948,1579.6s-1.375-2.992-2.016-2.351-.96,5.057,1.3,5.484S1088.948,1579.6,1088.948,1579.6Z" transform="translate(-959.183 -1451.686)" fill="#fc7575"/>
      <path id="Path_531" data-name="Path 531" d="M1088.444,1580.393s-.709-1.631-1.093-1.247.03,2.954.547,2.954S1088.569,1581.215,1088.444,1580.393Z" transform="translate(-958.778 -1452.12)" fill="#fd5e5a"/>
      <path id="Path_532" data-name="Path 532" d="M1078.389,1583.838c0,.48-.845.868-1.888.868s-1.888-.388-1.888-.868.845-.868,1.888-.868S1078.389,1583.359,1078.389,1583.838Z" transform="translate(-938.916 -1452.99)" fill="#fd5e5a"/>
      <path id="Path_533" data-name="Path 533" d="M1032.2,1574.574c6.742-1.607,22.359-5.021,32.534-14.269,14.827-13.476,15.868-19.225,15.868-19.225a10.185,10.185,0,0,1-1.248-3.484c0-1.264-.982-2.894.243-2.894s1.383,1.584,1.383,2.125c0,.189.18.292.413.345a1.311,1.311,0,0,0,1.447-.511,6,6,0,0,0,.339-2.306c0-2.527.31-4.787,1.063-4.306s.42,4.9.42,5.8,1.276-3.632,1.937-5.5,1.732-.872,1.261.151-1.757,5.533-1.239,5.533,2.287-5.112,3.559-5.112.114.862-.2,1.665-2.377,3.249-1.559,3.771c0,0,3.509-3.054,3.628-2.578a35.2,35.2,0,0,1-4.068,5.344c-3.257,3.425-13.825,24.429-20.231,28.5-6.243,3.966-21.571,16.4-30.046,16.735C1030.693,1581.763,1032.2,1579.077,1032.2,1574.574Z" transform="translate(-911.83 -1420.902)" fill="#fc7575"/>
      <path id="Path_534" data-name="Path 534" d="M1107.27,1581.451s3.4,1.307.657,8.706c-3.35,9.026-7.752,10.681-3.4,15.029s-.735,24.215-16.338,19.96c0,0,8.417-.89,6.573-5.882s-8.937.366-8.937-5.308,3.309-2.995,4.57-9.457-2.364-3.51-1.419-10.187,11.823-22.854,11.823-22.854Z" transform="translate(-978.219 -1450.409)" fill="#001429"/>
      <path id="Path_535" data-name="Path 535" d="M1074.613,1579.374s1.459-1.657,1.953-1.657a.488.488,0,0,1,.505.482Z" transform="translate(-937.599 -1451.813)" fill="#001429"/>
      <path id="Path_536" data-name="Path 536" d="M1076.133,1578.449a9.893,9.893,0,0,0-2.053,1.306c-.609.609-.569.872-.569.872a12.554,12.554,0,0,1,2.014-1.385A.964.964,0,0,0,1076.133,1578.449Z" transform="translate(-935.805 -1451.977)" fill="#001429"/>
      <path id="Path_537" data-name="Path 537" d="M1074.847,1580.289c0,.4-.149.723-.333.723s-.334-.323-.334-.723.149-.724.334-.724S1074.847,1579.89,1074.847,1580.289Z" transform="translate(-935.039 -1452.227)" fill="#001429"/>
      <g id="Group_149" data-name="Group 149" transform="translate(37 204.75)">
        <path id="Path_538" data-name="Path 538" d="M1193.889,1679.355s-3.243,3.493-5.511,5.938-6.184,6.073-7.319,7.295-2.358,8.325-1.145,8.908,4.7-3.652,7.708-4.764,9.926-1.783,9.88-2.856,3.141-4.816,3.084-6.17S1195.075,1679.318,1193.889,1679.355Z" transform="translate(-1179.412 -1679.355)" fill="#e62552"/>
        <path id="Path_539" data-name="Path 539" d="M1201.1,1682.412c-7.511,11.178-7.9,5.641-14.087,17.651,1.211-3.191,3.463-7.492,6.235-9.506a30.1,30.1,0,0,0,4.1-3.867C1198.639,1685.3,1199.872,1683.86,1201.1,1682.412Z" transform="translate(-1185.825 -1680.041)" fill="#e62552"/>
        <g id="Group_148" data-name="Group 148" transform="translate(10.592 11.362)">
          <path id="Path_540" data-name="Path 540" d="M1192.065,1694a.508.508,0,0,0-.535.487,26.5,26.5,0,0,1-.678,4.86c.364-.083.74-.165,1.119-.244a28.8,28.8,0,0,0,.589-4.563A.525.525,0,0,0,1192.065,1694Z" transform="translate(-1190.852 -1694.001)" fill="#e62552"/>
          <path id="Path_541" data-name="Path 541" d="M1187.622,1695.143a.508.508,0,0,0-.33.644,12.867,12.867,0,0,1,.511,3.086c.353-.073.7-.147,1.024-.219a13.578,13.578,0,0,0-.557-3.174A.518.518,0,0,0,1187.622,1695.143Z" transform="translate(-1184.339 -1694.252)" fill="#e62552"/>
        </g>
      </g>
      <g id="Group_151" data-name="Group 151" transform="translate(103.934 321.766)">
        <path id="Path_542" data-name="Path 542" d="M1087.383,1843.116l8.1-.3c3.334-.124,8.666.078,10.334.016s7.553-4.219,7.109-5.489-5.91-.743-8.821-2.082-8.279-5.757-9.005-4.968-5.626,1.185-6.543,2.184S1086.518,1842.3,1087.383,1843.116Z" transform="translate(-1087.072 -1830.198)" fill="#e62552"/>
        <path id="Path_543" data-name="Path 543" d="M1089.662,1843.231c13.217-2.593,9.576,1.6,22.443-2.521-3.113,1.4-7.746,2.849-11.131,2.313a30.194,30.194,0,0,0-5.633-.166C1093.448,1842.929,1091.558,1843.076,1089.662,1843.231Z" transform="translate(-1088.241 -1832.556)" fill="#e62552"/>
        <g id="Group_150" data-name="Group 150" transform="translate(9.122 1.344)">
          <path id="Path_544" data-name="Path 544" d="M1101.386,1837.905a.508.508,0,0,0,.722.034,26.476,26.476,0,0,1,3.916-2.958c-.316-.2-.64-.406-.965-.618a28.784,28.784,0,0,0-3.642,2.81A.524.524,0,0,0,1101.386,1837.905Z" transform="translate(-1100.272 -1832.476)" fill="#e62552"/>
          <path id="Path_545" data-name="Path 545" d="M1105.351,1835.265a.508.508,0,0,0,.69-.223,12.915,12.915,0,0,1,1.82-2.543c-.3-.2-.6-.389-.879-.569a13.613,13.613,0,0,0-1.851,2.638A.517.517,0,0,0,1105.351,1835.265Z" transform="translate(-1105.073 -1831.931)" fill="#e62552"/>
        </g>
      </g>
      <g id="Group_4222" data-name="Group 4222" transform="translate(157.546 34)">
        <g transform="matrix(1, 0, 0, 1, -122.55, -50)" filter="url(#Path_3344)">
          <path id="Path_3344-2" data-name="Path 3344" d="M60.621,46.111l-1.348-.333c.674-1.586,4.063-8.285,12.372-6.236,7.885,1.942,7.881,8.729,7.679,10.858a2.14,2.14,0,0,0-1.685.749c.575.012,1.043.016,1.364.02a1.38,1.38,0,0,1,.583.012l.02.008.024.008a1.387,1.387,0,0,1,.971,1.661,1.358,1.358,0,0,1-.25.515l.079.377a.5.5,0,0,1-.289.567c-.012.008-.281.127-.714.325a2.12,2.12,0,0,0,1.15-3.782l5.2-9.641a1.385,1.385,0,1,0-.848-.626,1.265,1.265,0,0,0,.2.254l-5.058,9.375c.155-2.533-.2-9.419-8.249-11.4-8.955-2.208-12.65,5.308-13.28,6.779l-1.36-.333L56.336,48.7l3.437.848Zm-2.89.052,1.99.492-.492,1.99-1.99-.492Zm15.44,20.15a1.385,1.385,0,1,1-1.431-2.371,1.369,1.369,0,0,1,1.019-.167l4.317-8c.412-.206.8-.4,1.154-.567l-4.812,8.923a1.41,1.41,0,0,1,.226.277A1.384,1.384,0,0,1,73.172,66.313Zm6.767-12.455s-8,3.524-9.962,5.946c-1.8.1-3.052.178-3.052.178a5.226,5.226,0,0,0-3.675-1.217c-.182.024-.345.048-.515.075l.04.182-.6.127.1.492-4.733,1.617-.769-3.58L56.011,54.1l4.983-.464.1.488.6-.131.04.19c.167-.048.325-.091.5-.147a5.212,5.212,0,0,0,2.854-2.612s1.177-.44,2.858-1.086c2.787,1.4,11.524,1.34,11.524,1.34l.186.876-8.725,1.942c-.646-1.732-3.6-1.086-3.437.892.658,1.867,3.619,1.245,3.5-.6l8.757-1.8Z" transform="translate(197.98 136.99)" fill="#fa09a7"/>
        </g>
        <g transform="matrix(1, 0, 0, 1, -122.55, -50)" filter="url(#Path_3345)">
          <path id="Path_3345-2" data-name="Path 3345" d="M69.558,39.5l3.766,6.037L67.283,49.3,63.521,43.26Zm-12.78-7.052,6.037-3.766-3.762-6.037-6.041,3.766Zm9.141,6.517-1.2-.278-2.549,1.59-3.3-5.3,5.3-3.306,1.161,1.867a1.8,1.8,0,0,1,.25.036l.936.218-2.069-3.322-6.779,4.226,4.226,6.779ZM81.843,36.8a.607.607,0,0,1,.729-.452l.281.063a.609.609,0,0,1,.452.729l-.163.7,6.66,1.542a2.4,2.4,0,0,1-1.082,4.67l-6.66-1.546-.163.7a.6.6,0,0,1-.725.452l-.285-.063a.6.6,0,0,1-.452-.725l.123-.527-.464-.107.111-.484-15.25-3.536-.432-.1c-.809-.19-1-1.189-2.2-2.046l.266-1.154c1.435-.246,2.049-1.051,2.882-.86l.44.1L81.15,37.7l.111-.484.464.107Zm1.784,5.066-.115.5s2.811.65,5.011,1.161a2.434,2.434,0,0,0,1.637-.262,10.511,10.511,0,0,1-2.608-.484ZM81.2,40.651s-.476,2.057-.515,2.224.075.353.428.416a.525.525,0,0,0,.488-.1c-.3-.016-.587-.174-.571-.329S81.2,40.651,81.2,40.651Zm-15.662-3.2c-1.724-.4-2.16-1.229-2.894-1.566a5.842,5.842,0,0,0,2.616,2.061c.844.194,4.65,1.078,7.833,1.816s6.691,1.526,6.691,1.526l.111-.48S67.259,37.856,65.535,37.456Z" transform="translate(189.09 90.24)" fill="#fa09a7"/>
        </g>
        <g transform="matrix(1, 0, 0, 1, -122.55, -50)" filter="url(#Path_3346)">
          <path id="Path_3346-2" data-name="Path 3346" d="M43.739,46.545a1.41,1.41,0,1,0-1.847-.749A1.408,1.408,0,0,0,43.739,46.545Zm-1.007-2.382a1.177,1.177,0,1,1-.626,1.542A1.177,1.177,0,0,1,42.732,44.163Zm7.258,9.585-5.427,2.3-1.011-2.386,5.431-2.3Zm-8.547-12.63a4.465,4.465,0,0,0-2.283,2.168l-1.288-3.041,5.427-2.3,1.288,3.041A4.48,4.48,0,0,0,41.444,41.118Zm3.492,8.253A4.449,4.449,0,0,0,47.22,47.2l1.288,3.041-5.427,2.3L41.793,49.5A4.437,4.437,0,0,0,44.936,49.372ZM42.828,36.829l-5.431,2.3L36.39,36.746l5.427-2.3ZM67.639,21.88l-5.732,2.426-.456,1.126,6.521-2.763a.393.393,0,0,1,.519.21L76.86,42.64a.39.39,0,0,1-.21.515L51.414,53.847,42.736,33.356l13.8-5.843.456-1.122L35.882,35.331a1.251,1.251,0,0,0-.666,1.641l8.368,19.761a1.254,1.254,0,0,0,1.641.662l31.761-13.45a1.252,1.252,0,0,0,.662-1.641L69.28,22.542A1.252,1.252,0,0,0,67.639,21.88ZM50.554,53.974l-6.22,2.632L42.99,53.435,49.21,50.8Zm-1.483-3.5-6.22,2.632-1.895-4.479a4.049,4.049,0,0,0,6.216-2.632Zm-8.9-3.948a3.278,3.278,0,1,1,4.3,1.74A3.28,3.28,0,0,1,40.172,46.525Zm5.253-4.658A4.049,4.049,0,0,0,39.208,44.5l-1.9-4.479,6.22-2.632ZM43.39,37.059l-6.22,2.632L35.827,36.52l6.22-2.636ZM52.143,41.3a.763.763,0,0,0,0,.591.783.783,0,0,0,.436.42.77.77,0,0,0,1.007-.424l.1-.238.916-.563a.493.493,0,0,0,.159-.155L55.826,39.3l.044-.083L61.2,26.046l6.43-2.723a.374.374,0,0,1,.5.2L76.142,42.45a.376.376,0,0,1-.2.5L51.771,53.185,43.462,33.559l12.82-5.427L52.369,37.8a.348.348,0,0,0-.028.091L51.965,39.8a.469.469,0,0,0,.008.222l.266,1.043Zm.317-1.407L52.77,41.1l-.159.392a.267.267,0,0,0,.147.349l.016.008a.272.272,0,0,0,.353-.151l.159-.388,1.058-.65L55.4,39.025,64,17.789l-.23-.1.381-.936a.837.837,0,0,0-.46-1.086l-.563-.23a.836.836,0,0,0-1.09.46l-.377.939-.23-.1-8.6,21.24Zm3.663-10.025,2.565,1.039-.127.313L56,30.181Zm-.337,2.91a.594.594,0,0,1,.777-.329l.012,0a.6.6,0,0,1,.333.777l-1.237,3.052L54.55,35.83Zm-1.95,4.812.571-1.407,1.118.456-.567,1.407a.6.6,0,0,1-.781.329l-.012,0A.6.6,0,0,1,53.836,37.59Z" transform="translate(136.05 68.72)" fill="#fa09a7"/>
        </g>
        <g transform="matrix(1, 0, 0, 1, -122.55, -50)" filter="url(#Path_3347)">
          <path id="Path_3347-2" data-name="Path 3347" d="M45.79,39.424l0,.876,3.223.016,0,.46-3.223-.016-.016,4.012,3.223.016,0,.46-3.223-.012-.016,4.012,3.223.012,0,.464-3.219-.016-.02,4.012,3.223.016v.46l-3.223-.016-.02,4.012,3.223.016v.46l-3.223-.012-.02,4.012,3.223.012v.464l-3.223-.016-.02,4.012,3.223.016v.46L45.667,67.6l-.02,4.012,3.223.012v.464l-3.223-.016-.02,4.012,3.223.016v.46l-3.223-.016-.02,4.012,3.223.016v.46l-3.223-.012-.02,4.012,3.223.012v.464l-3.223-.016,0,.872,7.9.036.206-46.94Zm4.916,44.264a1.174,1.174,0,0,1-2.347-.012A1.174,1.174,0,0,1,50.706,83.688Z" transform="translate(167.08 139.99)" fill="#fa09a7"/>
        </g>
        <g transform="matrix(1, 0, 0, 1, -122.55, -50)" filter="url(#Path_3348)">
          <path id="Path_3348-2" data-name="Path 3348" d="M60.329,65.215a.41.41,0,0,0,.194-.69L24.045,28a.412.412,0,0,0-.69.388l2.319,9.661-.067-.274,2.549-.614.1.42-2.549.61.955,3.976-.083-.345,2.549-.61.1.416-2.549.61L31.509,62.4l-.079-.337,2.545-.61.1.416-2.545.61.955,3.98-.083-.349,2.545-.61.1.416-2.545.61L33.618,71.2a.411.411,0,0,0,.5.305ZM23.668,29.68l1.645-.392.353.357-1.9.452Zm.967,4.047,2.549-.61.1.416-2.549.614Zm2.914,12.146,2.545-.61.1.416-2.549.61Zm.971,4.047,2.545-.61.1.416-2.545.611Zm.967,4.047,2.549-.61.1.42-2.545.61Zm.971,4.051L33,57.409l.1.416-2.549.61Zm7.056,6.16L33.281,46.516a.852.852,0,0,1,1.431-.8L49.764,60.787a.851.851,0,0,1-.4,1.431L38.542,64.81A.85.85,0,0,1,37.515,64.18Zm14.572-.02a1.385,1.385,0,0,1,2.692-.646A1.385,1.385,0,0,1,52.087,64.16Zm-18.715,6,2.541-.61.1.42-2.545.607Z" transform="translate(101.15 105.77)" fill="#fa09a7"/>
        </g>
        <g transform="matrix(1, 0, 0, 1, -122.55, -50)" filter="url(#Path_3349)">
          <path id="Path_3349-2" data-name="Path 3349" d="M55.779,54.058,57.4,51.382l.091-.079a1.481,1.481,0,0,0,.147-2.089L35.978,24.267l2.965,3.211.908.551-.159.262.753.817.321-.527,6.422,3.893L45.75,34.848l.753.813,1.6-2.636,6.422,3.893L51.807,41.4l.753.817,2.874-4.749,6.426,3.893-4,6.6.971,1.054,4.063-6.7a1.347,1.347,0,0,0,.02-1.693,3.213,3.213,0,0,0-.519-.381c-.547-.325-26.421-15.968-26.421-15.968h0l3.1,1.879,0,0-2.842-1.82,2.91,1.594.008-.02,7.183,2.192L45.88,29.6l.955.523.523-1.716,7.183,2.192L53.563,33.8l.955.523L55.561,30.9,62.744,33.1,61.245,38l1.237.678.4-1.3,1.106-3.619A1.482,1.482,0,0,0,63,31.91L39.439,24.719l.159.012L35.11,23.268,40.929,24.8,45,25.029l-.048.836,1.054.277.059-1.054,7.5.416L53.424,28.1l1.051.274.159-2.807,7.5.416-.242,4.345,1.364.361h0l.242-4.357a1.481,1.481,0,0,0-1.4-1.558l-27.5-1.53-.626-.19.9.547h0l-.924-.563a1.459,1.459,0,0,0-.7-.2L31.181,22.2a1.486,1.486,0,0,0-1.756.757l-.547-.032a1.484,1.484,0,0,0-1.562,1.4l-.3,5.467L23.36,32.957a1.485,1.485,0,0,0-.147,2.089L45.024,60.167a1.485,1.485,0,0,0,2.089.147l6.628-5.756h0A1.479,1.479,0,0,0,55.779,54.058ZM31.907,23.534,29.9,26.856,30.955,23.4l.876.266Zm-4.479,5.895,1.494-4.9.02-.388.1.008.293-.959-1.9,6.244Zm1.986,3a1.956,1.956,0,1,1,2.759.194A1.953,1.953,0,0,1,29.413,32.43Z" transform="translate(99.69 88.73)" fill="#fa09a7"/>
        </g>
        <g transform="matrix(1, 0, 0, 1, -122.55, -50)" filter="url(#Path_3350)">
          <path id="Path_3350-2" data-name="Path 3350" d="M63.966,40.7l-1.253-2.779,1.522-.686,2.228,2.339Zm-4.127,4.579-3.294-7.3c5.292.174,5.431-.563,5.7.032l1.34,2.973C63.855,41.58,63.209,41.2,59.839,45.278Zm2.335-4.059a33.8,33.8,0,0,0-2.279,3.029,21.563,21.563,0,0,1,2.057-2.133c.884-.737,1.364-.92,1.126-1.443l-.543-1.209A3.384,3.384,0,0,1,62.174,41.219Zm-33.68,9.252,3.421,7.583a1.544,1.544,0,0,0,1.621.523l-4.365-9.669A1.544,1.544,0,0,0,28.495,50.471Zm-.535.242a1.209,1.209,0,0,0-.6,1.6l2.426,5.379a1.207,1.207,0,0,0,1.6.6l.091-.04-3.421-7.579Zm1.435-1.931L52.133,38.519l4.38,9.712L33.779,58.495Zm25.747-2.838-21.474,10.7.377.832,21.85-9.863Zm1.352,1.4.781-.353-.753-1.669-.781.353Zm1.344.289-4.384-9.708.634-.285a1.54,1.54,0,0,1,1.835.44L56.117,38l3.421,7.579-.186.1a1.539,1.539,0,0,1-.88,1.669Zm.222-1a1.151,1.151,0,0,0,.575-1.522l-2.937-6.5s1.693,4.23,2.049,5.7a4,4,0,0,1,0,2.466Z" transform="translate(112.73 133.5)" fill="#fa09a7"/>
        </g>
        <g transform="matrix(1, 0, 0, 1, -122.55, -50)" filter="url(#Path_3351)">
          <path id="Path_3351-2" data-name="Path 3351" d="M76.854,41.9l.357.484L54.952,58.813l0,0-2.16.94a2.011,2.011,0,0,0-.377-.836,2.066,2.066,0,0,0-.721-.622l1.542-1.808,0,0L75.491,40.051l.357.488-22.092,16.3-1.586,1.6,1.447-1.213.262-.194,22.1-16.312.706.955L54.576,57.993,52.76,59.245l1.772-.868.226-.17ZM52.269,59.463a.844.844,0,0,0-.147-.365.947.947,0,0,0-.341-.305.637.637,0,0,1-.024-.139,1.013,1.013,0,0,1-.305-.143L49.8,60.193a.913.913,0,0,1,.412.329A.93.93,0,0,1,50.4,61l2.042-1.066a.882.882,0,0,1-.04-.4A1.027,1.027,0,0,1,52.269,59.463ZM49.533,60.47l-.725.844c-.123.182,0,.357.218.3l1.031-.448a1,1,0,0,0-.174-.4A.948.948,0,0,0,49.533,60.47Zm32.716-21.8a.582.582,0,0,0,.123-.813l-1.035-1.4a.582.582,0,0,0-.813-.123l-1.114.825,1.724,2.331Zm-4.265.523,1.312,1.78.159-.115-1.312-1.78Zm-.281.21,1.312,1.78.159-.119-1.312-1.78Zm-.091-.456-.277-.381-.159.119.278.381Zm.281-.206-.281-.381-.159.115.281.381Zm1.193-1.467-1.352.995.281.381,1.265-.932.25.337-1.265.932,1.312,1.78,1.352-.995Zm-2.771,3.151-.246-.337,1.265-.936-.281-.381-1.352,1,1.843,2.5,1.352-1-1.316-1.78Z" transform="translate(176.49 130.49)" fill="#fa09a7"/>
        </g>
        <g transform="matrix(1, 0, 0, 1, -122.55, -50)" filter="url(#Path_3352)">
          <path id="Path_3352-2" data-name="Path 3352" d="M77.152,49.942,78.9,50.973l2.271-8.2a1.355,1.355,0,0,0,.936-2.422l2.5-1.5L80.918,52.158l1.712,1.007-.226.385L80.8,52.6l-2.22,8.008a1.719,1.719,0,0,0-.971-.714A1.741,1.741,0,0,0,76.4,60l2.382-8.59-1.855-1.09Zm8.67-17.577,1.158.678L87.3,32.5l-1.154-.678ZM58.83,61.7l3.8-3.009L61.874,58ZM64.4,56.031a1.724,1.724,0,0,1-.492-1.1L62.719,56.1l-.793,1.261,1.221,1.245,1.154-.9,1.193-1.173A1.737,1.737,0,0,1,64.4,56.031Zm2.347-.119a1.561,1.561,0,1,1,.02-2.208A1.564,1.564,0,0,1,66.75,55.912Zm-.27-1.927a1.159,1.159,0,1,0-.016,1.637A1.158,1.158,0,0,0,66.481,53.986Zm8.88,14.58-.555-.119-.361,1.792a.159.159,0,0,0,.305.083Zm.892-2.24-1.07-.285-.42,1.966.848.214Zm3.841-25.6a1.363,1.363,0,0,1,1.7-.559l.111-2.91-.008-.008-9.855,9.688-1.768-1.039-.226.381,1.669.979-5.907,5.8a1.741,1.741,0,0,1,1.094.511,1.721,1.721,0,0,1,.488,1.1l6.339-6.228,1.808,1.066.226-.381L74.06,48.119l6.069-5.966A1.366,1.366,0,0,1,80.094,40.722Zm-.246-2,.666-.658a3.663,3.663,0,1,1,4.055,2.386l-.25.9a4.524,4.524,0,1,0-4.472-2.628ZM77.426,64.764l.456-1.645a1.7,1.7,0,0,1-2.176-.6l-.456,1.645L75.028,65.6l1.677.464Zm-1.788-3.619a1.559,1.559,0,1,1,1.086,1.923A1.557,1.557,0,0,1,75.638,61.145Zm1.193,1.534a1.158,1.158,0,1,0-.8-1.427A1.156,1.156,0,0,0,76.831,62.679Zm4.987-22.191a1.077,1.077,0,1,1-1.479.381A1.078,1.078,0,0,1,81.818,40.488Zm-1.118.591a.668.668,0,0,0,.234.908.662.662,0,1,0-.234-.908Zm6.953-8.7,2.26-3.833-1.193-.706-.388-.226-2.256,3.837.385.226ZM75,51.2l.753.444,1.99-3.377-.753-.444Z" transform="translate(206.34 104.98)" fill="#fa09a7"/>
        </g>
        <g transform="matrix(1, 0, 0, 1, -122.55, -50)" filter="url(#Path_3353)">
          <path id="Path_3353-2" data-name="Path 3353" d="M44.081,52.274l4.119,1.6-1.8,2.141-.036.016-1.693-2.937Zm1.55,4.087-2.141-3.71-1.376-1.9.032-.036,2.022,1.054L48.2,53.329v-.071c.024-.563.46-1.066,1.229-1.419L51.7,50.815l-11.29-3.829-1.233,1.467,4.67,8.713Zm3.306-1.95a1.727,1.727,0,0,1-.329-.242l-1.146,1.368,1.923-.872Zm5.776-4.951.056-.02a4.059,4.059,0,0,1,.056-1.669,6.774,6.774,0,0,1,.333-.991,6.191,6.191,0,0,1-.721-.139l-.024.028a.531.531,0,0,1-.178.135.5.5,0,0,1-.266.044,6.886,6.886,0,0,1-.872-.163c-.3-.075-.614-.174-.932-.285a9.251,9.251,0,0,1-.94-.4,7.075,7.075,0,0,1-.856-.484.5.5,0,0,1-.226-.472c.012-.143.044-.289.067-.44l-1.74.8a2.063,2.063,0,0,0-1.019,2.735l.381.829L52.37,50.51Zm9.181-7.623c.285.238.535.444.749.61.115.091.238.182.365.274l.048-.04-.535-1.169-.452-.979a2.061,2.061,0,0,0-2.735-1.019l-.032.016c.238.21.468.416.682.618C62.585,40.707,63.228,41.278,63.894,41.836Zm1.919,5.8a3.657,3.657,0,0,1-.666-.27l-.131.155a.482.482,0,0,1-.174.135.514.514,0,0,1-.353.024,4.121,4.121,0,0,1-.511-.19,3.62,3.62,0,0,1,.107.979,3.948,3.948,0,0,1-.258,1.253,4.2,4.2,0,0,1-.753,1.261,4.831,4.831,0,0,1-.69.678l8.341,4.8a1.714,1.714,0,0,1,.519.448,2.123,2.123,0,0,0-.174-1.106l-4.321-9.427c-.131.214-.254.416-.369.587ZM40.878,52.7a2.24,2.24,0,0,0-.2,2.2l1.407,3.064,1.3-.587ZM57.733,42.629a11.169,11.169,0,0,0-1.114-.955l-2.145.983a2.527,2.527,0,0,0-.131.325l1.411,2.589c.052-.087.1-.174.151-.266C56.374,44.524,56.988,43.628,57.733,42.629Zm9.355.111a5.455,5.455,0,0,1-.3.844q-.226.505-.488,1.047c-.178.357-.365.7-.563,1.031s-.381.618-.539.864l-.567.674a3.8,3.8,0,0,1-1.114-.527c-.325-.226-.714-.519-1.158-.872l-.083.1a3.363,3.363,0,0,1,.48.979,3.575,3.575,0,0,1,.147,1.154,4.061,4.061,0,0,1-.258,1.253,4.286,4.286,0,0,1-.753,1.261,5.554,5.554,0,0,1-.519.535l-2.846-1.637a4.54,4.54,0,0,0-3.274-.178,3.507,3.507,0,0,1,.063-1.38,8.18,8.18,0,0,1,1.023-2.319A33.626,33.626,0,0,1,58.4,42.582a7.9,7.9,0,0,0-2.616-1.958,1.6,1.6,0,0,0-1.875.622,4.079,4.079,0,0,0-.749,1.3l1.6,2.93-.733.876h0a6.23,6.23,0,0,1-.8-.151c-.289-.075-.587-.167-.888-.274a8.379,8.379,0,0,1-.888-.373,7.075,7.075,0,0,1-.8-.452,7.884,7.884,0,0,1,.821-2.628A13.4,13.4,0,0,1,53.278,39.7a7.554,7.554,0,0,1,1.8-1.637,3.621,3.621,0,0,1,1.613-.555,3.066,3.066,0,0,1,1.479.274,6.109,6.109,0,0,1,1.364.876q1.189,1,2.109,1.855t1.931,1.7c.293.246.547.452.765.622s.456.345.714.515l1.348-1.2ZM61.63,45.579c-.111-.214-.214-.4-.313-.551l-1.986-1.665a14.5,14.5,0,0,0-1.161,1.629,3.141,3.141,0,0,0-.456,1.205,1.571,1.571,0,0,0,.186.951,3.224,3.224,0,0,0,.733.836,2.284,2.284,0,0,0,1.471.622,1.613,1.613,0,0,0,1.249-.642,1.924,1.924,0,0,0,.44-.848,2.643,2.643,0,0,0,.048-.821A2.039,2.039,0,0,0,61.63,45.579ZM59.949,44.54c-.238.329-.44.626-.595.892a3.016,3.016,0,0,0-.456,1.205,1.569,1.569,0,0,0,.182.951c.04.063.083.131.131.2a1.567,1.567,0,0,0,.884.317.987.987,0,0,0,.4-.087,1.391,1.391,0,0,0,.468-.377,1.491,1.491,0,0,0,.333-.626,2.245,2.245,0,0,0,.04-.662,1.6,1.6,0,0,0-.159-.543c-.087-.17-.17-.321-.25-.444Zm.749,6.735-1.13-.65-1.3-.745a4.182,4.182,0,0,0-3.354.04l-5.264,2.367c-1.062.476-1.273,1.233-.472,1.685l1.316.745L36.37,61.09c-1.146.519-1.352,1.336-.46,1.827l9.728,5.34a4.407,4.407,0,0,0,3.5-.044L70.01,58.652c1.078-.492,1.284-1.276.464-1.748Z" transform="translate(136.76 134.3)" fill="#fa09a7"/>
        </g>
        <g transform="matrix(1, 0, 0, 1, -122.55, -50)" filter="url(#Path_3354)">
          <path id="Path_3354-2" data-name="Path 3354" d="M72.662,42.509,66.5,45.264l-1.185,6.644a1.158,1.158,0,0,1-2,.575l-4.523-5.015L52.1,48.4a1.156,1.156,0,0,1-1.161-1.724l3.37-5.851-2.949-6.073a1.16,1.16,0,0,1,1.284-1.641l6.6,1.4,4.864-4.682a1.161,1.161,0,0,1,1.958.714l.714,6.715,5.954,3.179A1.158,1.158,0,0,1,72.662,42.509Zm3.6-10.691-8.919-3.255-.262.71,8.923,3.255Zm-27.38,4.908-3.04,8.349.721.262,3.041-8.349Zm27.8-2.668-3.048,8.356.721.266L77.4,34.323ZM64.4,27.493,55.454,24.23l-.258.71L64.147,28.2Zm8.158,17.863L69.523,53.7l.721.266,3.041-8.349ZM58.835,51.908l8.923,3.255.258-.71L59.1,51.2ZM46.947,47.575,55.9,50.838l.258-.71L47.2,46.866Zm3.73-13.526,3.048-8.356L53,25.427l-3.048,8.356ZM67.1,27.774l-1.99-.729-.725,1.994,1.99.725Zm5.027,16.883,1.994.725.725-1.99-1.994-.729ZM76.967,31.37l-.725,1.99,1.99.729.725-1.994ZM55.208,23.437l-1.994-.725-.725,1.994,1.994.725Zm12.8,32.506,1.99.725.725-1.99-1.99-.725ZM56.148,51.619l1.994.729.725-1.994-1.994-.725ZM44.259,47.286l1.99.725.729-1.99L44.984,45.3ZM48.374,36l1.99.725.725-1.99L49.1,34.01Z" transform="translate(163.15 90.45)" fill="#fa09a7"/>
        </g>
        <g transform="matrix(1, 0, 0, 1, -122.55, -50)" filter="url(#Path_3355)">
          <path id="Path_3355-2" data-name="Path 3355" d="M63.335,35.288a12.713,12.713,0,1,0-.924,17.954A12.713,12.713,0,0,0,63.335,35.288ZM60.544,51.172a9.925,9.925,0,1,1-.27-14.961l.821-.741,1.78,1.978-.813.733A9.911,9.911,0,0,1,60.544,51.172Zm-.305-11.345,1.51-1.364A9.517,9.517,0,1,1,59.957,36.5l-1.51,1.364a7.488,7.488,0,1,0,1.792,1.966ZM49.183,38.578a7.039,7.039,0,1,0,10.509,1.245l2.565-2.311-1.241-1.38-2.565,2.315A7.031,7.031,0,0,0,49.183,38.578ZM57.9,48.243a5.979,5.979,0,1,1,.436-8.444A5.976,5.976,0,0,1,57.9,48.243ZM54.427,38.4a10.09,10.09,0,0,0-.246,10.842A5.446,5.446,0,1,1,54.427,38.4Zm18.1-3.465c-1.229-.048-2.089,1.724-2.335,3.306-.476,3.072,1.039,3.647,1.633,3.948a64.115,64.115,0,0,1-.6,8.21c-.452,3.742-2.517,6.545-.456,9.11.21.262.167.959.761,1.023l0,0h.048l.008,0c.595-.016.6-.714.832-.959,2.248-2.406.4-5.352.234-9.122a63.982,63.982,0,0,1,.02-8.23c.618-.254,2.061-.143,1.931-3.814C74.549,36.806,73.733,34.979,72.527,34.931ZM72.1,42.6c-.008.44-.186,6.192-.349,8.317s-.69,4.511-.71,6.43a12.687,12.687,0,0,0,.381,2.937c-.083.056-.23-.107-.321-.349a8.329,8.329,0,0,0-.642-1.15,4.6,4.6,0,0,1-.285-2.795c.159-1.169,1.031-4.083,1.368-6.846s.436-6.894.436-6.894C72.032,42.3,72.111,42.162,72.1,42.6Zm2.24-2.454a1.865,1.865,0,0,1-1.59,1.784c1.162-.892,1.617-3.163.452-6.47a2.4,2.4,0,0,1,.785,1.288A8.358,8.358,0,0,1,74.343,40.148Z" transform="translate(154.03 115.29)" fill="#fa09a7"/>
        </g>
        <g transform="matrix(1, 0, 0, 1, -122.55, -50)" filter="url(#Path_3356)">
          <path id="Path_3356-2" data-name="Path 3356" d="M74.486,31.214l4.194,2.926-.325.472L74.462,31.9a3.727,3.727,0,0,0-5.189.928L67.4,35.5a3.525,3.525,0,0,0-.3.527,3.557,3.557,0,0,1,.571-1.332l1.808-2.589A3.6,3.6,0,0,1,74.486,31.214Zm-.25.916,3.932,2.747-5.922,8.491-3.932-2.747a3.6,3.6,0,0,1-.9-5.007l1.808-2.593A3.6,3.6,0,0,1,74.236,32.13ZM67.961,38.02a2.729,2.729,0,0,0,1.13,2.022l3.334,2.327.583-.828ZM55.232,20.455l-2.2-5.074-.555.238,2.2,5.078Zm1.689.519,6.89,15.872a3.6,3.6,0,0,1-1.574,4.587,3.678,3.678,0,0,0,.991-4.261L56.31,21.236l-.21.1,6.763,15.583A3.6,3.6,0,0,1,61,41.648L58.1,42.9a3.6,3.6,0,0,1-4.733-1.867L46.6,25.45l.821-.357h0ZM48.537,25.05l-.932.4s4.86,11.2,6.481,14.933a2.733,2.733,0,0,0,1.76,1.51Zm3.885,4.472.519-1.621-.23-.531L50.328,28.4l.277.642,1.479-.642-.46,1.625.178.416.329-.143a2.574,2.574,0,0,1,.4-.139,1.124,1.124,0,0,1,.353-.036.553.553,0,0,1,.281.1.58.58,0,0,1,.2.262.588.588,0,0,1,.048.285.746.746,0,0,1-.087.285.928.928,0,0,1-.214.258,1.53,1.53,0,0,1-.333.206,2.485,2.485,0,0,1-.242.083c-.087.024-.17.04-.254.056s-.163.024-.23.028a.852.852,0,0,1-.17,0l.071.721a3.132,3.132,0,0,0,.571-.075,3.238,3.238,0,0,0,.543-.182,2.357,2.357,0,0,0,.567-.345,1.705,1.705,0,0,0,.4-.48,1.511,1.511,0,0,0,.178-.583,1.35,1.35,0,0,0-.115-.642,1.434,1.434,0,0,0-.3-.444,1.1,1.1,0,0,0-.392-.246,1.071,1.071,0,0,0-.432-.063,1.211,1.211,0,0,0-.428.1Zm3.072,3.762-.793.345.147.329.42-.182.2.464a.362.362,0,0,1-.079.079.556.556,0,0,1-.151.087.613.613,0,0,1-.535-.012.9.9,0,0,1-.238-.2,1.35,1.35,0,0,1-.194-.317,1.558,1.558,0,0,1-.111-.385.781.781,0,0,1,.024-.309.569.569,0,0,1,.139-.23.733.733,0,0,1,.23-.155.972.972,0,0,1,.151-.052l.059-.008.163.365.365-.159-.3-.686a1.362,1.362,0,0,0-.622.139,1.26,1.26,0,0,0-.357.234,1.06,1.06,0,0,0-.262.365,1.217,1.217,0,0,0-.1.48,1.531,1.531,0,0,0,.139.591,1.715,1.715,0,0,0,.313.5,1.3,1.3,0,0,0,.392.285,1.03,1.03,0,0,0,.436.083,1.208,1.208,0,0,0,.448-.1,1.5,1.5,0,0,0,.349-.214.836.836,0,0,0,.226-.285Zm1.177-1.736a.968.968,0,0,0-.313.032,2.1,2.1,0,0,0-.325.111l-.194.087-.186.1-.166.091-.135.083.991,2.287a1.808,1.808,0,0,0,.206-.056l.21-.071c.071-.028.135-.052.19-.079l.147-.063a1.469,1.469,0,0,0,.317-.182,1.175,1.175,0,0,0,.238-.25.7.7,0,0,0,.111-.3.678.678,0,0,0-.059-.345.764.764,0,0,0-.139-.218.576.576,0,0,0-.178-.123.5.5,0,0,0-.2-.044.794.794,0,0,0-.214.028l-.008-.02a.6.6,0,0,0,.155-.166.482.482,0,0,0,.075-.182.586.586,0,0,0,0-.186.7.7,0,0,0-.056-.182.518.518,0,0,0-.468-.345Zm-1.28-5.106a1.394,1.394,0,0,0-.5-.032,1.816,1.816,0,0,0-.511.139,2.075,2.075,0,0,0-.642.42,2.885,2.885,0,0,0-.416.531l.535.4a1.58,1.58,0,0,1,.266-.373,1.23,1.23,0,0,1,.357-.23.981.981,0,0,1,.309-.075.724.724,0,0,1,.281.04.641.641,0,0,1,.385.337,1.365,1.365,0,0,1,.091.337,1.516,1.516,0,0,1-.008.377,3.264,3.264,0,0,1-.1.448c-.048.163-.107.349-.174.555q-.071.214-.155.428c-.056.139-.107.266-.159.385l-.143.325c-.044.1-.079.17-.107.23l.246.567,2.6-1.13-.277-.642-1.681.729c.048-.087.1-.19.147-.309s.1-.246.155-.377.1-.27.143-.412.087-.281.119-.416c.044-.178.079-.337.1-.48a2.55,2.55,0,0,0,.036-.408,1.8,1.8,0,0,0-.044-.361,2.027,2.027,0,0,0-.115-.365,1.089,1.089,0,0,0-.313-.424A1.048,1.048,0,0,0,55.391,26.441ZM47.918,23.63l-.543.234-2.2-5.074,7.032-3.056,2.2,5.078L49,23.159l-.111-.254.832-.361-.127-.289-.829.361L48.327,21.6l1.34-.579-.607-1.4-1.34.583-.789-1.82-1.086.472Zm4.927-2.787-1.138.5.127.289,1.138-.5Zm-2.692-1.7.607,1.4,2.01-.872-.61-1.4Zm6.2,12.88a.787.787,0,0,0-.155.052l-.163.071-.111.059.27.614.147-.063.107-.052.1-.056a.667.667,0,0,0,.17-.214.269.269,0,0,0,0-.246.29.29,0,0,0-.1-.127.249.249,0,0,0-.127-.048A.371.371,0,0,0,56.358,32.019Zm.408.971a1.634,1.634,0,0,0-.178.067l-.242.1.277.634.055-.012.079-.032.087-.032.079-.032a.755.755,0,0,0,.155-.091.522.522,0,0,0,.111-.119.406.406,0,0,0,.052-.147.344.344,0,0,0-.028-.163.316.316,0,0,0-.119-.151.313.313,0,0,0-.155-.052A.683.683,0,0,0,56.766,32.99ZM54.939,21l-8.071,3.5.218.507,8.071-3.5Zm.519.373.916-.4-.222-.5-.912.4Z" transform="translate(165.86 68.72)" fill="#fa09a7"/>
        </g>
        <g transform="matrix(1, 0, 0, 1, -122.55, -50)" filter="url(#Path_3357)">
          <path id="Path_3357-2" data-name="Path 3357" d="M56.177,39.471l-4.4,2.228-.4-.789,4.4-2.228Zm17.541-9.7-1.621.821.329.65,1.621-.821Zm-3.5,23.254-10.35,5.245A1.393,1.393,0,0,1,58,57.659l-.274-.543-.634.321L50.849,45.1l.63-.321-.345-.686a1.388,1.388,0,0,1,.61-1.863l8.709-4.412a10.1,10.1,0,0,0,9.764,15.2ZM53.553,45.2l4.4-2.228-1-1.974-4.4,2.228Zm21.6-14.814-4.991,2.529a10.11,10.11,0,0,1,4.012,1.272,9.595,9.595,0,0,1,3.262,15.191l5.839-2.957a1.392,1.392,0,0,0,.61-1.867L77.016,30.992A1.387,1.387,0,0,0,75.149,30.381ZM73.5,51.55A9.612,9.612,0,0,1,61.16,37.64l-.9-1.784.127-1.954.583-.293.349.694,5.455-2.759-.353-.7.614-.309,1.653,1.051.9,1.784A9.612,9.612,0,0,1,73.5,51.55Zm3.167-12.38a8.417,8.417,0,1,0-3.706,11.31A8.42,8.42,0,0,0,76.668,39.17Zm-.86.432A7.454,7.454,0,1,1,65.79,36.324,7.455,7.455,0,0,1,75.807,39.6Zm-.523.266A6.868,6.868,0,1,0,72.259,49.1,6.867,6.867,0,0,0,75.284,39.868ZM63.721,45.6a5.9,5.9,0,0,0,3.909,3.076,10.692,10.692,0,0,1,3.449-11.266,5.9,5.9,0,0,0-7.357,8.19Z" transform="translate(182.68 111.37)" fill="#fa09a7"/>
        </g>
        <g transform="matrix(1, 0, 0, 1, -122.55, -50)" filter="url(#Path_3358)">
          <path id="Path_3358-2" data-name="Path 3358" d="M63.721,55.96a1.525,1.525,0,0,1,.361.317,2.913,2.913,0,0,1,.551,1.308,2.378,2.378,0,0,1,.3.591c.468,1.538-.9,2.089-2.172,2.137-1,.036-2.478.345-3.092-.543l-1.047,1.217-.036.04-.036.044-1.8,2.1a1.178,1.178,0,0,1-.543.317,1.529,1.529,0,0,1-.1.123l-9.994,9.157a1.64,1.64,0,0,1,.757,1.594,3.779,3.779,0,0,1-1.831,2.628.7.7,0,0,1-.8-.321c-.254-.436-.892-.634-1.308-.987l-2.057,1.887a14.512,14.512,0,0,0,5.367,2.624c8.452,2.307,11.27-.817,10.069-4.721s10.041-3.607,12.36-8.3c2.014-4.079.091-8.864-3.469-12.237A11.482,11.482,0,0,1,63.721,55.96ZM54.1,71.456c-2.533,1.185-.642,4.234-3.1,4.737-.88.178-2.45-1.665-.559-4.916s6.033-4.063,6.751-2.937C57.965,69.553,56.629,70.275,54.1,71.456Zm11.195-9.336a.626.626,0,0,1,.341.163,2.715,2.715,0,0,1,1.177,1.752,3.462,3.462,0,0,1-.947,2.854,1.962,1.962,0,0,1-2.85-.507A2.685,2.685,0,0,1,64.1,62.2a1.835,1.835,0,0,1,.511-.155,1.557,1.557,0,0,1,.666.067ZM43.135,69.66a3.712,3.712,0,0,1-3.211.075c-1.784-1.1.111-3.508,1.677-3.786a2.321,2.321,0,0,1,1.241-.329A1.858,1.858,0,0,1,44.959,67.2a2.38,2.38,0,0,1,.036.432l7.25-7.909a.588.588,0,0,1,.111-.091,1.072,1.072,0,0,1,.289-.519l1.039-.892a1.281,1.281,0,0,1-.2-.19,2.007,2.007,0,0,1,.087-2.636,3.475,3.475,0,0,1,.979-1.082,1.707,1.707,0,0,1,1.661-.563.7.7,0,0,1,.48.666,3.674,3.674,0,0,1,.563.737l1.1-.94a.381.381,0,0,1,.127-.079.433.433,0,0,1,.1-.115l.741-.634a.518.518,0,0,1-.028-.281,6.028,6.028,0,0,1,.436-1.38c-4.38-1.233-9.875-.408-14.834,2.45-4.717,2.723-7.659,6.818-8.226,11.976a13.53,13.53,0,0,0,1.748,8.666ZM47.3,55.469c.515-.4,1.364-.928,2.01-.476a.742.742,0,0,1,.226.25,1.711,1.711,0,0,1,.7.313c.8.575,1.57,1.938.912,2.89-.69.995-2.236,1.031-3.338.892-.947-.115-2-.555-1.907-1.693A3.374,3.374,0,0,1,47.3,55.469Zm-6,5.922a2.384,2.384,0,0,1,1.054-1.241,2.189,2.189,0,0,1,.607-.174,2.621,2.621,0,0,1,1.261-.67,1.376,1.376,0,0,1,1.272.678c.583.825,1.074,2.153.44,3.072-.547.793-1.669.714-2.561.555a1.654,1.654,0,0,1-1.538-.543A1.325,1.325,0,0,1,41.3,61.391Zm19.932-6.83c.17.166.345.325.519.484-.1-.163.242-.527.242-.527a12.831,12.831,0,0,0,3.794-2.466,9.537,9.537,0,0,0,2.922-4.25c.008,2.886-5.891,7.219-6.624,7.31a.514.514,0,0,1-.281-.024c.317.285.638.555.971.809a13.6,13.6,0,0,0,5.712-5.708c2.414-4.309,1.439-7.27.654-5.379S65.751,46.387,62.54,49a7.133,7.133,0,0,0-2.755,4.19l.147-.127A15.321,15.321,0,0,0,61.232,54.561Zm.329-.622a14.966,14.966,0,0,1,2.676-3.588,7.8,7.8,0,0,1,3.041-2.133C64.839,49.645,61.561,53.938,61.561,53.938Zm.1-3.175c1.118-1.895,3.532-2.937,5.451-3.615a3.328,3.328,0,0,0,2.26-2.113c-.087,1.36-1.621,2.248-4.281,3.485a10.4,10.4,0,0,0-4.178,4.357S60.546,52.654,61.664,50.763ZM55,58.069l-.511.436a.933.933,0,0,1-.028-.293l.492-.42A1.02,1.02,0,0,0,55,58.069Zm-.761.337a.789.789,0,0,0,.02.3l-1.1.947a1.776,1.776,0,0,0,.3.975c.23-.2.662-.6,1.193-1.1a6.678,6.678,0,0,0,.71.848l.1.1c.492.492,1.364,1.205,1.97,1.122l.194-.222c-.607.056-1.455-.642-1.938-1.122l-.1-.1a6.236,6.236,0,0,1-.7-.84l.5-.48a6.313,6.313,0,0,0,.694.825l.1.1a3.515,3.515,0,0,0,1.863,1.126l.123-.143-1.8,2.1c-.563.563-1.716-.361-2.311-.955l-.1-.1c-.595-.595-1.518-1.748-.955-2.311Zm-.317,3.738a4.12,4.12,0,0,1-1.32-2.069l.012-.012h0L36.142,78.033c-.563.563-.8,1.241-.234,1.8l.1.1c.563.563,1.241.329,1.8-.234L55.765,63.234S55.135,63.353,53.926,62.144ZM36.119,78.913l-.063-.559L52.724,60.547l.262.614ZM61.438,56.935a4.4,4.4,0,0,1-1.427-1.007l-.1-.1a6.059,6.059,0,0,1-.622-.733c.511-.5.84-.817.84-.817l-.337-.337-.785.674a1.755,1.755,0,0,1-.1-.214l.809-.7a12.073,12.073,0,0,0,2.426,2.414Zm-2.656-2.121-3.548,3.056a1.182,1.182,0,0,1-.052-.274l3.5-3A2.188,2.188,0,0,0,58.782,54.815Zm-.539,5.843a3.627,3.627,0,0,1-1.831-1.126l-.1-.1a6.821,6.821,0,0,1-.69-.817c1.173-1.114,2.533-2.422,3.453-3.306a5.787,5.787,0,0,0,.626.737l.1.1a4.358,4.358,0,0,0,1.455,1.015Z" transform="translate(137.44 154.22)" fill="#fa09a7"/>
        </g>
        <g transform="matrix(1, 0, 0, 1, -122.55, -50)" filter="url(#Path_3359)">
          <path id="Path_3359-2" data-name="Path 3359" d="M68.066,51.174c-1.772,2.708-4.25,3.7-6.628,2.664-2.26-.987-3.738-3.528-3.235-5.55a3.87,3.87,0,0,0-.547-3.27,4.556,4.556,0,0,0-3.108-1.847c-.995-.1-2.1.8-2.85,1.6a2.059,2.059,0,0,0-.591-.733c.84-.876,2.153-1.931,3.532-1.8a5.494,5.494,0,0,1,3.786,2.244,4.786,4.786,0,0,1,.69,4.036c-.392,1.578.868,3.663,2.7,4.464,1.95.852,3.944.008,5.467-2.319,2.16-3.306,2.069-7.7-.246-11.766-1.994-3.5-5.153-5.875-7.683-5.764a3.842,3.842,0,0,0-3.346,2.6c-1.324,2.882-4.329,4.642-6.7,3.925-1.082-.329-3.492-1.713-2.561-7.449.749-4.626-2.858-5.482-2.9-5.49l.206-.916c1.257.277,4.357,2,3.615,6.557-.571,3.524.127,5.855,1.911,6.4,1.9.579,4.452-.987,5.566-3.417,1.15-2.5,2.9-3.092,4.162-3.148,2.866-.123,6.378,2.442,8.539,6.24C70.346,42.8,70.425,47.566,68.066,51.174ZM51.678,52.926l-.02.02c-.091.079-.178.155-.27.23l-.167.127h0l-3.615,2.723-5.974,4.5c-.8.662-4.483,2.133-7.639-1.7S32.987,51.657,33.788,51l5.379-4.828,3.556-3.2h0l.155-.139c.1-.079.194-.159.3-.234l.008,0c.1-.079.21-.159.321-.234l0,0c.115-.075.23-.147.353-.218h0c1.653-.967,4.083-1.28,7.262,2.581,2.513,3.056,2.553,5.145,1.835,6.6l-.012.024c-.059.119-.127.234-.194.345l-.024.036c-.067.107-.143.214-.218.313l-.028.036c-.075.1-.155.194-.234.285l-.032.036q-.125.137-.25.262l-.028.028C51.853,52.767,51.766,52.85,51.678,52.926Zm-10.124-.836,3.219-2.648a.867.867,0,0,1,.139-1.078l3.29-2.708a.866.866,0,0,1,1.082.071l1.1-.9c-1.9-2.208-3.524-2.918-4.872-2.91L39.29,47.035c.036.2.079.4.123.6-5.546,5.213-3.984,6.668-3.821,6.351a21.329,21.329,0,0,1,3.393-3.881c.305-.3.618-.587.932-.868A11.348,11.348,0,0,0,41.554,52.089Zm7.758-5.732-.131-.159a.71.71,0,0,0-1-.1l-2.83,2.331a.705.705,0,0,0-.1,1l.127.159a.707.707,0,0,0,1,.1l2.834-2.331A.71.71,0,0,0,49.312,46.357Zm3.465,4.531c.313-1.332-.036-3.1-1.879-5.447l-1.1.9a.871.871,0,0,1-.139,1.078l-3.29,2.708a.871.871,0,0,1-1.086-.067l-3.2,2.636a11.374,11.374,0,0,0,4.745,3.088Zm-3.171-5.954a3.3,3.3,0,0,0-1.459-1.53c-1.225-.773-2.616-.813-4.329.511-1.673,1.3-3.029,2.446-4.127,3.461a12.123,12.123,0,0,0,.456,1.661,26.581,26.581,0,0,1,5.764-3.952A6.561,6.561,0,0,1,49.605,44.934Z" transform="translate(127.78 99.6)" fill="#fa09a7"/>
        </g>
        <g transform="matrix(1, 0, 0, 1, -122.55, -50)" filter="url(#Path_3360)">
          <path id="Path_3360-2" data-name="Path 3360" d="M28.909,33.864l-1.312.452c-.293-1.7-1.09-9.161,7-11.956,7.675-2.648,11.357,3.048,12.344,4.947a2.14,2.14,0,0,0-1.007,1.542c.488-.3.884-.551,1.154-.721a1.346,1.346,0,0,1,.5-.309l.02,0,.024,0a1.376,1.376,0,0,1,1.788,1.435l.274.27a.51.51,0,0,1,.063.634c-.008.012-.166.258-.424.662a2.119,2.119,0,0,0-1.09-3.8l-.868-10.921a1.383,1.383,0,1,0-1.054-.063,1.573,1.573,0,0,0,.309.1l.844,10.616c-1.245-2.208-5.284-7.8-13.117-5.094-8.721,3.013-7.738,11.334-7.468,12.907l-1.324.456,1.158,3.35,3.346-1.158Zm-2.4,1.617,1.938-.67.67,1.938-1.938.666ZM50.422,44A1.386,1.386,0,1,1,48.7,42.1l-.721-9.062c.234-.4.456-.769.658-1.1l.809,10.109a1.544,1.544,0,0,1,.341.107A1.385,1.385,0,0,1,50.422,44ZM49.336,29.872s-4.8,7.3-5.134,10.406c-1.455,1.058-2.47,1.808-2.47,1.808a5.224,5.224,0,0,0-3.742.975c-.139.119-.266.23-.392.341l.135.135-.436.432.357.353-3.1,3.932-2.589-2.589-2.593-2.593,3.932-3.1.349.353.436-.432.135.135c.111-.127.222-.254.341-.392a5.224,5.224,0,0,0,.975-3.742s.749-1.015,1.808-2.47c3.1-.333,10.406-5.134,10.406-5.134l.634.634L42.117,35.3c-1.479-1.106-3.615,1.043-2.4,2.612,1.57,1.213,3.718-.924,2.612-2.4L48.7,29.238Z" transform="translate(107.73 62.84)" fill="#fa09a7"/>
        </g>
        <g transform="matrix(1, 0, 0, 1, -122.55, -50)" filter="url(#Path_3361)">
          <path id="Path_3361-2" data-name="Path 3361" d="M58.221,83.831H51.105V76.715h7.116Zm12.745-7.116v7.116h7.116V76.715ZM60.6,81.028l.872-.872v-3h6.244V83.4h-2.2a2.377,2.377,0,0,1-.167.19l-.678.678h3.913V76.279H60.6ZM54.007,95.684a.6.6,0,0,1,0,.856l-.2.206a.61.61,0,0,1-.856,0l-.511-.511L47.6,101.071a2.4,2.4,0,0,1-3.389-3.389l4.832-4.836-.507-.507a.6.6,0,0,1,0-.856l.206-.206a.61.61,0,0,1,.856,0l.381.381.333-.333.353.349L61.741,80.6l.313-.313c.587-.587,1.538-.222,2.9-.789l.836.836c-.547,1.348-.19,2.3-.8,2.9l-.317.321L53.614,94.617l.349.349-.337.337Zm-5.241-1.169-.361-.357L44.77,97.792a2.489,2.489,0,0,0-.646,1.53,10.607,10.607,0,0,1,1.792-1.958ZM51.085,93.1s-1.494-1.495-1.613-1.617-.341-.119-.579.147-.178.464-.178.464c.17-.25.46-.408.579-.313S51.085,93.1,51.085,93.1Zm11-11.6c1.249-1.253,2.184-1.189,2.858-1.629A5.825,5.825,0,0,0,61.808,81c-.614.61-3.374,3.373-5.685,5.685s-4.836,4.872-4.836,4.872l.349.345S60.829,82.749,62.082,81.5Z" transform="translate(161 249.23)" fill="#fa09a7"/>
        </g>
        <g transform="matrix(1, 0, 0, 1, -122.55, -50)" filter="url(#Path_3362)">
          <path id="Path_3362-2" data-name="Path 3362" d="M55.538,56.133a1.326,1.326,0,1,0-.745-1.724A1.325,1.325,0,0,0,55.538,56.133Zm.9-2.264A1.106,1.106,0,1,1,55,54.492,1.11,1.11,0,0,1,56.434,53.87ZM54.975,65.076l-5.149-2.042.9-2.264,5.149,2.042Zm2.6-14.093a4.211,4.211,0,0,0-2.961-.055l1.146-2.882,5.149,2.038L59.772,52.97A4.2,4.2,0,0,0,57.58,50.984Zm-3.1,7.829a4.2,4.2,0,0,0,2.957.056l-1.142,2.886-5.149-2.042,1.142-2.886A4.2,4.2,0,0,0,54.476,58.813Zm6.858-9.788-5.149-2.042.9-2.264,5.149,2.042Zm26.473,6.351L82.364,53.22l-1.043.452,6.188,2.454a.37.37,0,0,1,.21.48L80.29,75.355a.373.373,0,0,1-.484.21L55.863,66.079l7.7-19.44,13.086,5.185,1.047-.452L57.671,43.44a1.175,1.175,0,0,0-1.526.658L48.72,62.848a1.172,1.172,0,0,0,.658,1.526l30.136,11.94a1.18,1.18,0,0,0,1.526-.662L88.469,56.9A1.179,1.179,0,0,0,87.807,55.376ZM55.2,65.6l-5.9-2.339L50.5,60.248l5.9,2.339Zm1.316-3.326-5.9-2.335,1.685-4.25a3.806,3.806,0,0,0,5.9,2.335Zm-3.354-8.511a3.081,3.081,0,1,1,1.728,4A3.082,3.082,0,0,1,53.164,53.763Zm6.588.345a3.806,3.806,0,0,0-5.9-2.335l1.685-4.25,5.9,2.335Zm1.808-4.559-5.9-2.339L56.854,44.2l5.9,2.335Zm3.064,8.61a.726.726,0,0,0-.388.4.733.733,0,0,0,.016.571.726.726,0,0,0,.4.388.71.71,0,0,0,.555-.012l.222-.091.987.226a.453.453,0,0,0,.206,0l1.788-.392.083-.028,12.253-5.3,6.1,2.418a.356.356,0,0,1,.2.46L79.934,74.757a.35.35,0,0,1-.46.2L56.537,65.873l7.377-18.62,12.166,4.82-8.995,3.889-.079.044L65.5,57.037a.446.446,0,0,0-.143.155l-.511.872Zm1.138-.729-.587,1.007-.365.159a.255.255,0,0,0-.131.333l.008.016a.253.253,0,0,0,.333.131l.361-.159,1.138.266,1.788-.4,19.761-8.547-.091-.214.872-.377a.782.782,0,0,0,.408-1.031l-.226-.523A.779.779,0,0,0,88,47.686l-.872.377-.091-.214L67.272,56.4Zm9.066-4.3,1.035,2.39-.293.127-1.035-2.39Zm-2.145,1.728a.566.566,0,0,1,.741.293l0,.008a.564.564,0,0,1-.293.741L70.3,57.128l-.452-1.043ZM68.2,56.8l1.308-.567.452,1.043-1.308.567a.564.564,0,0,1-.741-.293l0-.012A.56.56,0,0,1,68.2,56.8Z" transform="translate(176.12 151.64)" fill="#fa09a7"/>
        </g>
        <g transform="matrix(1, 0, 0, 1, -122.55, -50)" filter="url(#Path_3363)">
          <path id="Path_3363-2" data-name="Path 3363" d="M88.562,64.24l-.84.242.884,3.1-.44.127-.888-3.1-3.857,1.1.884,3.1-.44.127-.888-3.1-3.857,1.1.884,3.1-.44.127-.888-3.1-3.857,1.1.884,3.1-.44.127-.888-3.1-3.857,1.1.884,3.1-.44.127-.888-3.1-3.857,1.1.884,3.1-.44.127-.888-3.1-3.857,1.1.884,3.1-.44.127-.888-3.1-3.857,1.1.884,3.1-.44.127-.888-3.1-3.857,1.1.884,3.1-.44.127-.888-3.1-3.857,1.1.884,3.1-.44.127-.888-3.1-3.857,1.1.884,3.1-.444.127-.884-3.1-.836.238,2.168,7.6L90.734,71.835ZM47.43,81.306a1.174,1.174,0,0,1-.646-2.256A1.174,1.174,0,0,1,47.43,81.306Z" transform="translate(160.69 213.54)" fill="#fa09a7"/>
        </g>
        <g transform="matrix(1, 0, 0, 1, -122.55, -50)" filter="url(#Path_3364)">
          <path id="Path_3364-2" data-name="Path 3364" d="M34.276,92.335a.41.41,0,0,0,.626.349l44.014-26.96a.411.411,0,0,0-.214-.761H69.05v2.62h-.428v-2.62H64.887v2.62h-.428v-2.62l-20.733,0h.345l0,2.616h-.432V64.966H39.909v2.616h-.428V64.966h-4.8a.415.415,0,0,0-.412.412Zm43.1-27.373,0,1.693-.432.262V64.962Zm-4.162,0v2.62h-.428v-2.62Zm-12.487,0v2.62H60.3v-2.62Zm-4.162,0v2.616h-.428V64.966Zm-4.162,0v2.616h-.428l0-2.616Zm-4.162,0v2.616h-.432V64.966ZM40.6,70.393l18.164,0a.852.852,0,0,1,.448,1.578L41.047,83.094a.851.851,0,0,1-1.3-.725l0-11.123A.851.851,0,0,1,40.6,70.393ZM37.225,84.569a1.384,1.384,0,0,1,0,2.767A1.384,1.384,0,0,1,37.225,84.569Zm-1.479-19.6v2.616h-.428V64.966Z" transform="translate(133.55 215.68)" fill="#fa09a7"/>
        </g>
        <g transform="matrix(1, 0, 0, 1, -122.55, -50)" filter="url(#Path_3365)">
          <path id="Path_3365-2" data-name="Path 3365" d="M56.019,53.358v0l-7.492,2.593a1.336,1.336,0,0,0-.825,1.7L57.53,86.042a1.339,1.339,0,0,0,1.7.825l4.127-1.427,4.412,2.224a1.338,1.338,0,0,0,1.8-.591l.222-.444A1.335,1.335,0,0,0,71.17,85.6l.44-1.9a1.286,1.286,0,0,0,.151-.638l-.02-.979h0l.02.955.135-.575L83.091,60.248a1.338,1.338,0,0,0-.591-1.8L78.984,56.68h0L78.651,57.9l3.508,1.768L79.107,65.73l-2.268-1.146-.258.951,2.093,1.054-3.052,6.053-.852-.428-.258.947.674.341-1.657,3.29-1.423,5.245.88-4.166L72.922,78l4.987-21.676a1.337,1.337,0,0,0-1-1.606l-3.33-.765-1.2-.274-.028,1.269,4.515,1.039-1.518,6.608L72.2,61.873l-.02.983,2.949.678-1.522,6.608-1.578-.365-.024.983,1.387.321L71.872,77.69l-.016,0-.063,2.993-.143-3.04-.008,0,.071,3.274h0s-.579-27.293-.587-27.868a2.63,2.63,0,0,0-.063-.579,1.216,1.216,0,0,0-1.336-.745l-7.072.159.385,1.237L70,52.958l.151,6.779-5.015.111.3.955,4.733-.1.151,6.779-2.783.063.3.955,2.505-.055L70.5,75.22l-.555.012.3.959.277-.008.02.963,1.173,3.762L61.954,52.72a1.336,1.336,0,0,0-1.7-.825l-.1.036-2.826.063A1.331,1.331,0,0,0,56.019,53.358Zm14.3,31.071-.186.809L66.948,84.5l3.508-.079Zm-6.5.848L69.569,86.6l-.884-.2-.036.075-.313-.159-4.511-1.039Zm-.365-5.153a1.766,1.766,0,1,1-1.09,2.248A1.765,1.765,0,0,1,63.46,80.124Z" transform="translate(173.14 176.4)" fill="#fa09a7"/>
        </g>
        <g transform="matrix(1, 0, 0, 1, -122.55, -50)" filter="url(#Path_3366)">
          <path id="Path_3366-2" data-name="Path 3366" d="M38.006,82.379l.583,2.993-1.641.321L35.322,82.9Zm5.07-3.5L44.6,86.74c-5.106-1.391-5.415-.706-5.538-1.344l-.622-3.2C38.319,81.555,38.858,82.074,43.076,78.875Zm-3.2,3.417a34.227,34.227,0,0,0,2.914-2.426,21.559,21.559,0,0,1-2.489,1.6c-1.035.515-1.542.583-1.431,1.146l.25,1.3A3.352,3.352,0,0,1,39.873,82.292Zm34.9-1.253L73.2,72.877a1.548,1.548,0,0,0-1.459-.884L73.758,82.4A1.537,1.537,0,0,0,74.777,81.039Zm.575-.111a1.208,1.208,0,0,0,.955-1.415l-1.126-5.792a1.2,1.2,0,0,0-1.415-.955l-.1.016,1.586,8.166Zm-1.839,1.546L49.022,87.227,46.992,76.77l24.491-4.753ZM47.8,79.311l23.361-5.467-.174-.9L47.452,77.515Zm-.991-1.673-.844.163.349,1.8.844-.166Zm-1.241-.591L47.6,87.5l-.682.131a1.543,1.543,0,0,1-1.685-.852l-.206.028-1.582-8.162.2-.052a1.544,1.544,0,0,1,1.245-1.419Zm-.444.92a1.151,1.151,0,0,0-.912,1.348l1.36,7s-.67-4.507-.682-6.014a3.961,3.961,0,0,1,.571-2.4Z" transform="translate(136.66 236.52)" fill="#fa09a7"/>
        </g>
        <g transform="matrix(1, 0, 0, 1, -122.55, -50)" filter="url(#Path_3367)">
          <path id="Path_3367-2" data-name="Path 3367" d="M64,79.512l.075.472L42.3,83.444h0l-1.875-.131a1.731,1.731,0,0,0-.242-1.435l1.752-.714v0L63.711,77.7l.075.476L42.174,81.613l-1.709.547,1.471-.329.258-.04,21.621-3.437.151.936L42.336,82.726l-1.744.222,1.57.032.222-.036ZM40.164,82.921a.754.754,0,0,0-.1-.654q.018-.059.036-.107a.726.726,0,0,1-.163-.21l-1.792.579a.736.736,0,0,1,.174.385.807.807,0,0,1-.04.408l1.835-.008a.663.663,0,0,1,.119-.3A.58.58,0,0,1,40.164,82.921Zm-2.307-.289-.821.329c-.159.087-.135.254.044.293l.892.059a.743.743,0,0,0-.115-.682ZM69,79.2a.464.464,0,0,0,.385-.527L69.17,77.3a.46.46,0,0,0-.531-.381l-1.09.17.365,2.283Zm-3.211-1.193.277,1.744.155-.028-.277-1.74Zm-.274.044.278,1.744.155-.028-.278-1.74Zm.1-.353-.059-.373-.155.024.059.373Zm.274-.044-.059-.373-.155.024.059.373Zm1.38-.6-1.32.21.059.373,1.237-.194.052.329-1.237.194.277,1.744,1.32-.21Zm-3.112,1.217-.056-.329,1.237-.2-.055-.373-1.324.21.388,2.442,1.324-.21-.277-1.74Z" transform="translate(141.42 251.11)" fill="#fa09a7"/>
        </g>
        <g transform="matrix(1, 0, 0, 1, -122.55, -50)" filter="url(#Path_3368)">
          <path id="Path_3368-2" data-name="Path 3368" d="M41.711,63.162l-1.986.436,3.909,7.56a1.355,1.355,0,0,0,.963,2.41l-.809,2.8L37.442,64.1l-1.942.424-.1-.432,1.827-.4-3.817-7.377a1.7,1.7,0,0,0,2.006-1.039l4.095,7.916,2.1-.46ZM47.3,81.949l-1.312.285.135.614,1.312-.285ZM47.15,42.085l-.737,4.789,1.023,0Zm-.23,7.944a1.742,1.742,0,0,1,1.11.476l.075-1.673-.277-1.467-1.736-.079-.242,1.439L45.774,50.4A1.73,1.73,0,0,1,46.92,50.029ZM45.279,51.71a1.562,1.562,0,1,1,1.487,1.633A1.563,1.563,0,0,1,45.279,51.71Zm1.506,1.229a1.157,1.157,0,1,0-1.1-1.209A1.154,1.154,0,0,0,46.785,52.939Zm-16.42-4.65L30.849,48,29.9,46.438a.16.16,0,0,0-.281.147Zm.864,2.248.979-.519-1.027-1.728-.769.42ZM45.822,71.923a1.36,1.36,0,0,1-.868,1.57L46.849,75.7h.012L47.5,61.9l2.006-.44-.1-.432-1.887.412.381-8.269a1.72,1.72,0,0,1-2.252-.1l-.412,8.872-2.053.452.1.432,1.935-.424-.392,8.5A1.372,1.372,0,0,1,45.822,71.923Zm1.542,1.3-.044.936a3.665,3.665,0,1,1-4.594,1.011l-.428-.832a4.526,4.526,0,1,0,5.066-1.114ZM31.432,52.479l.785,1.514a1.74,1.74,0,0,1,.8-.9,1.72,1.72,0,0,1,1.2-.135l-.785-1.518-.817-1.205-1.546.8Zm3.774,1.439a1.561,1.561,0,1,1-2.1-.67A1.559,1.559,0,0,1,35.206,53.918ZM33.287,53.6a1.158,1.158,0,1,0,1.558.5A1.16,1.16,0,0,0,33.287,53.6ZM44.72,73.267a1.078,1.078,0,1,1,.821-1.28A1.073,1.073,0,0,1,44.72,73.267Zm.412-1.193a.659.659,0,1,0-.5.789A.656.656,0,0,0,45.132,72.074Zm.817,11.1.951,4.349,1.352-.293.44-.1-.951-4.349-.44.1ZM42.433,60.772l-.856.186.84,3.833.852-.19Z" transform="translate(119.71 147.87)" fill="#fa09a7"/>
        </g>
        <g transform="matrix(1, 0, 0, 1, -122.55, -50)" filter="url(#Path_3369)">
          <path id="Path_3369-2" data-name="Path 3369" d="M63.46,19.349l3.076,3.167-2.525,1.2h-.04l-.313-3.377Zm-.3,4.365-.4-4.265-.464-2.3.048-.02,1.4,1.8,3.009,3.1.028-.063a1.785,1.785,0,0,1,1.713-.777l2.49.016-8.67-8.186-1.732.821L61.2,23.7Zm3.817-.4a2.059,2.059,0,0,1-.2-.357l-1.609.761,2.113.012Zm7.314-2.1.059,0a4.054,4.054,0,0,1,.745-1.491,6.68,6.68,0,0,1,.718-.765,6.147,6.147,0,0,1-.6-.428l-.032.016a.515.515,0,0,1-.214.052.509.509,0,0,1-.262-.071,7.059,7.059,0,0,1-.725-.511c-.238-.194-.484-.412-.729-.65s-.472-.488-.69-.749a7.871,7.871,0,0,1-.575-.8.507.507,0,0,1-.012-.523c.075-.123.163-.246.246-.373H70.306A2.069,2.069,0,0,0,68.241,17v.912l3.488,3.29Zm11.524-3.108q.238.505.428.868c.063.131.139.266.214.4l.059-.016V17a2.067,2.067,0,0,0-2.065-2.065h-.032c.127.293.25.579.361.848C85.1,16.543,85.445,17.327,85.818,18.112Zm-.674,6.077a4.092,4.092,0,0,1-.5-.523l-.182.087a.5.5,0,0,1-.214.048.485.485,0,0,1-.329-.123,5.093,5.093,0,0,1-.388-.385,3.61,3.61,0,0,1-.305.932,4.07,4.07,0,0,1-.757,1.035,4.315,4.315,0,0,1-1.213.832,4.9,4.9,0,0,1-.908.325l5.582,7.841a1.586,1.586,0,0,1,.285.622,2.118,2.118,0,0,0,.3-1.078V23.432c-.206.143-.4.27-.579.381ZM60.368,18.4a2.227,2.227,0,0,0-1.1,1.915V23.69L60.7,23.7Zm19.516-2.133a11.145,11.145,0,0,0-.61-1.336H76.91c-.087.079-.174.159-.254.246l.206,2.941c.083-.059.159-.123.246-.182C77.862,17.427,78.793,16.864,79.883,16.269Zm8.463,4a5.706,5.706,0,0,1-.626.638q-.416.369-.88.749c-.309.25-.626.484-.943.7s-.6.4-.848.563l-.8.377a3.849,3.849,0,0,1-.793-.943c-.2-.341-.432-.769-.69-1.276l-.119.055a3.229,3.229,0,0,1,.032,1.09,3.507,3.507,0,0,1-.349,1.11,3.887,3.887,0,0,1-.757,1.035,4.237,4.237,0,0,1-1.209.832,5.527,5.527,0,0,1-.694.266L77.767,22.79a4.521,4.521,0,0,0-2.9-1.522,3.489,3.489,0,0,1,.634-1.225,8.227,8.227,0,0,1,1.895-1.689,34.1,34.1,0,0,1,3.12-1.851,7.95,7.95,0,0,0-1.562-2.87,1.611,1.611,0,0,0-1.966-.214,4.043,4.043,0,0,0-1.221.868l.23,3.326-1.027.492h0a7.034,7.034,0,0,1-.666-.472c-.23-.186-.464-.392-.694-.618a8.463,8.463,0,0,1-.65-.71,6.959,6.959,0,0,1-.543-.745,7.882,7.882,0,0,1,1.839-2.046,13.549,13.549,0,0,1,2.8-1.76,7.447,7.447,0,0,1,2.315-.741,3.647,3.647,0,0,1,1.7.166,3.073,3.073,0,0,1,1.225.864,5.956,5.956,0,0,1,.876,1.364c.444.936.829,1.792,1.146,2.565s.67,1.562,1.047,2.359c.163.341.309.638.436.884s.27.5.432.765l1.728-.531Zm-6.148.305a5.324,5.324,0,0,0-.055-.634L81.033,17.6a14.681,14.681,0,0,0-1.732,1,3.124,3.124,0,0,0-.92.908,1.562,1.562,0,0,0-.226.94,3.13,3.13,0,0,0,.321,1.066,2.27,2.27,0,0,0,1.074,1.181,1.612,1.612,0,0,0,1.4-.063,1.952,1.952,0,0,0,.753-.587,2.49,2.49,0,0,0,.385-.729A1.994,1.994,0,0,0,82.2,20.574ZM81.1,18.929a10.225,10.225,0,0,0-.912.563,3.012,3.012,0,0,0-.916.908,1.538,1.538,0,0,0-.23.94c.008.075.02.155.036.234a1.59,1.59,0,0,0,.674.658.965.965,0,0,0,.4.087,1.343,1.343,0,0,0,.579-.147,1.436,1.436,0,0,0,.563-.432,2.148,2.148,0,0,0,.313-.583,1.653,1.653,0,0,0,.079-.563c-.008-.19-.02-.361-.04-.5ZM78.98,25.363,78.226,24.3l-.868-1.221a4.207,4.207,0,0,0-3.068-1.36l-5.768-.04c-1.165-.008-1.673.591-1.134,1.336l.888,1.225-15.5-.087c-1.261-.008-1.788.646-1.181,1.467l6.62,8.907a4.425,4.425,0,0,0,3.2,1.419H84.375c1.185,0,1.7-.626,1.15-1.4Z" transform="translate(184.15 55.68)" fill="#fa09a7"/>
        </g>
        <g transform="matrix(1, 0, 0, 1, -122.55, -50)" filter="url(#Path_3370)">
          <path id="Path_3370-2" data-name="Path 3370" d="M59.325,66.282l-4.852,4.694,1.165,6.652a1.159,1.159,0,0,1-1.685,1.225l-5.966-3.163-5.966,3.163a1.159,1.159,0,0,1-1.685-1.225L41.5,70.976l-4.848-4.694a1.159,1.159,0,0,1,.642-1.982l6.684-.951,2.969-6.061a1.16,1.16,0,0,1,2.085,0L52,63.349l6.688.951A1.16,1.16,0,0,1,59.325,66.282ZM59.048,55h-9.5v.757h9.5ZM35,68.986v8.884h.769V68.986Zm25.2-12.023v8.9h.769v-8.9ZM46.422,55H36.9v.757h9.526Zm13.783,13.99v8.884h.769V68.986ZM49.55,79.847h9.5V79.09h-9.5Zm-12.654,0h9.526V79.09H36.9ZM35.77,65.858v-8.9H35v8.9Zm13.276-11.52H46.93v2.121h2.117ZM59.551,68.482h2.121V66.361H59.551Zm0-14.144v2.121h2.121V54.338Zm-23.159,0H34.272v2.121h2.121ZM59.551,80.494h2.121V78.373H59.551Zm-12.622,0h2.117V78.373H46.93Zm-12.658,0h2.121V78.373H34.272Zm0-12.011h2.121V66.361H34.272Z" transform="translate(133.55 184.19)" fill="#fa09a7"/>
        </g>
        <g transform="matrix(1, 0, 0, 1, -122.55, -50)" filter="url(#Path_3371)">
          <path id="Path_3371-2" data-name="Path 3371" d="M57.3,21.932A12.713,12.713,0,1,0,44.582,34.645,12.711,12.711,0,0,0,57.3,21.932ZM44.582,31.858a9.926,9.926,0,1,1,9.823-11.29h1.106v2.66H54.417A9.925,9.925,0,0,1,44.582,31.858Zm7.373-8.63h2.038a9.514,9.514,0,1,1-.012-2.66H51.943a7.493,7.493,0,1,0,.012,2.66ZM44.582,14.9a7.038,7.038,0,1,0,6.973,7.964h3.453V21H51.555A7.032,7.032,0,0,0,44.582,14.9Zm0,13.014a5.978,5.978,0,1,1,5.982-5.978A5.98,5.98,0,0,1,44.582,27.91ZM48.6,18.273a10.1,10.1,0,0,0-7.441,7.885A5.444,5.444,0,1,1,48.6,18.273Zm17.514,5.1c-.884-.86-2.708-.123-3.948.888-2.41,1.962-1.673,3.405-1.431,4.028a64.544,64.544,0,0,1-5.942,5.693c-2.846,2.478-6.251,3.175-6.442,6.462-.02.337-.519.821-.123,1.265l0,.008.016.016.016.016.008,0c.456.385.928-.127,1.265-.155,3.278-.281,3.881-3.706,6.283-6.616a63.873,63.873,0,0,1,5.526-6.1c.63.226,1.629,1.272,3.988-1.542C66.357,26.114,66.976,24.211,66.111,23.371Zm-5.455,5.411c-.3.321-4.285,4.472-5.831,5.942s-3.532,2.886-4.832,4.3a12.773,12.773,0,0,0-1.685,2.434c-.1-.012-.1-.234,0-.472A7.672,7.672,0,0,0,48.6,39.7a4.582,4.582,0,0,1,1.661-2.268c.9-.761,3.5-2.339,5.6-4.166S60.8,28.437,60.8,28.437C60.811,28.5,60.958,28.461,60.657,28.782Zm3.31-.321a1.867,1.867,0,0,1-2.375.258c1.459.115,3.318-1.269,4.666-4.5a2.387,2.387,0,0,1-.277,1.483A8.5,8.5,0,0,1,63.967,28.461Z" transform="translate(126.42 50.45)" fill="#fa09a7"/>
        </g>
        <g transform="matrix(1, 0, 0, 1, -122.55, -50)" filter="url(#Path_3372)">
          <path id="Path_3372-2" data-name="Path 3372" d="M75.519,95.524,72.2,99.409l-.436-.373,3.084-3.607a3.725,3.725,0,0,0-.412-5.252l-2.486-2.125a3.775,3.775,0,0,0-.5-.353,3.622,3.622,0,0,1,1.272.7l2.4,2.053A3.6,3.6,0,0,1,75.519,95.524Zm-.884-.345-3.12,3.647L63.646,92.1l3.116-3.643a3.6,3.6,0,0,1,5.074-.4l2.4,2.053A3.6,3.6,0,0,1,74.635,95.179Zm-5.249-6.818a2.739,2.739,0,0,0-2.125.924l-2.64,3.092.769.658Zm.9-8.856,5.268-1.693-.186-.575L70.1,78.93Zm-.678,1.629-16.475,5.3a3.6,3.6,0,0,1-4.412-2.01,3.682,3.682,0,0,0,4.147,1.4L69.4,80.5l-.071-.222-16.17,5.2a3.6,3.6,0,0,1-4.527-2.323l-.967-3a3.6,3.6,0,0,1,2.323-4.527l16.17-5.2.277.852h0Zm-3.239-8.741-.309-.967s-11.623,3.738-15.5,4.987a2.717,2.717,0,0,0-1.673,1.6Zm-4.828,3.429L63.1,76.5l.551-.178-.8-2.47-.666.214.5,1.53-1.574-.614-.432.139.107.337a2.653,2.653,0,0,1,.1.416,1.077,1.077,0,0,1,0,.357.556.556,0,0,1-.131.27.578.578,0,0,1-.277.174.6.6,0,0,1-.289.02.738.738,0,0,1-.277-.115.967.967,0,0,1-.238-.238,1.293,1.293,0,0,1-.166-.349,1.829,1.829,0,0,1-.063-.254c-.012-.087-.024-.17-.028-.258s-.008-.163-.008-.23a.979.979,0,0,1,.012-.17H58.7a2.792,2.792,0,0,0,.02.575,2.973,2.973,0,0,0,.127.563,2.286,2.286,0,0,0,.285.595,1.838,1.838,0,0,0,.44.452,1.512,1.512,0,0,0,.559.234,1.468,1.468,0,0,0,1.126-.309,1.159,1.159,0,0,0,.281-.365,1.064,1.064,0,0,0,.107-.424,1.251,1.251,0,0,0-.063-.436ZM57.494,78.51l-.262-.825-.345.111.139.44-.476.151a.292.292,0,0,1-.075-.087.555.555,0,0,1-.071-.155.611.611,0,0,1-.028-.278.569.569,0,0,1,.1-.254.714.714,0,0,1,.218-.218,1.16,1.16,0,0,1,.337-.163,1.444,1.444,0,0,1,.392-.075.705.705,0,0,1,.3.056.519.519,0,0,1,.218.159.667.667,0,0,1,.131.246.614.614,0,0,1,.036.155l0,.059-.381.123.123.381.71-.23a1.286,1.286,0,0,0,0-.277,1.647,1.647,0,0,0-.075-.357,1.458,1.458,0,0,0-.2-.381,1.093,1.093,0,0,0-.337-.293,1.117,1.117,0,0,0-.472-.143,1.445,1.445,0,0,0-.6.079,1.68,1.68,0,0,0-.527.262,1.241,1.241,0,0,0-.321.361,1.025,1.025,0,0,0-.123.428,1.14,1.14,0,0,0,.059.456,1.247,1.247,0,0,0,.178.365.782.782,0,0,0,.258.254Zm1.613,1.344a.945.945,0,0,0,0-.317,2.178,2.178,0,0,0-.079-.337L58.96,79l-.075-.194-.075-.174-.067-.147-2.375.765a1.5,1.5,0,0,0,.032.21c.016.071.036.147.055.218s.036.135.056.2l.048.147a1.627,1.627,0,0,0,.155.337,1.012,1.012,0,0,0,.222.258.677.677,0,0,0,.293.143.655.655,0,0,0,.345-.028.716.716,0,0,0,.234-.115.545.545,0,0,0,.139-.166.554.554,0,0,0,.063-.2A.776.776,0,0,0,58,80.04l.024-.008a.646.646,0,0,0,.147.174.669.669,0,0,0,.174.091.491.491,0,0,0,.186.02.706.706,0,0,0,.186-.036.517.517,0,0,0,.388-.428Zm5.209-.777a1.369,1.369,0,0,0,.079-.5,1.855,1.855,0,0,0-.087-.523,2.035,2.035,0,0,0-.357-.678,3,3,0,0,0-.488-.468l-.456.5a1.383,1.383,0,0,1,.345.3,1.186,1.186,0,0,1,.194.373.9.9,0,0,1,.044.317.77.77,0,0,1-.063.277.724.724,0,0,1-.155.218.617.617,0,0,1-.218.131,1.162,1.162,0,0,1-.345.055,1.6,1.6,0,0,1-.377-.04A3.255,3.255,0,0,1,62,78.9c-.159-.063-.337-.139-.531-.226-.143-.059-.278-.127-.412-.194s-.258-.135-.373-.2l-.305-.17c-.091-.052-.163-.1-.218-.131l-.587.186.868,2.7.666-.214-.559-1.744c.079.052.174.111.289.174s.234.127.361.19.258.123.4.182.27.115.4.163c.17.059.325.107.468.147a2.584,2.584,0,0,0,.4.071,2.236,2.236,0,0,0,.365,0,2.36,2.36,0,0,0,.373-.083,1.085,1.085,0,0,0,.714-.674Zm3.528-7.159-.178-.563,5.264-1.7,2.351,7.3-5.268,1.693-1.8-5.609.262-.083.278.86.3-.1-.277-.864,1.054-.337.448,1.387,1.455-.468-.448-1.387,1.887-.61L72.8,70.32Zm2.291,5.177-.381-1.181-.3.1.381,1.177Zm1.958-2.513-1.455.468.67,2.081,1.455-.468ZM58.671,79.493a1.138,1.138,0,0,0-.036-.159l-.059-.166-.048-.119-.638.206.052.155.04.111.044.107a.694.694,0,0,0,.2.19.28.28,0,0,0,.246.028.3.3,0,0,0,.135-.083.239.239,0,0,0,.059-.123A.451.451,0,0,0,58.671,79.493ZM57.66,79.8a1.546,1.546,0,0,0-.048-.182l-.079-.25-.658.21.008.059.02.083.028.091.024.079a.607.607,0,0,0,.075.163.46.46,0,0,0,.107.123.342.342,0,0,0,.139.063.3.3,0,0,0,.166-.012.309.309,0,0,0,.163-.1.34.34,0,0,0,.063-.151A.549.549,0,0,0,57.66,79.8Zm12.114-.642-2.7-8.376-.523.167,2.692,8.376Zm-.424.48.305.947.523-.167-.305-.947Z" transform="translate(172.73 229.6)" fill="#fa09a7"/>
        </g>
        <g transform="matrix(1, 0, 0, 1, -122.55, -50)" filter="url(#Path_3373)">
          <path id="Path_3373-2" data-name="Path 3373" d="M60.969,59.97,59.744,55.2l.856-.222,1.225,4.773Zm5.685,19.222-.452-1.76-.706.182.452,1.756ZM44.7,70.752,41.818,59.514a1.393,1.393,0,0,1,1-1.693l.591-.151-.174-.686L56.62,53.548l.178.69.741-.19a1.391,1.391,0,0,1,1.693,1L61.654,64.5A10.108,10.108,0,0,0,44.7,70.752ZM55.95,56.168l1.221,4.777,2.149-.551-1.225-4.773Zm9.8,24.288-1.391-5.419a10.163,10.163,0,0,1-2.113,3.643,9.6,9.6,0,0,1-15.536-.1l1.625,6.339a1.391,1.391,0,0,0,1.693,1l14.719-3.774A1.392,1.392,0,0,0,65.749,80.457Zm-20.316-6.18a9.612,9.612,0,0,1,16.249-9.042l1.938-.5,1.879.551.163.63-.757.19,1.518,5.922.757-.194.17.666-1.383,1.387-1.938.5a9.612,9.612,0,0,1-18.6-.107Zm11.4,5.764a8.416,8.416,0,1,0-10.243-6.061A8.418,8.418,0,0,0,56.838,80.04Zm-.238-.932a7.454,7.454,0,1,1,5.367-9.074A7.454,7.454,0,0,1,56.6,79.109Zm-.147-.567A6.869,6.869,0,1,0,48.1,73.595,6.869,6.869,0,0,0,56.453,78.542ZM53.361,66.015a5.9,5.9,0,0,0-3.849,3.148,10.7,10.7,0,0,1,10.255,5.8,5.9,5.9,0,0,0-6.406-8.951Z" transform="translate(155.78 181.85)" fill="#fa09a7"/>
        </g>
        <g transform="matrix(1, 0, 0, 1, -122.55, -50)" filter="url(#Path_3374)">
          <path id="Path_3374-2" data-name="Path 3374" d="M79.308,25.636a1.662,1.662,0,0,1-.028.523,3.125,3.125,0,0,1-.749,1.356,2.521,2.521,0,0,1-.305.658c-1.007,1.447-2.406.642-3.306-.42-.7-.829-1.97-1.895-1.625-3.025l-1.748-.075-.063,0h-.059l-3.017-.127a1.258,1.258,0,0,1-.642-.254.845.845,0,0,1-.174-.008L52.958,21.874A1.788,1.788,0,0,1,52.1,23.6a4.12,4.12,0,0,1-3.5.206.767.767,0,0,1-.262-.9c.2-.511-.059-1.193-.04-1.788l-3.013-.492a15.941,15.941,0,0,0,1.376,6.386c3.738,8.82,8.325,9.125,10.874,5.459s9.891,6.184,15.5,5c4.864-1.027,7.675-5.915,8.162-11.254A13.767,13.767,0,0,1,79.308,25.636ZM59.483,27.848c-2.731-1.376-4.071,2.311-6.164.543-.749-.634-.226-3.235,3.845-3.806S64.74,27.02,64.256,28.4C63.737,29.886,62.215,29.224,59.483,27.848Zm15.595,3.3a.7.7,0,0,1,.091.4,2.962,2.962,0,0,1-.71,2.2,3.785,3.785,0,0,1-3.092,1.122c-1.3-.178-1.772-1.629-1.491-2.795A2.938,2.938,0,0,1,74.2,30.179a2.053,2.053,0,0,1,.476.337,1.658,1.658,0,0,1,.392.618ZM53.616,17.212c-1.011-.642-2.1-1.439-2.24-2.708-.262-2.275,3.092-2.275,4.388-1.122a2.571,2.571,0,0,1,1.122.844,2.033,2.033,0,0,1,.075,2.89,2.613,2.613,0,0,1-.349.321l11.7.88a.492.492,0,0,1,.151.036,1.183,1.183,0,0,1,.642-.1l1.471.289a1.32,1.32,0,0,1,.032-.3c.083-1.062,1.2-1.661,2.323-1.709a3.77,3.77,0,0,1,1.594.111,1.858,1.858,0,0,1,1.6,1.047.764.764,0,0,1-.246.864,4.179,4.179,0,0,1-.254.979l1.55.305a.651.651,0,0,1,.155.055.745.745,0,0,1,.163.008l1.05.206a.6.6,0,0,1,.218-.214,6.692,6.692,0,0,1,1.483-.559c-1.9-4.6-6.331-8.757-12.138-11.084-5.53-2.216-11.04-1.97-15.853,1.031a14.785,14.785,0,0,0-6.263,7.361Zm15.008-6.018c.7.166,1.72.543,1.768,1.407a.762.762,0,0,1-.063.361,1.853,1.853,0,0,1,.206.809c.044,1.074-.6,2.664-1.867,2.739-1.324.083-2.4-1.221-3.025-2.26-.539-.9-.876-2.1.167-2.787A3.689,3.689,0,0,1,68.625,11.195Zm-9.145-1.154a2.628,2.628,0,0,1,1.776.067,2.583,2.583,0,0,1,.563.4,2.892,2.892,0,0,1,1.427.63,1.5,1.5,0,0,1,.278,1.554c-.313,1.054-1.122,2.378-2.343,2.454-1.05.067-1.736-.951-2.208-1.824a1.817,1.817,0,0,1-.575-1.689A1.453,1.453,0,0,1,59.479,10.041ZM78.829,22.548c-.028.262-.044.515-.063.773.071-.194.614-.147.614-.147a13.992,13.992,0,0,0,4.686,1.59A10.4,10.4,0,0,0,89.69,24.4c-2.47,1.962-10.18-.178-10.759-.745a.541.541,0,0,1-.17-.258c-.032.464-.048.924-.036,1.383a14.859,14.859,0,0,0,8.765,1.043c5.336-.836,7.223-3.675,5.066-3.076s-3.647-1.843-8.067-2.83a7.791,7.791,0,0,0-5.467.464l.21.044A16.227,16.227,0,0,0,78.829,22.548Zm.757-.139a16.316,16.316,0,0,1,4.892-.123,8.494,8.494,0,0,1,3.889,1.169C85.492,22.326,79.586,22.409,79.586,22.409Zm2.8-2.057c2.382-.321,4.912,1.051,6.795,2.24a3.648,3.648,0,0,0,3.342.511c-1.229.844-3.029.123-5.891-1.32a11.349,11.349,0,0,0-6.569-.646S80,20.669,82.384,20.352ZM71.6,19.571l-.721-.143a1.028,1.028,0,0,1,.234-.222l.694.135A1.29,1.29,0,0,0,71.6,19.571Zm-.8-.428a.919.919,0,0,0-.246.222l-1.558-.305a1.932,1.932,0,0,0-.638.916c.329.063.963.163,1.756.281a7.1,7.1,0,0,0-.25,1.181l-.02.159c-.087.753-.111,1.986.373,2.45l.321.012a3.57,3.57,0,0,1-.345-2.422l.02-.159a6.92,6.92,0,0,1,.242-1.169l.753.111a7.045,7.045,0,0,0-.234,1.15l-.02.159a3.81,3.81,0,0,0,.293,2.363l.2.008-3.017-.127c-.868-.1-.852-1.72-.745-2.632l.02-.159c.107-.912.476-2.486,1.34-2.382ZM67.372,21.4a4.481,4.481,0,0,1,.884-2.529h.016l-26.58-2c-.868-.1-1.605.155-1.709,1.019l-.02.147c-.1.868.559,1.288,1.423,1.391l26.29,4.293S67.15,23.262,67.372,21.4ZM40.919,17.442l.436-.428L67.931,19.29l-.353.638Zm36.01,6.89a4.776,4.776,0,0,1-.1-1.907l.02-.151a6.392,6.392,0,0,1,.21-1.035l1.269.174.063-.523-1.114-.214a1.83,1.83,0,0,1,.115-.234l1.146.222a14.39,14.39,0,0,0-.345,1.816,13.963,13.963,0,0,0-.091,1.9Zm.024-3.718-5.023-.979a1.119,1.119,0,0,1,.2-.23l4.943.975A2.567,2.567,0,0,0,76.953,20.614Zm-5.387,3.492a3.963,3.963,0,0,1-.27-2.339l.02-.155a6.883,6.883,0,0,1,.234-1.142c1.752.25,3.794.535,5.177.725a6.934,6.934,0,0,0-.214,1.039l-.016.151A4.7,4.7,0,0,0,76.6,24.32Z" transform="translate(150.39 43.22)" fill="#fa09a7"/>
        </g>
        <g transform="matrix(1, 0, 0, 1, -122.55, -50)" filter="url(#Path_3375)">
          <path id="Path_3375-2" data-name="Path 3375" d="M84.563,19.619c2.64,1.875,3.54,4.388,2.41,6.727-1.07,2.216-3.667,3.6-5.669,3.017a3.867,3.867,0,0,0-3.286.424,4.57,4.57,0,0,0-1.966,3.033c-.135,1,.718,2.129,1.491,2.91a2.071,2.071,0,0,0-.757.567c-.844-.876-1.847-2.228-1.665-3.6A5.5,5.5,0,0,1,77.507,29a4.772,4.772,0,0,1,4.059-.535c1.562.452,3.695-.725,4.563-2.529.928-1.915.159-3.936-2.109-5.55C80.8,18.1,76.4,18.021,72.255,20.178c-3.576,1.859-6.065,4.927-6.053,7.461a3.853,3.853,0,0,0,2.47,3.445c2.834,1.431,4.476,4.5,3.667,6.838-.369,1.066-1.843,3.425-7.54,2.275-4.594-.928-5.585,2.648-5.6,2.684l-.908-.238c.329-1.249,2.168-4.277,6.692-3.366,3.5.706,5.855.1,6.466-1.665.65-1.879-.817-4.483-3.2-5.693-2.454-1.241-2.977-3.013-2.985-4.277-.016-2.87,2.684-6.283,6.561-8.3C76.286,17.022,81.051,17.125,84.563,19.619Zm1.13,16.443.02.02.218.277.119.17h0l2.585,3.718L92.9,46.393c.626.825,1.958,4.559-2,7.568s-7.195.729-7.825-.1l-4.622-5.558-3.052-3.675h0l-.135-.163c-.075-.1-.151-.2-.226-.305l0-.008c-.071-.107-.147-.218-.218-.329l0-.008c-.071-.115-.139-.234-.206-.357h0c-.9-1.693-1.122-4.131,2.858-7.159,3.148-2.394,5.241-2.355,6.664-1.582l.024.012a3.741,3.741,0,0,1,.341.21l.032.02c.107.075.206.151.305.23l.036.032c.1.079.186.163.274.246l.036.032c.087.087.17.17.254.262l.024.028C85.543,35.88,85.618,35.971,85.693,36.062ZM84.468,46.147l-2.521-3.318a.865.865,0,0,1-1.07-.178L78.3,39.257a.868.868,0,0,1,.111-1.078l-.864-1.134c-2.275,1.816-3.044,3.409-3.092,4.753l4.884,6.418c.2-.028.4-.063.6-.1,5,5.74,6.513,4.238,6.2,4.063a21.015,21.015,0,0,1-3.75-3.536c-.285-.317-.563-.642-.832-.967A11.3,11.3,0,0,0,84.468,46.147Zm-5.431-7.972-.163.127a.7.7,0,0,0-.135.991l2.22,2.922a.716.716,0,0,0,.995.135l.163-.127a.7.7,0,0,0,.135-.991l-2.22-2.922A.712.712,0,0,0,79.037,38.175ZM83.7,34.889c-1.316-.365-3.092-.083-5.514,1.669l.864,1.134a.866.866,0,0,1,1.07.182L82.7,41.263a.867.867,0,0,1-.111,1.082l2.513,3.3a11.351,11.351,0,0,0,3.266-4.622ZM77.626,37.83a3.3,3.3,0,0,0-1.582,1.4c-.821,1.193-.916,2.585.345,4.341,1.233,1.724,2.327,3.124,3.3,4.258a12.227,12.227,0,0,0,1.681-.392,26.436,26.436,0,0,1-3.73-5.907A6.563,6.563,0,0,1,77.626,37.83Z" transform="translate(204.75 75.51)" fill="#fa09a7"/>
        </g>
      </g>
    </g>
  </g>
</svg>
