<svg xmlns="http://www.w3.org/2000/svg" xmlns:xlink="http://www.w3.org/1999/xlink" width="300" height="400" viewBox="0 0 300 400">
  <defs>
    <clipPath id="clip-path">
      <circle id="Ellipse_183" data-name="Ellipse 183" cx="108.185" cy="108.185" r="108.185" transform="translate(0)" fill="none"/>
    </clipPath>
    <clipPath id="clip-path-2">
      <path id="Path_3292" data-name="Path 3292" d="M238.878,302.876l19.475,15.534c3.577,2.853,7.263,5.564,10.876,8.371,3.238,2.516,7.023,4.829,9.119,8.481,5.562,9.69,9.478,20.471,15.15,30.255,2,3.459,3.6,10.275,8.687,10.266a5.591,5.591,0,0,0,4-1.937c1.945-2.134,3.045-5.556,1.828-8.306-2.877-6.5-5.947-12.918-8.816-19.424-2.781-6.307-4.74-13.181-8.3-19.108-1.956-3.262-6.7-7.733-8.9-10.833-4.568-6.437-6.011-7.961-10.579-14.4.419.6,2.988,1.3,3.7,1.642,3.068,1.462,6.114,2.969,9.161,4.475q5.006,2.472,10,4.966c2.743,1.369,6.022,2.456,7.908,4.944,7.262,9.585,15.832,18.107,23.937,26.964a4.017,4.017,0,0,0,1.377,1.115c3.972,1.6,7.591-4.777,6.447-7.959-1.525-4.243-5.832-8.225-8.317-11.987-2.94-4.451-5.7-9.02-8.875-13.315a55.3,55.3,0,0,0-9.046-9.828c-3.607-2.989-7.67-4.568-11.692-6.771-10.413-5.7-20.594-11.883-30.88-17.817Z" transform="translate(-238.878 -278.206)" fill="#263238"/>
    </clipPath>
    <filter id="Path_3302" x="233.977" y="190.616" width="78.462" height="71.477" filterUnits="userSpaceOnUse">
      <feOffset dx="6" dy="18" input="SourceAlpha"/>
      <feGaussianBlur stdDeviation="6" result="blur"/>
      <feFlood flood-color="#af310b" flood-opacity="0.749"/>
      <feComposite operator="in" in2="blur"/>
      <feComposite in="SourceGraphic"/>
    </filter>
    <filter id="Path_3310" x="-1.589" y="160.841" width="91.194" height="57.188" filterUnits="userSpaceOnUse">
      <feOffset dx="6" dy="18" input="SourceAlpha"/>
      <feGaussianBlur stdDeviation="6" result="blur-2"/>
      <feFlood flood-color="#af310b" flood-opacity="0.749"/>
      <feComposite operator="in" in2="blur-2"/>
      <feComposite in="SourceGraphic"/>
    </filter>
    <filter id="Path_3311" x="176.628" y="93.67" width="81.563" height="55.481" filterUnits="userSpaceOnUse">
      <feOffset dx="6" dy="18" input="SourceAlpha"/>
      <feGaussianBlur stdDeviation="6" result="blur-3"/>
      <feFlood flood-color="#af310b" flood-opacity="0.749"/>
      <feComposite operator="in" in2="blur-3"/>
      <feComposite in="SourceGraphic"/>
    </filter>
    <clipPath id="clip-free_trial">
      <rect width="300" height="400"/>
    </clipPath>
  </defs>
  <g id="free_trial" data-name="free trial" clip-path="url(#clip-free_trial)">
    <g id="Group_4225" data-name="Group 4225" transform="translate(-32.937 26.064)">
      <circle id="Ellipse_180" data-name="Ellipse 180" cx="144.21" cy="144.21" r="144.21" transform="translate(38.937 29.937)" fill="#e9bbd9" opacity="0.25"/>
      <circle id="Ellipse_181" data-name="Ellipse 181" cx="123.586" cy="123.586" r="123.586" transform="translate(59.56 50.56)" fill="#eda7d5" opacity="0.25"/>
      <circle id="Ellipse_182" data-name="Ellipse 182" cx="108.564" cy="108.564" r="108.564" transform="translate(74.583 65.583)" fill="#fff"/>
      <g id="Group_3478" data-name="Group 3478" transform="translate(74.961 65.961)" clip-path="url(#clip-path)">
        <g id="Group_3475" data-name="Group 3475" transform="translate(46.465 141.288)">
          <path id="Path_3257" data-name="Path 3257" d="M173.29,307.676c1.518-.909-.115-11.318-1.513-12.172-.585-.357-2.219,3.719-1.83,4.349-4.054-1.211-5.692-8.622-8.347-10.4-1.453,1.818-1.534,5.12-1.777,7.324-.477,4.328.094,6.143,2.426,7.455.757.426,7.354,5.767,6.921,5.965C169.58,309.455,172.507,308.142,173.29,307.676Z" transform="translate(-159.667 -289.449)" fill="#f3cebb"/>
          <path id="Path_3258" data-name="Path 3258" d="M178.295,313.322l-9.369,4.434-2.492,59.279h19.011Z" transform="translate(-161.81 -297.011)" fill="#83232d"/>
          <path id="Path_3259" data-name="Path 3259" d="M167.6,314.938l.341,5.474,12.2-6.6-.993-3Z" transform="translate(-162.178 -296.216)" fill="#621a22"/>
        </g>
        <g id="Group_3476" data-name="Group 3476" transform="translate(74.938 154.837)">
          <path id="Path_3260" data-name="Path 3260" d="M213.126,325.048c1.313-.786-.1-9.793-1.309-10.532-.506-.309-1.921,3.217-1.583,3.763-3.509-1.049-4.925-7.461-7.223-9-1.257,1.573-1.328,4.43-1.537,6.337-.413,3.745.081,5.315,2.1,6.45.655.368,6.363,4.991,5.988,5.161C209.917,326.588,212.449,325.452,213.126,325.048Z" transform="translate(-201.339 -309.278)" fill="#f3cebb"/>
          <path id="Path_3261" data-name="Path 3261" d="M217.456,329.933l-8.106,3.836-2.156,51.29h16.449Z" transform="translate(-203.194 -315.82)" fill="#83232d"/>
          <path id="Path_3262" data-name="Path 3262" d="M208.2,331.331l.3,4.736,10.557-5.708-.859-2.6Z" transform="translate(-203.512 -315.133)" fill="#621a22"/>
        </g>
        <g id="Group_3477" data-name="Group 3477" transform="translate(125.019 158.486)">
          <path id="Path_3263" data-name="Path 3263" d="M326.02,332.846c-1.518-.909.115-11.318,1.513-12.172.585-.357,2.22,3.718,1.83,4.349,4.055-1.211,5.692-8.622,8.347-10.4,1.453,1.818,1.535,5.12,1.777,7.324.477,4.328-.094,6.143-2.426,7.455-.756.425-7.354,5.767-6.921,5.965C329.729,334.625,326.8,333.312,326.02,332.846Z" transform="translate(-290.72 -314.619)" fill="#f3cebb"/>
          <path id="Path_3264" data-name="Path 3264" d="M318.8,338.491l9.369,4.434,2.492,59.279H311.648Z" transform="translate(-286.36 -322.18)" fill="#39a798"/>
          <path id="Path_3265" data-name="Path 3265" d="M332.5,340.108l-.341,5.474-12.2-6.6.993-3Z" transform="translate(-288.991 -321.386)" fill="#2b7d72"/>
          <path id="Path_3266" data-name="Path 3266" d="M287.073,350.217c-1.314-.786.1-9.792,1.309-10.532.506-.309,1.921,3.217,1.583,3.763,3.508-1.048,4.925-7.46,7.222-9,1.257,1.573,1.328,4.43,1.538,6.337.413,3.746-.081,5.316-2.1,6.451-.655.368-6.362,4.99-5.987,5.161C290.282,351.757,287.749,350.621,287.073,350.217Z" transform="translate(-278.41 -320.899)" fill="#f3cebb"/>
          <path id="Path_3267" data-name="Path 3267" d="M280.825,355.1l8.106,3.836,2.156,51.29H274.638Z" transform="translate(-274.638 -327.442)" fill="#39a798"/>
          <path id="Path_3268" data-name="Path 3268" d="M292.676,356.5l-.3,4.736-10.557-5.708.859-2.6Z" transform="translate(-276.914 -326.755)" fill="#2b7d72"/>
        </g>
      </g>
      <path id="Path_3269" data-name="Path 3269" d="M375.042,365.057s18.316-3.131,22.535.783c1.432,1.329-2.354,3.578-6.343,4.618-7.126,1.859-22.638,2.558-22.638,2.558Z" transform="translate(-104.417 -105.772)" fill="#e62552"/>
      <path id="Path_3270" data-name="Path 3270" d="M334.537,408.539s10.13,13.5,10.059,19.25c-.024,1.953-2.969,1.565-6.417-.693-6.161-4.037-14.437-15.371-14.437-15.371Z" transform="translate(-90.211 -119.92)" fill="#e62552"/>
      <path id="Path_3271" data-name="Path 3271" d="M233.414,186.321c-3.627.9-5.789,5.169-5.407,10.077-.068.011-.137.023-.206.04a2.369,2.369,0,0,0,1.144,4.6c.053-.014.1-.031.156-.047a13,13,0,0,0,2.938,4.421l2.294,9.215,4.557-1.134-1.418-5.7a5.768,5.768,0,0,0,1.243-.168c4.228-1.052,6.468-6.674,5-12.557S237.642,185.269,233.414,186.321Z" transform="translate(-59.253 -49.48)" fill="#f3cebb"/>
      <path id="Path_3272" data-name="Path 3272" d="M236.925,181.511c-1.608,2.521-10.623,5.5-10.623,5.5s.077,3.978-2.486,5.034a2.58,2.58,0,0,0-1.794,2.191c.022,2.185,2.182,2.045,2.938,2.406,1.587.758,3.094,4.374,3.094,4.374s-10.542.46-13.533-6.276c-3.912-8.812,3.855-11.123,3.855-11.123s3.828-11,11.568-11.333C233.822,172.118,240.128,176.488,236.925,181.511Z" transform="translate(-55.267 -45.086)" fill="#201d5b"/>
      <path id="Path_3273" data-name="Path 3273" d="M148.052,183.035c.667-1.159-4.244-7.426-5.482-7.474-.517-.021-.095,3.271.394,3.543-3.121.693-6.931-3.593-9.339-3.791-.289,1.735.873,3.944,1.525,5.488,1.28,3.032,2.324,4.019,4.346,4.026.656,0,6.977,1.1,6.764,1.388C146.26,185.576,147.708,183.632,148.052,183.035Z" transform="translate(-29.978 -46.047)" fill="#f3cebb"/>
      <path id="Path_3274" data-name="Path 3274" d="M286.761,151.974l4.846-11.724,11.081,5.862L293.6,155.4Z" transform="translate(-78.497 -34.941)" fill="#f3cebb"/>
      <path id="Path_3282" data-name="Path 3282" d="M298.914,148.208,294.34,146.1a2.725,2.725,0,0,1-1.328-3.606h0a2.725,2.725,0,0,1,3.606-1.328l4.575,2.112a2.725,2.725,0,0,1,1.327,3.606h0A2.725,2.725,0,0,1,298.914,148.208Z" transform="translate(-80.398 -35.151)" fill="#f3cebb"/>
      <path id="Path_3283" data-name="Path 3283" d="M288.711,151.922s-1.146-5.381-.082-6.565c.325-.361,1.125.288,1.487.61,1.179,1.049,1.939,5.584,1.939,5.584Z" transform="translate(-78.945 -36.525)" fill="#f3cebb"/>
      <path id="Path_3284" data-name="Path 3284" d="M238.878,302.876l19.475,15.534c3.577,2.853,7.263,5.564,10.876,8.371,3.238,2.516,7.023,4.829,9.119,8.481,5.562,9.69,9.478,20.471,15.15,30.255,2,3.459,3.6,10.275,8.687,10.266a5.591,5.591,0,0,0,4-1.937c1.945-2.134,3.045-5.556,1.828-8.306-2.877-6.5-5.947-12.918-8.816-19.424-2.781-6.307-4.74-13.181-8.3-19.108-1.956-3.262-6.7-7.733-8.9-10.833-4.568-6.437-6.011-7.961-10.579-14.4.419.6,2.988,1.3,3.7,1.642,3.068,1.462,6.114,2.969,9.161,4.475q5.006,2.472,10,4.966c2.743,1.369,6.022,2.456,7.908,4.944,7.262,9.585,15.832,18.107,23.937,26.964a4.017,4.017,0,0,0,1.377,1.115c3.972,1.6,7.591-4.777,6.447-7.959-1.525-4.243-5.832-8.225-8.317-11.987-2.94-4.451-5.7-9.02-8.875-13.315a55.3,55.3,0,0,0-9.046-9.828c-3.607-2.989-7.67-4.568-11.692-6.771-10.413-5.7-20.594-11.883-30.88-17.817Z" transform="translate(-63.33 -78.638)" fill="#263238"/>
      <path id="Path_3285" data-name="Path 3285" d="M234.376,221.382c.83.044,1.636.549,2.571.383,1.662-.3,1.3-.546,2.247-1.2a9.575,9.575,0,0,1,2.761-.918s9.905,31.3,23.97,37.044c0,0-5.9,21.989-22.066,23.97s-14.528-57.053-14.528-57.053l2.907-1.347c.571-.265,1.138-.558,1.72-.8A.951.951,0,0,1,234.376,221.382Z" transform="translate(-60.291 -60.089)" fill="#eda7d5"/>
      <path id="Path_3286" data-name="Path 3286" d="M265.792,272.478c-2.12,5.851-8.483,19.855-21.232,21.417-4.43.543-7.522-3.494-9.678-9.641,2.161,8.05,5.525,13.781,10.75,13.14,16.167-1.981,22.066-23.97,22.066-23.97A15.247,15.247,0,0,1,265.792,272.478Z" transform="translate(-62.065 -76.824)" fill="#e41487"/>
      <path id="Path_3287" data-name="Path 3287" d="M244.587,200.677a4.1,4.1,0,0,0,.111,1.281q.834,4.23,1.668,8.459c.789,4.005,1.621,8.118,3.833,11.55,2.423,3.759,6.34,6.277,9.462,9.4a74.558,74.558,0,0,1,9.357,11.438,11.1,11.1,0,0,0,3.315,3.729c3.663,2.137,7.288-.924,9.628-3.582a44.2,44.2,0,0,0,3.831-5.219c1.041-1.606,2.492-3.125,3.2-4.916,1.163-2.931-.924-4.3-3.547-4.8-7.771-1.469-16.816-5.861-21.572-12.423-4.479-6.181-3.173-12.4.564-18.447a90.209,90.209,0,0,0,5.167-9.393c3.443-7.374,6.4-14.96,9.782-22.362.672-1.472,1.357-3.124.844-4.658a5.344,5.344,0,0,0-2.758-2.77,5.125,5.125,0,0,0-4.079-.652,5.876,5.876,0,0,0-2.676,2.71c-7.038,11.584-10.159,25.858-20.094,35.08-1.534,1.424-3.2,2.695-4.859,3.972a3.03,3.03,0,0,0-1.082,1.2A1.731,1.731,0,0,0,244.587,200.677Z" transform="translate(-65.133 -40.282)" fill="#fa09a7"/>
      <path id="Path_3288" data-name="Path 3288" d="M292.17,228.02c-7.771-1.469-16.816-5.861-21.572-12.423-4.479-6.181-3.173-12.4.564-18.447a90.209,90.209,0,0,0,5.168-9.393c3.443-7.374,6.4-14.96,9.782-22.362.672-1.472,1.357-3.124.844-4.658a5.343,5.343,0,0,0-2.758-2.77,5.125,5.125,0,0,0-4.079-.652,3.862,3.862,0,0,0-1.455,1.021,5.634,5.634,0,0,1,3.565.8,5.34,5.34,0,0,1,2.759,2.77c.513,1.535-.172,3.186-.844,4.658-3.379,7.4-6.339,14.988-9.783,22.362a89.965,89.965,0,0,1-5.167,9.393c-3.737,6.042-5.043,12.266-.564,18.447,4.755,6.562,13.8,10.954,21.571,12.423,2.623.5,4.71,1.869,3.547,4.8-.711,1.791-2.163,3.31-3.2,4.916a44.2,44.2,0,0,1-3.831,5.219,18.727,18.727,0,0,1-2.771,2.62,14.438,14.438,0,0,0,4.739-3.783,44.2,44.2,0,0,0,3.831-5.219c1.041-1.606,2.492-3.125,3.2-4.916C296.88,229.889,294.793,228.516,292.17,228.02Z" transform="translate(-71.855 -40.282)" fill="#ae2f3c" opacity="0.3"/>
      <path id="Path_3289" data-name="Path 3289" d="M374.755,372.213s20.381-2.262,24.312-4.76a5.631,5.631,0,0,1-.485,2.96,78.074,78.074,0,0,1-13.062,2.832,101.186,101.186,0,0,1-13.13.892Z" transform="translate(-105.619 -106.906)" fill="#060607"/>
      <g id="Group_3483" data-name="Group 3483" transform="translate(175.548 199.568)" clip-path="url(#clip-path-2)">
        <g id="Group_3482" data-name="Group 3482" transform="translate(0 21.75)" opacity="0.5">
          <path id="Path_3290" data-name="Path 3290" d="M308.118,380.07a5.591,5.591,0,0,1-4,1.936c-5.087.01-6.682-6.807-8.686-10.266-5.672-9.784-9.588-20.565-15.151-30.255-2.1-3.652-5.881-5.965-9.119-8.481-3.612-2.807-7.3-5.518-10.875-8.371l-18.3-14.594-3.109,2.92,19.475,15.534c3.577,2.853,7.263,5.564,10.876,8.371,3.238,2.516,7.023,4.829,9.119,8.481,5.562,9.69,9.478,20.471,15.15,30.255,2,3.459,3.6,10.276,8.687,10.266a5.591,5.591,0,0,0,4-1.937,9.234,9.234,0,0,0,2.139-4.1C308.258,379.907,308.189,379.991,308.118,380.07Z" transform="translate(-238.878 -310.039)" fill="#263238"/>
          <path id="Path_3291" data-name="Path 3291" d="M344.525,352.794a4.025,4.025,0,0,1-1.377-1.116c-8.105-8.857-16.676-17.379-23.938-26.964-1.1-1.457-2.633-2.072-4.255-2.8-4.637-2.084-9.248-4.2-13.951-6.149q-2.7-1.117-5.41-2.214a13.6,13.6,0,0,0-5.517-1.322,21.342,21.342,0,0,0-3.566.321c4.317,1.869,5.715,2.61,7.225,3.348q2.821,1.377,5.636,2.769,5.006,2.472,10,4.966c2.743,1.368,6.022,2.456,7.908,4.944,7.262,9.585,15.832,18.107,23.937,26.963a4.011,4.011,0,0,0,1.377,1.116c3.046,1.226,5.882-2.237,6.524-5.353C347.89,352.686,346.242,353.485,344.525,352.794Z" transform="translate(-253.966 -310.727)" fill="#263238"/>
        </g>
        <circle id="Ellipse_184" data-name="Ellipse 184" cx="7.17" cy="7.17" r="7.17" transform="translate(44.713 54.301) rotate(-80.984)" fill="#263238" opacity="0.2"/>
        <circle id="Ellipse_185" data-name="Ellipse 185" cx="7.17" cy="7.17" r="7.17" transform="translate(64.498 19.624)" fill="#263238" opacity="0.2"/>
      </g>
      <path id="Path_3293" data-name="Path 3293" d="M225.718,222.782c3.856-.4,7.356,2.691,8.856,6.267s1.5,7.568,1.762,11.436.891,7.938,3.345,10.94c4.294,5.252,12.655,5.517,17.133,10.614a4.87,4.87,0,0,1,1.343,2.68,5.431,5.431,0,0,1-.5,2.438,21.562,21.562,0,0,1-12.707,12.233,4.319,4.319,0,0,1-2.24.323,4.786,4.786,0,0,1-1.788-.927,16.794,16.794,0,0,1-7.185-8.527c-3.25-6.843-6.5-13.688-9.482-20.653a36.647,36.647,0,0,1-2.759-8.356c-1.028-6.251,1.028-12.591,3.582-18.388" transform="translate(-57.739 -61.072)" fill="#39a798" opacity="0.2"/>
      <path id="Path_3294" data-name="Path 3294" d="M208.649,210.642c-.856-.771-5.351-.963-6.566-1.149-4.352-.665-9.378-1.2-13.517-3a62.908,62.908,0,0,1-9.485-5.393c-6.447-4.262-12.478-9.1-18.655-13.731-.915-.686-1.833-1.367-2.766-2.029-3.555-2.52-7.767,2.2-7.264,6.472.111.929,1.472,1.952,2.079,2.548,1.5,1.477,3.11,2.855,4.713,4.223,8.118,6.932,15.942,14.461,25.423,19.545,5.036,2.7,14.784,3.927,15.574,10.917.448,3.959.138,7.953.274,11.925.193,5.635.217,11.275.115,16.912-.146,8.129.234,18.576-3.808,25.948,0,0,18.82,8.716,28.725-5.151a13.7,13.7,0,0,0,1.776-11.4,37.727,37.727,0,0,0-4.74-10.427c-3.152-5.129-6.913-9.979-9.108-15.634-2.424-6.244-1.761-12.786-1.96-19.337-.072-2.389,1.023-9.407-.787-11.222Z" transform="translate(-35.291 -49.002)" fill="#fa09a7"/>
      <path id="Path_3295" data-name="Path 3295" d="M226.447,267.286a37.727,37.727,0,0,0-4.74-10.427c-3.152-5.129-6.913-9.979-9.108-15.634-2.424-6.244-1.761-12.786-1.96-19.337-.072-2.389,1.023-9.407-.787-11.222l-.025-.023c-.856-.771-5.351-.963-6.566-1.149-4.352-.666-9.378-1.2-13.517-3a62.908,62.908,0,0,1-9.485-5.393c-6.447-4.262-12.478-9.1-18.655-13.731-.915-.686-1.833-1.367-2.766-2.029a3.745,3.745,0,0,0-4.761.34,3.547,3.547,0,0,1,2.4.691c.933.661,1.851,1.343,2.766,2.029,6.177,4.634,12.208,9.468,18.655,13.731a62.938,62.938,0,0,0,9.484,5.393c4.14,1.8,9.165,2.33,13.518,2.995,1.215.186,5.71.377,6.565,1.149l.025.024c1.81,1.815.715,8.834.787,11.222.2,6.55-.465,13.093,1.959,19.337,2.2,5.655,5.957,10.505,9.108,15.633a37.75,37.75,0,0,1,4.74,10.428,13.7,13.7,0,0,1-1.776,11.4,18.188,18.188,0,0,1-6.365,5.642,17.927,17.927,0,0,0,8.723-6.674A13.7,13.7,0,0,0,226.447,267.286Z" transform="translate(-36.471 -49.002)" fill="#ae2f3c" opacity="0.3"/>
      <path id="Path_3296" data-name="Path 3296" d="M232.927,222.7,227,233.959l4.376,1.015L229.052,245l6.352,7.475a107.725,107.725,0,0,1-1.484-13.285c-.276-6,.294-12.991.08-14.232A7.936,7.936,0,0,0,232.927,222.7Z" transform="translate(-59.57 -61.055)" fill="#fff"/>
      <path id="Path_3297" data-name="Path 3297" d="M229.486,249.538l2.4-10.31-4.654-.67-.223.424L231.381,240l-2.329,10.022,6.352,7.475s-.085-.451-.214-1.244Z" transform="translate(-59.57 -66.08)" fill="#83232d"/>
      <path id="Path_3298" data-name="Path 3298" d="M244.863,219.645s-1.151,1.124-.112,4.623c.965,3.25,2.01,15.68,7.615,20.317l1.912-10.789-6.689-3.94,1.865-2.747Z" transform="translate(-65.053 -60.089)" fill="#fff"/>
      <path id="Path_3299" data-name="Path 3299" d="M247.714,229.856l1.865-2.747-4.591-7.465a1.567,1.567,0,0,0-.277.465l4.305,7-1.865,2.747,6.689,3.94L252,244.152c.158.15.32.3.486.433L254.4,233.8Z" transform="translate(-65.178 -60.089)" fill="#83232d"/>
      <path id="Path_3300" data-name="Path 3300" d="M179.647,145.165s-4.986-6.414-11.579-5.382l-2.734,3.648S174.983,141.313,179.647,145.165Z" transform="translate(-40.036 -34.758)" fill="#fa09a7"/>
      <path id="Path_3301" data-name="Path 3301" d="M327.858,214.242s-1.746-7.934-8.143-9.835l-4.036,2.119S325.3,208.761,327.858,214.242Z" transform="translate(-87.657 -55.263)" fill="#fa09a7"/>
      <g transform="matrix(1, 0, 0, 1, 32.94, -26.06)" filter="url(#Path_3302)">
        <path id="Path_3302-2" data-name="Path 3302" d="M390.162,226.957s5.523,28.22,28,35.477l14.458-7.167S398.756,246.566,390.162,226.957Z" transform="translate(-144.19 -36.34)" fill="#fa09a7"/>
      </g>
      <path id="Path_3303" data-name="Path 3303" d="M141.5,235.649s-7.591-2.893-12.69,1.413l-.442,4.537S135.51,234.779,141.5,235.649Z" transform="translate(-28.325 -64.857)" fill="#fa09a7"/>
      <path id="Path_3304" data-name="Path 3304" d="M368.2,275.871s.834,5.672,5.241,7.329l2.947-1.291S369.728,279.856,368.2,275.871Z" transform="translate(-104.293 -77.898)" fill="#fa09a7"/>
      <path id="Path_3305" data-name="Path 3305" d="M366.77,180.781s3.722,4.36,8.336,3.418l1.809-2.66S370.182,183.345,366.77,180.781Z" transform="translate(-103.839 -47.779)" fill="#fa09a7"/>
      <path id="Path_3306" data-name="Path 3306" d="M182.211,275.885s-3.315-5.428-8.535-5.2l-2.447,2.6S178.921,272.479,182.211,275.885Z" transform="translate(-41.903 -76.252)" fill="#fa09a7"/>
      <path id="Path_3307" data-name="Path 3307" d="M224.944,114.666s5.222,3.631,9.909,1.321l1.192-3.364S229.328,116.457,224.944,114.666Z" transform="translate(-58.917 -26.19)" fill="#fa09a7"/>
      <path id="Path_3308" data-name="Path 3308" d="M133.58,298.781s4.288-.316,5.767-3.525l-.806-2.275S136.644,297.856,133.58,298.781Z" transform="translate(-29.978 -83.318)" fill="#fa09a7"/>
      <path id="Path_3309" data-name="Path 3309" d="M210,162.128s6.794-.5,9.136-5.585l-1.277-3.6S214.858,160.661,210,162.128Z" transform="translate(-54.184 -38.961)" fill="#fa09a7"/>
      <g transform="matrix(1, 0, 0, 1, 32.94, -26.06)" filter="url(#Path_3310)">
        <path id="Path_3310-2" data-name="Path 3310" d="M100.587,204.568s-19.225-24.735-44.651-20.755L45.393,197.881S82.6,189.716,100.587,204.568Z" transform="translate(-34.98 -22.54)" fill="#fa09a7"/>
      </g>
      <g transform="matrix(1, 0, 0, 1, 32.94, -26.06)" filter="url(#Path_3311)">
        <path id="Path_3311-2" data-name="Path 3311" d="M306.227,98.417s23.419,12.932,42.03,1.244l3.534-14.59S325.343,104.013,306.227,98.417Z" transform="translate(-117.6 8.6)" fill="#fa09a7"/>
      </g>
    </g>
  </g>
</svg>
