<svg xmlns="http://www.w3.org/2000/svg" xmlns:xlink="http://www.w3.org/1999/xlink" width="300" height="400" viewBox="0 0 300 400">
  <defs>
    <clipPath id="clip-delivery_">
      <rect width="300" height="400"/>
    </clipPath>
  </defs>
  <g id="delivery_" data-name="delivery " clip-path="url(#clip-delivery_)">
    <g id="Group_4226" data-name="Group 4226">
      <path id="Path_3224" data-name="Path 3224" d="M279.059,445.832a.859.859,0,0,1-.671-.758c-.123.875-.033,1.692.671,1.832,1.262.253,20.88,3.86,17.8.484C294.514,448.693,280.134,446.047,279.059,445.832Z" transform="translate(-217.031 -133.459)" fill="#fff"/>
      <ellipse id="Ellipse_177" data-name="Ellipse 177" cx="88.091" cy="6.753" rx="88.091" ry="6.753" transform="translate(115.343 311.93)" fill="#2f3f5c" opacity="0.1"/>
      <path id="Path_3184" data-name="Path 3184" d="M571.137,81.01A12.957,12.957,0,0,0,560.083,66.4l-89.2-12.368a12.957,12.957,0,0,0-14.614,11.055l-.888,6.4a3.087,3.087,0,0,0-2.365,2.58l-.607,4.376a3.085,3.085,0,0,0,1.573,3.126l-1.6,11.559a3.085,3.085,0,0,0-2.365,2.58l-1.329,9.585a3.086,3.086,0,0,0,1.573,3.126l-.753,5.432a3.087,3.087,0,0,0-2.365,2.58l-1.329,9.585a3.086,3.086,0,0,0,1.573,3.126L427.884,269.8a12.957,12.957,0,0,0,11.055,14.614l89.2,12.368a12.957,12.957,0,0,0,14.614-11.055Z" transform="translate(-271.656 20.398)" fill="#2f3f5c"/>
      <path id="Path_3185" data-name="Path 3185" d="M459.891,130.266A3.092,3.092,0,0,1,456.4,132.9h0a3.092,3.092,0,0,1-2.638-3.488l1.329-9.585a3.092,3.092,0,0,1,3.487-2.638h0a3.093,3.093,0,0,1,2.638,3.488Z" transform="translate(-281.686 -4.028)" fill="#4b6590"/>
      <path id="Path_3186" data-name="Path 3186" d="M455.211,164.024a3.092,3.092,0,0,1-3.488,2.638h0a3.092,3.092,0,0,1-2.638-3.487l1.329-9.586a3.093,3.093,0,0,1,3.488-2.638h0a3.093,3.093,0,0,1,2.638,3.488Z" transform="translate(-279.878 -17.063)" fill="#4b6590"/>
      <path id="Path_3187" data-name="Path 3187" d="M534.689,285.231a12.957,12.957,0,0,1-14.614,11.055l-89.2-12.368A12.958,12.958,0,0,1,419.82,269.3L448.2,64.592a12.957,12.957,0,0,1,14.614-11.055l89.2,12.368a12.958,12.958,0,0,1,11.055,14.615Z" transform="translate(-268.542 20.587)" fill="#455a64"/>
      <rect id="Rectangle_212" data-name="Rectangle 212" width="183.562" height="106.691" transform="matrix(0.137, -0.991, 0.991, 0.137, 158.157, 274.051)" fill="#fff8f1"/>
      <path id="Path_3188" data-name="Path 3188" d="M564.545,80.122a1.491,1.491,0,0,1-1.682,1.272l-14.769-2.048a1.491,1.491,0,0,1-1.272-1.681h0a1.491,1.491,0,0,1,1.682-1.272l14.769,2.048a1.491,1.491,0,0,1,1.273,1.681Z" transform="translate(-317.623 11.72)" fill="#ebebeb" opacity="0.8"/>
      <path id="Path_3189" data-name="Path 3189" d="M518.5,408.909a9.443,9.443,0,1,1-8.057-10.65A9.443,9.443,0,0,1,518.5,408.909Z" transform="translate(-299.433 -112.531)" fill="#ebebeb" stroke="#5d77a6" stroke-miterlimit="10" stroke-width="3.238" opacity="0.8"/>
      <path id="Path_3190" data-name="Path 3190" d="M413.4,435.777l-4.525,11.145s-38.743-34.379-4.762-12.468l3.806-7.976Z" transform="translate(-257.136 -123.462)" fill="#e62552"/>
      <path id="Path_3191" data-name="Path 3191" d="M420.343,441.081l2.153-5.3-5.481-9.3-3.31,6.936C415.272,435.457,419.74,440.529,420.343,441.081Z" transform="translate(-266.229 -123.462)" fill="#2f3f5c" opacity="0.2"/>
      <g id="Group_3450" data-name="Group 3450" transform="translate(133.021 303.689)">
        <path id="Path_3192" data-name="Path 3192" d="M390.779,427.581c-4.626-.4,18.1,19.764,18.1,19.764l.372-.917C407.531,444.9,392.057,431.034,390.779,427.581Z" transform="translate(-390.158 -427.575)" fill="#2f3f5c"/>
      </g>
      <path id="Path_3193" data-name="Path 3193" d="M469.587,318.377c.41,2.27,11.465,10.8,19.2,19.175l18.666,3.05-18.583-26.615,17.736-48.151-37.81-17.81c-28.889,32.23-54.829,115.533-54.829,115.533l7.982,6.4c9.835-25.477,55.185-94.946,55.185-94.946S468.546,312.611,469.587,318.377Z" transform="translate(-266.331 -54.558)" fill="#263238"/>
      <path id="Path_3194" data-name="Path 3194" d="M529.537,386.186c1.338,1.31,2.648,2.642,3.875,3.969l18.666,3.05-6.246-8.947Q537.691,385.278,529.537,386.186Z" transform="translate(-310.954 -107.16)" fill="#2f3f5c" opacity="0.2"/>
      <path id="Path_3195" data-name="Path 3195" d="M474.948,281.306c-5.115-4.54-10.095-9.246-15.421-13.529-24.942,37.2-45.559,103.409-45.559,103.409l7.982,6.4c9.422-24.409,51.438-89.187,54.945-94.578Q475.918,282.162,474.948,281.306Z" transform="translate(-266.331 -62.184)" fill="#263238"/>
      <path id="Path_3196" data-name="Path 3196" d="M517.647,262.74c4.459,2.2,9.009,4.17,13.527,6.237,1.939.887,3.838,1.844,5.763,2.731l2.163-5.872-37.81-17.81c-1.061,1.184-2.118,2.445-3.171,3.761A214.5,214.5,0,0,0,517.647,262.74Z" transform="translate(-298.823 -54.558)" fill="#2f3f5c" opacity="0.2"/>
      <g id="Group_3454" data-name="Group 3454" transform="translate(234.778 119.376)">
        <path id="Path_3197" data-name="Path 3197" d="M564.334,129.347l-3.842,14.309-4.572-1.069s-.269,8.283,10.112,10.155,10.847-3.026,10.847-3.026l-4.523-2.6,5.556-19.781Z" transform="translate(-555.919 -127.331)" fill="#ffc1b7"/>
        <path id="Path_3198" data-name="Path 3198" d="M564.334,129.347l-3.842,14.309-4.572-1.069s-.269,8.283,10.112,10.155,10.847-3.026,10.847-3.026l-4.523-2.6,5.556-19.781Z" transform="translate(-555.919 -127.331)" fill="#de7356" opacity="0.2"/>
      </g>
      <path id="Path_3199" data-name="Path 3199" d="M592.778,116.432c-1.314,3.318-.875,6.6.982,7.339s4.427-1.358,5.742-4.676.875-6.6-.982-7.339S594.092,113.114,592.778,116.432Z" transform="translate(-335.081 -1.884)" fill="#ffc1b7"/>
      <path id="Path_3200" data-name="Path 3200" d="M558.21,88.052s-12.506,27.977-6.718,32.691,21.488,6.166,27.443-8.822c7.662-19.283,3.476-19.972,3.476-19.972Z" transform="translate(-318.841 7.212)" fill="#ffc1b7"/>
      <path id="Path_3201" data-name="Path 3201" d="M587.779,91.774s-2.986,10.653,4.276,13.529l-1.12,5.433,2.23,1.015,2.256-5.585s3.654-.16,2.533,3.289c-2.3,7.091-6.576,5.067-6.576,5.067l-3.265,7.626s11.371-7.552,13.6-18.229-1.189-9.845-1.189-9.845Z" transform="translate(-333.208 5.775)" fill="#2f3f5c"/>
      <path id="Path_3202" data-name="Path 3202" d="M583.8,94.283s-76.622-18.419-29.74-13.535c0,0,2.952-12.7,9.11-11.748C578.557,71.386,591.067,71.984,583.8,94.283Z" transform="translate(-314.559 14.588)" fill="#fa09a7"/>
      <g id="Group_3456" data-name="Group 3456" transform="translate(224.313 94.513)">
        <path id="Path_3203" data-name="Path 3203" d="M554.06,87.652c-46.882-4.884,29.74,13.535,29.74,13.535l.005-.015c-.069-.015-.136-.027-.207-.044C563.4,96.382,554.06,87.652,554.06,87.652Z" transform="translate(-538.872 -86.827)" fill="#2f3f5c" opacity="0.2"/>
      </g>
      <g id="Group_3459" data-name="Group 3459" transform="translate(234.679 101.937)">
        <path id="Path_3204" data-name="Path 3204" d="M564.745,108.742l-7.074,8.949,2.141,1.666" transform="translate(-556.497 -102.713)" fill="none" stroke="#de7356" stroke-miterlimit="10" stroke-width="1.949" opacity="0.6"/>
        <path id="Path_3205" data-name="Path 3205" d="M572.7,111.927c1.945-4.034,6.507-2.752,5.452,1.721" transform="translate(-562.298 -103.006)" fill="none" stroke="#2f3f5c" stroke-miterlimit="10" stroke-width="1.133"/>
        <path id="Path_3206" data-name="Path 3206" d="M558.638,107.087c.415-1.309,1.6-3.312,3.3-2.581,1.33.574,1.29,2.5,1.077,3.694" transform="translate(-556.87 -101.017)" fill="none" stroke="#2f3f5c" stroke-miterlimit="10" stroke-width="0.939"/>
        <path id="Path_3207" data-name="Path 3207" d="M574.054,104.013s4.206-1.888,8.711,2.8" transform="translate(-562.823 -100.742)" fill="none" stroke="#2f3f5c" stroke-miterlimit="10" stroke-width="2.924"/>
        <path id="Path_3208" data-name="Path 3208" d="M557.979,99.283s3.6-1.859,7.5,2.855" transform="translate(-556.616 -98.921)" fill="none" stroke="#2f3f5c" stroke-miterlimit="10" stroke-width="2.709"/>
        <path id="Path_3209" data-name="Path 3209" d="M555.758,127.159l13.177,2.822S558.393,135.126,555.758,127.159Z" transform="translate(-555.758 -109.824)" fill="#fff"/>
      </g>
      <path id="Path_3210" data-name="Path 3210" d="M486.671,166.615l11.912,10.444s-23.759,24.771-28.89,23.642-35.7-10.045-35.7-10.045-12.767-4.977.488-1.8c0,0-15.485-5.557.153-1.527,0,0-13.225-6.565,1.1-1.741,0,0-13.378-5.038,1.68-1.374,0,0-5.1-7.6,2.443.244l27.335,4.274Z" transform="translate(-271.609 -23.123)" fill="#ffc1b7"/>
      <path id="Path_3211" data-name="Path 3211" d="M486.671,166.615l11.912,10.444s-23.759,24.771-28.89,23.642-35.7-10.045-35.7-10.045-12.767-4.977.488-1.8c0,0-15.485-5.557.153-1.527,0,0-13.225-6.565,1.1-1.741,0,0-13.378-5.038,1.68-1.374,0,0-5.1-7.6,2.443.244l27.335,4.274Z" transform="translate(-271.609 -23.123)" fill="#de7356" opacity="0.2"/>
      <path id="Path_3212" data-name="Path 3212" d="M522.561,172.039l-6.817-7.592s11.165-12.843,17.914-12.624S522.561,172.039,522.561,172.039Z" transform="translate(-305.628 -17.411)" fill="#fff"/>
      <path id="Path_3213" data-name="Path 3213" d="M522.561,172.039l-6.817-7.592s11.165-12.843,17.914-12.624S522.561,172.039,522.561,172.039Z" transform="translate(-305.628 -17.411)" fill="#fa09a7"/>
      <path id="Path_3214" data-name="Path 3214" d="M561.986,162.849c-1.694-1.607-5.816-3.874-10.826-5.987-5.349,4.223-15.9,1.89-16.744-5.176-5.866-1.038-10.828-.8-12.666,1.873C516.593,161.069,496.208,212,496.208,212s21.64,14.521,42.975,19.513C539.183,231.513,567.349,167.936,561.986,162.849Z" transform="translate(-298.085 -17.138)" fill="#ff85d5"/>
      <path id="Path_3215" data-name="Path 3215" d="M533.937,224.158c-9.624-7.848-19.06-17.717-23.6-29.511-6.925,16.173-14.125,34.163-14.125,34.163s21.64,14.521,42.975,19.513c0,0,2.818-6.363,6.5-15.222C541.614,230.233,537.69,227.219,533.937,224.158Z" transform="translate(-298.085 -33.946)" fill="#fa09a7" opacity="0.06"/>
      <path id="Path_3216" data-name="Path 3216" d="M411.9,153.189l56.914,8.141-11.471,54.446-54.066-7Z" transform="translate(-262.2 -17.939)" fill="#b0c8d3"/>
      <path id="Path_3217" data-name="Path 3217" d="M421.395,154.548l-9.5-1.359-8.623,55.587,10.6,1.373Z" transform="translate(-262.2 -17.939)" fill="#2f3f5c" opacity="0.2"/>
      <path id="Path_3218" data-name="Path 3218" d="M475.5,168.071l17.564,2.115-1.312,7.042-17.2-2.9Z" transform="translate(-289.72 -23.685)" fill="#fa09a7" opacity="0.2"/>
      <path id="Path_3219" data-name="Path 3219" d="M530.788,195.565l12.586,9.621s-22.044,26.309-27.239,25.527-36.3-7.627-36.3-7.627-13.072-4.109.367-1.831c0,0-15.823-4.506.05-1.534,0,0-13.635-5.663.98-1.81,0,0-13.686-4.13,1.583-1.484,0,0-5.6-7.245,2.454.08l27.561,2.429Z" transform="translate(-289.196 -34.301)" fill="#ffc1b7"/>
      <path id="Path_3220" data-name="Path 3220" d="M577.475,207.2c1.077-1.252,1.713-2.01,1.713-2.01L566.6,195.565l-.664.865A93.075,93.075,0,0,0,577.475,207.2Z" transform="translate(-325.009 -34.301)" fill="#de7356" opacity="0.2"/>
      <g id="Group_3469" data-name="Group 3469" transform="translate(0 309.025)">
        <ellipse id="Ellipse_178" data-name="Ellipse 178" cx="55.075" cy="6.706" rx="55.075" ry="6.706" transform="translate(0 0)" fill="#2f3f5c" opacity="0.1"/>
      </g>
      <path id="Path_3222" data-name="Path 3222" d="M235.353,436.275c-1.729,3.013-7.5,12.621-9.824,10.9a2.057,2.057,0,0,1-.692-1.119,2.908,2.908,0,0,0,.871,2.194c2.753,2.032,10.322-11.786,10.322-11.786Z" transform="translate(-189.835 -131.506)" fill="#fff"/>
      <path id="Path_1129" data-name="Path 1129" d="M1420.415,695.9c11.406-3.219,35.768,7.091,29.138,48.578s-38.038,34.644-38.038,34.644-13.69-4.3-14.918-30.66S1401.232,701.313,1420.415,695.9Z" transform="translate(-1381.192 -618.284)"/>
      <path id="Path_1130" data-name="Path 1130" d="M1525.313,903.947a62.316,62.316,0,0,0,37.423,10.923c4.517-8.661-4.689-12.971-4.689-12.971l-17.921-8.12s-6.448-2.119-11.769,2.069C1523.724,899.5,1525.313,903.947,1525.313,903.947Z" transform="translate(-1480.359 -770.87)" fill="#fa09a7"/>
      <path id="Path_1131" data-name="Path 1131" d="M1595.271,830.553s5.746,13.555,9.063,21.627c1.317,3.2,6.305,12.462,12.547,12.275,5.542-5.97-1.939-22.741-18.77-36.6A22.3,22.3,0,0,1,1595.271,830.553Z" transform="translate(-1534.504 -720.456)" fill="#f37a50"/>
      <path id="Path_1132" data-name="Path 1132" d="M1571.839,805.875l5.54-2.721a1.516,1.516,0,0,0,.692-2.029l-5.822-11.853a2.277,2.277,0,0,0-2.557-.872l-5.013,2.9a1.516,1.516,0,0,0-.693,2.029l4.965,12.047A2.183,2.183,0,0,0,1571.839,805.875Z" transform="translate(-1510.263 -689.932)" fill="#8a284c"/>
      <path id="Path_1133" data-name="Path 1133" d="M1566.9,806.046l5.54-2.722a1.516,1.516,0,0,0,.693-2.029l-5.822-11.853a1.516,1.516,0,0,0-2.029-.692l-5.54,2.721a1.516,1.516,0,0,0-.693,2.029l5.822,11.853A1.517,1.517,0,0,0,1566.9,806.046Z" transform="translate(-1506.453 -690.179)" fill="#e62552"/>
      <path id="Path_1134" data-name="Path 1134" d="M1569.085,806.605l4.7-2.308a1.248,1.248,0,0,0,.57-1.67l-4.67-9.507a1.248,1.248,0,0,0-1.67-.57l-4.7,2.308a1.248,1.248,0,0,0-.57,1.67l4.669,9.507A1.248,1.248,0,0,0,1569.085,806.605Z" transform="translate(-1509.325 -693.131)" fill="#3b1120"/>
      <path id="Path_1135" data-name="Path 1135" d="M1600.273,851.6a.756.756,0,1,0,.579-.9A.756.756,0,0,0,1600.273,851.6Z" transform="translate(-1538.347 -738.051)" fill="#8a284c"/>
      <path id="c" d="M1601.971,804.8a1.174,1.174,0,0,0-.344-.13c.011-.018.023-.035.035-.054.646-1.091.536-2.35-.246-2.813a1.223,1.223,0,0,0-.412-.149,1.7,1.7,0,0,0-.615-1.859,1.272,1.272,0,0,0-.736-.166,1.7,1.7,0,0,0-.654-1.947,1.989,1.989,0,0,0-2,3.371,1.416,1.416,0,0,0,.638.194,1.933,1.933,0,0,0,.409,2.5,1.219,1.219,0,0,0,.412.149,1.7,1.7,0,0,0,.616,1.859,1.257,1.257,0,0,0,.68.169,1.45,1.45,0,0,0,.529,1.725,1.68,1.68,0,0,0,1.688-2.847Z" transform="translate(-1535.27 -697.034)" fill="#f37a50"/>
      <path id="Path_1136" data-name="Path 1136" d="M1515.8,858.05l-8.5-1.274.677,7.892s4.306,7.759,8.391,6.423,2.093-4.764,2.093-4.764Z" transform="translate(-1466.672 -742.752)" fill="#f37a50"/>
      <path id="Path_1137" data-name="Path 1137" d="M1476.794,742.543c1.382,9.324,8.438,16,15.761,14.917s12.139-9.523,10.758-18.847-8.438-16-15.761-14.917S1475.412,733.219,1476.794,742.543Z" transform="translate(-1442.968 -640.049)" fill="#f37a50"/>
      <path id="Path_1138" data-name="Path 1138" d="M1510.259,787.067a.482.482,0,0,0,.26-.188,3.694,3.694,0,0,1,2.878-1.324.485.485,0,0,0,.032-.969,4.611,4.611,0,0,0-3.7,1.739.484.484,0,0,0,.535.741Z" transform="translate(-1468.474 -687.089)"/>
      <path id="Path_1139" data-name="Path 1139" d="M1572.02,787.646a.478.478,0,0,0,.136-.082.485.485,0,0,0,.056-.683,3.4,3.4,0,0,0-3.292-1.122.485.485,0,0,0,.232.941,2.43,2.43,0,0,1,2.321.808A.484.484,0,0,0,1572.02,787.646Z" transform="translate(-1513.902 -687.938)"/>
      <path id="Path_1140" data-name="Path 1140" d="M1549.236,811.206a12.237,12.237,0,0,0,1.739,1.971.486.486,0,0,1,.1.659,6.67,6.67,0,0,1-3.134,1.8.13.13,0,0,1-.117-.228,6.283,6.283,0,0,0,1.659-1.621.579.579,0,0,0,.044-.523c-.158-.4-.471-1.2-.673-1.863A.218.218,0,0,1,1549.236,811.206Z" transform="translate(-1497.88 -707.552)" fill="#de623c"/>
      <path id="Path_1141" data-name="Path 1141" d="M1527.139,840.223a.386.386,0,0,1,.391-.593,27.421,27.421,0,0,0,7.263.435.386.386,0,0,1,.317.635,4.822,4.822,0,0,1-7.971-.477Z" transform="translate(-1481.919 -729.526)" fill="#fff"/>
      <path id="Path_1142" data-name="Path 1142" d="M1462.433,735.32c8.661-.392,20.052-8.386,21.429-12.775-1.182-5.522-5.536-8.643-10.737-6.591S1459.4,728.234,1462.433,735.32Z" transform="translate(-1431.588 -633.679)"/>
      <path id="Path_1143" data-name="Path 1143" d="M1541.182,731.079s5.154,5.239,10.374,6.436c-1.827-6.11-3.132-10.743-6.264-12.243a20.954,20.954,0,0,0-6.59-1.762Z" transform="translate(-1490.886 -639.995)"/>
      <path id="Path_1144" data-name="Path 1144" d="M1466.462,795.925c1.623,1.509,1.937,3.809.7,5.138s-3.552,1.181-5.176-.328-1.937-3.809-.7-5.138S1464.839,794.416,1466.462,795.925Z" transform="translate(-1430.61 -694.879)" fill="#f37a50"/>
      <path id="Path_1145" data-name="Path 1145" d="M1472.714,806.625a.479.479,0,0,0,.183-.127,2.191,2.191,0,0,0,.4-2.661,2.334,2.334,0,0,0-2.471-1.1.485.485,0,0,0,.222.943,1.382,1.382,0,0,1,1.415.65,1.241,1.241,0,0,1-.291,1.519.485.485,0,0,0,.538.775Z" transform="translate(-1438.263 -701.043)" fill="#de623c"/>
      <path id="Path_1146" data-name="Path 1146" d="M1516.422,796.639a1.488,1.488,0,1,0,1.488-1.488A1.488,1.488,0,0,0,1516.422,796.639Z" transform="translate(-1473.706 -695.235)"/>
      <path id="Path_1147" data-name="Path 1147" d="M1563.794,796.639a1.488,1.488,0,1,0,1.489-1.488A1.488,1.488,0,0,0,1563.794,796.639Z" transform="translate(-1510.232 -695.235)"/>
      <path id="Path_1148" data-name="Path 1148" d="M1536.962,1258.671c-.569-5.678,2.361-48.891,2.361-48.891,8.285-37.99,5.031-65.185,5.031-65.185l-14.24,1-5.612,21.468,2.662,35.852s-1,2.76-1.527,4.967c-2.859,11.967-.011,26.27,1.75,35.8.816,4.418,2.085,13.7,2.118,15.812l-3.577,4.625s12.948,14.33,14.939,14.42c3.872.175,2.731-3.66,2.731-3.66C1538.275,1269.417,1537.125,1260.3,1536.962,1258.671Z" transform="translate(-1479.873 -964.679)" fill="#f37a50"/>
      <path id="Path_1149" data-name="Path 1149" d="M1526.236,1656.2l.713,9.206,1.654.075.837-8.55c4.4,1.124,7.56,9.117,7.56,9.117,3.034,1.088,10.746,1.834,13.49.42.663-2.69-6.375-4.576-6.375-4.576-.636.753-4.392,1.33-5.726.523-4.912-4.182-7.308-10.264-8.355-15.919C1530.035,1646.494,1522.273,1647.035,1526.236,1656.2Z" transform="translate(-1480.404 -1351.677)" fill="#e62552"/>
      <path id="Path_1150" data-name="Path 1150" d="M1400.157,1147.358l-20.061-2.763c-7.674,17.363-10.176,47.593-12.259,58.362-8.362,14.021-11.018,56.54-11.018,56.54l-3.578,4.625s12.948,14.33,14.939,14.42c3.872.175,2.731-3.66,2.731-3.66-5.322-5.465-6.359-12.725-6.7-14.323-.518-2.4,16.238-49.57,16.238-49.57l1.789-4.475c20.465-33.8,23.823-59.357,23.823-59.357Z" transform="translate(-1347.883 -964.679)" fill="#f37a50"/>
      <path id="Path_1151" data-name="Path 1151" d="M1348.479,1656.2l.712,9.206,1.655.075.837-8.55c4.4,1.124,7.56,9.117,7.56,9.117,3.034,1.088,10.746,1.834,13.49.42.662-2.69-6.375-4.576-6.375-4.576-.636.753-4.392,1.33-5.726.523-4.912-4.182-7.308-10.264-8.355-15.919C1352.278,1646.494,1344.516,1647.035,1348.479,1656.2Z" transform="translate(-1343.341 -1351.677)" fill="#e62552"/>
      <g id="Group_2077" data-name="Group 2077" transform="translate(14.977 168.576)">
        <path id="Path_1152" data-name="Path 1152" d="M1395.256,1162.791c2-6.7,1.131-54.682,18.818-67.729l30.436,3.208c7.033,11.384,4.453,41.007,2.085,65.386C1432.284,1168.763,1420.907,1170.813,1395.256,1162.791Z" transform="translate(-1395.256 -1095.062)" fill="#263238"/>
      </g>
      <path id="Path_1153" data-name="Path 1153" d="M1488.673,930.668c0-6.665,5.777-16.651,3.008-23.379-2.017-5.412-5.979-17.623-10.3-18.448-1.752-.334-3.676,0-6.1-.669,0,0,1.267,5.653-1.585,5.881-5.489.441-8.374-6.6-8.374-6.6-2.96-.283-13.28,2.8-13.274,3.912.032,8.731,3.872,22.849,6.192,32.289a42.36,42.36,0,0,1-.392,11.255c-.879,2.835-1.952,4.458-1.959,5.072,0,0,20.345,6.912,33.29-.214C1489.182,939.77,1488.673,935.169,1488.673,930.668Z" transform="translate(-1424.072 -766.395)" fill="#ff85d5"/>
      <path id="Path_1154" data-name="Path 1154" d="M1440.24,1096.891l1.734.693s1.807-2.874,3.64-2.783l-.914,2.746s1.037,3.209,6.589,2.842c4.743,1.078,1.425,3.33,2.738,4.231,1.938,1.329-3.5,4.593-8.074,3.185-5.924-1.822-9.773-7.416-9.773-7.416Z" transform="translate(-1411.834 -926.283)" fill="#f37a50"/>
      <path id="Path_1155" data-name="Path 1155" d="M1381.446,902.324s-14.5,8.491-21.515,28.845c6.3,6.989,11.616,1.774,11.616,1.774l14.044-13.877s4.129-5.071,2.154-11.266C1386.025,902.4,1381.446,902.324,1381.446,902.324Z" transform="translate(-1353.041 -777.872)" fill="#f37a50"/>
      <path id="Path_1156" data-name="Path 1156" d="M1381.329,1042.3l-10.134-14.842s-2.394-5.693-11.38-2.469c-.435,4.832,3.064,11.713,19.093,22.315A35.467,35.467,0,0,1,1381.329,1042.3Z" transform="translate(-1352.924 -871.694)" fill="#f37a50"/>
      <path id="Path_1157" data-name="Path 1157" d="M1508.264,889.536c.489,2.284-.837,5.021-4.663,3.738-4.582-1.538-6.722-10.138-6.722-10.138l2.873-1.557A14.22,14.22,0,0,0,1508.264,889.536Z" transform="translate(-1458.637 -761.876)" fill="#fa09a7"/>
      <path id="Path_1158" data-name="Path 1158" d="M1546.609,896.524c.565,1.177,3.788,4.192,5.315,2.4s-.255-6.511-.255-6.511l-3.475-1.766S1549.557,894.89,1546.609,896.524Z" transform="translate(-1496.981 -768.865)" fill="#fa09a7"/>
      <path id="Path_1159" data-name="Path 1159" d="M1381.446,902.324s-14.5,8.491-21.515,28.845c6.3,6.989,12.163,1.233,12.163,1.233l13.5-13.336s4.129-5.071,2.154-11.266C1386.025,902.4,1381.446,902.324,1381.446,902.324Z" transform="translate(-1353.041 -777.872)" fill="#fa09a7"/>
      <path id="Path_3255" data-name="Path 3255" d="M527.223,173.9l-11.479-11.049s19.442-16.253,22.428-15.116c1.825.7-.309,12.681-4.157,20.2C532.417,172.227,527.223,173.9,527.223,173.9Z" transform="translate(-274.321 -1.076)" fill="#fa09a7"/>
    </g>
  </g>
</svg>
