<svg xmlns="http://www.w3.org/2000/svg" xmlns:xlink="http://www.w3.org/1999/xlink" width="300" height="400" viewBox="0 0 300 400">
  <defs>
    <filter id="Rectangle_207" x="22.391" y="44.584" width="77.852" height="101.301" filterUnits="userSpaceOnUse">
      <feOffset dy="3" input="SourceAlpha"/>
      <feGaussianBlur stdDeviation="3" result="blur"/>
      <feFlood flood-opacity="0.161"/>
      <feComposite operator="in" in2="blur"/>
      <feComposite in="SourceGraphic"/>
    </filter>
    <filter id="Rectangle_208" x="116.442" y="59.619" width="70.723" height="83.452" filterUnits="userSpaceOnUse">
      <feOffset dy="3" input="SourceAlpha"/>
      <feGaussianBlur stdDeviation="3" result="blur-2"/>
      <feFlood flood-opacity="0.161"/>
      <feComposite operator="in" in2="blur-2"/>
      <feComposite in="SourceGraphic"/>
    </filter>
    <filter id="Path_3009" x="130.245" y="76.96" width="46.605" height="47.206" filterUnits="userSpaceOnUse">
      <feOffset dy="3" input="SourceAlpha"/>
      <feGaussianBlur stdDeviation="3" result="blur-3"/>
      <feFlood flood-opacity="0.161"/>
      <feComposite operator="in" in2="blur-3"/>
      <feComposite in="SourceGraphic"/>
    </filter>
    <filter id="Path_3010" x="119.274" y="61.935" width="65.595" height="78.551" filterUnits="userSpaceOnUse">
      <feOffset dy="3" input="SourceAlpha"/>
      <feGaussianBlur stdDeviation="3" result="blur-4"/>
      <feFlood flood-opacity="0.161"/>
      <feComposite operator="in" in2="blur-4"/>
      <feComposite in="SourceGraphic"/>
    </filter>
    <filter id="Path_3011" x="149.541" y="57.538" width="29.485" height="26.152" filterUnits="userSpaceOnUse">
      <feOffset dy="3" input="SourceAlpha"/>
      <feGaussianBlur stdDeviation="3" result="blur-5"/>
      <feFlood flood-opacity="0.161"/>
      <feComposite operator="in" in2="blur-5"/>
      <feComposite in="SourceGraphic"/>
    </filter>
    <filter id="Rectangle_209" x="121.315" y="-2.133" width="73.158" height="61.515" filterUnits="userSpaceOnUse">
      <feOffset dy="3" input="SourceAlpha"/>
      <feGaussianBlur stdDeviation="3" result="blur-6"/>
      <feFlood flood-opacity="0.161"/>
      <feComposite operator="in" in2="blur-6"/>
      <feComposite in="SourceGraphic"/>
    </filter>
    <clipPath id="clip-unlimited_graphics_">
      <rect width="300" height="400"/>
    </clipPath>
  </defs>
  <g id="unlimited_graphics_" data-name="unlimited graphics " clip-path="url(#clip-unlimited_graphics_)">
    <g id="Group_3489" data-name="Group 3489" transform="translate(-95.145 1.767)">
      <g id="Group_3250" data-name="Group 3250" transform="translate(312.984 297.694)">
        <path id="Path_3000" data-name="Path 3000" d="M388.364,421.263c-1.279-1.092-4.132-4.552-1.932-8.577.807-1.475,2.521-2.2,4.072-2.855a16.543,16.543,0,0,0,4.464-2.3c2.421-2.049,3.088-5.454,4.695-8.189,1.845-3.139,5.287-5.49,8.923-5.325,4.165.188,7.639,3.574,9.213,7.435s1.63,8.147,1.663,12.317c.017,2.3-.085,4.9-1.785,6.461-1.568,1.436-3.928,1.454-6.053,1.388l-22.761-.7" transform="translate(-373.81 -367.216)" fill="#f5f5f5"/>
        <path id="Path_3001" data-name="Path 3001" d="M427.776,366.181H373.354l9.8,58.186a6.509,6.509,0,0,0,4.647,5.181c.063.019.127.034.191.052.162.041.318.1.484.124a6.867,6.867,0,0,0,1.107.127l.009.056.265-.042h24.257a6.907,6.907,0,0,0,1.333-.132,6.536,6.536,0,0,0,5.505-5.687l4.726-40.092.213-1.594h-.025l1.872-15.878ZM417.51,403.3h-5.585l.563-16.887h6.471ZM419.5,386.41h5.348L422.857,403.3h-4.805Zm-15.956,35.607-.339-14.671h8.042l-.489,14.671Zm-8.7-14.671h7.815l.34,14.671H396Zm.6,14.671H388.9c-.623-3.96-1.434-9.108-2.31-14.671h7.716Zm-.92-18.72-1.318-16.887h8.965l.391,16.887Zm8.578,0-.391-16.887h9.227l-.564,16.887Zm-.484-20.937-.362-15.639H412.6l-.522,15.639Zm-.54,0H392.9l-1.221-15.639h10.047Zm-9.729,0h-9.721c-.345-2.16-.671-4.2-.966-6.045-1.014-6.323-1.4-8.7-1.607-9.594h11.072Zm.316,4.05,1.319,16.887h-8.04c-.271-1.714-.544-3.447-.818-5.181-.63-3.987-1.261-7.972-1.854-11.706ZM385.407,403.3h-5.251l-2.846-16.887h5.425C383.563,391.628,384.482,397.437,385.407,403.3Zm.639,4.05c.8,5.077,1.589,10.083,2.31,14.671H383.31l-2.471-14.671ZM411.3,422.017l.49-14.671h5.372L415.9,422.017Zm1.324-39.657.522-15.639h7.5l-1.342,15.639Zm-33.073-15.639c.215,1.13,1.208,7.285,2.539,15.639h-5.462l-2.635-15.639Zm41.1,55.3h-4.206l1.259-14.671h4.675Zm4.675-39.657h-5.477l1.342-15.639h5.978Z" transform="translate(-373.354 -366.181)" fill="#e0e0e0"/>
      </g>
      <g transform="matrix(1, 0, 0, 1, 95.14, -1.77)" filter="url(#Rectangle_207)">
        <rect id="Rectangle_207-2" data-name="Rectangle 207" width="59.541" height="83.077" transform="translate(31.7 50.58) rotate(0.22)" fill="#f5f5f5"/>
      </g>
      <path id="Path_3004" data-name="Path 3004" d="M193.867,166.807a1.751,1.751,0,0,1,.23-.013l.657-.012,2.526-.025,9.489-.046-.136.136c-.021-4.2-.048-9.392-.078-15.345v-.187l.189,0,9.284-.166.211,0,0,.213c.1,4.735.2,9.953.314,15.449l-.234-.232,13.231.091-.249.253c-.117-4.493-.24-9.177-.366-13.958-.092-3.612-.184-7.17-.273-10.647l.1.191L210.3,128.272l.292-.013-17.012,15.4.058-.134c.084,7.16.152,12.955.2,16.988.015,2,.028,3.559.037,4.647,0,.517,0,.921,0,1.219a4.094,4.094,0,0,1-.011.427,2.836,2.836,0,0,1-.026-.391c-.01-.291-.022-.684-.039-1.187-.029-1.078-.07-2.626-.123-4.607-.093-4.057-.226-9.887-.392-17.089l0-.08.06-.054,16.944-15.476.141-.128.151.116,18.485,14.2.093.072,0,.119c.09,3.476.184,7.033.278,10.647.122,4.78.243,9.464.358,13.957l.007.256-.255,0-13.231-.112-.23,0,0-.229c-.094-5.5-.185-10.714-.267-15.45l.216.208-9.285.122.188-.191c-.013,5.953-.023,11.148-.032,15.345v.138l-.137,0-9.567-.1-2.5-.04-.633-.016A.991.991,0,0,1,193.867,166.807Z" transform="translate(-53.674 -59.624)" fill="#fa09a7"/>
      <path id="Path_3005" data-name="Path 3005" d="M183.741,110.432s.308-.011.928-.011l2.757.01L198,110.5l38.438.347.2,0v.2c.014,21.129.029,47.554.046,76.169v.248l-.249,0-.394,0-52.142.315h-.231v-.23c0-22.757,0-42.061,0-55.692.013-6.776.023-12.14.03-15.83.008-1.817.014-3.219.019-4.184,0-.46.009-.814.011-1.07,0-.239.013-.353.013-.353s.01.133.014.38l.015,1.1c.009.976.021,2.394.037,4.231.022,3.7.054,9.082.093,15.882.056,13.594.134,32.846.226,55.54l-.231-.229,52.142-.357.393,0-.248.251c.019-28.615.037-55.04.051-76.169l.2.2-38.309-.557-10.619-.177-2.794-.055C184.078,110.45,183.741,110.432,183.741,110.432Z" transform="translate(-53.317 -58.978)" fill="#fa09a7"/>
      <path id="Path_3006" data-name="Path 3006" d="M230.924,104.6l12.534,12.44,2.2-2.841-12.614-11.3Z" transform="translate(-55.074 -58.698)" fill="#fa09a7"/>
      <path id="Path_3007" data-name="Path 3007" d="M175.145,186.364l12.534,12.44,2.2-2.841-12.615-11.3Z" transform="translate(-53 -61.738)" fill="#fa09a7"/>
      <path id="Path_3008" data-name="Path 3008" d="M237.723,186.19a22.441,22.441,0,0,1-3.366.2c-2.08.062-4.953.112-8.127.137-2.964.023-5.666.019-7.678-.006l.184-.193c.021,1.178.029,2.134.022,2.794a3.885,3.885,0,0,1-.065,1.029,3.8,3.8,0,0,1-.142-1.022c-.057-.659-.12-1.612-.187-2.788l-.011-.187.2-.006c2.011-.056,4.712-.1,7.677-.124,3.174-.025,6.048-.019,8.129.011A22.326,22.326,0,0,1,237.723,186.19Z" transform="translate(-54.607 -61.788)" fill="#263238"/>
      <g transform="matrix(1, 0, 0, 1, 95.14, -1.77)" filter="url(#Rectangle_208)">
        <rect id="Rectangle_208-2" data-name="Rectangle 208" width="41.659" height="58.127" transform="translate(125.44 74.19) rotate(-11.87)" fill="#ebebeb"/>
      </g>
      <g transform="matrix(1, 0, 0, 1, 95.14, -1.77)" filter="url(#Path_3009)">
        <path id="Path_3009-2" data-name="Path 3009" d="M295.6,170.523a.913.913,0,0,1,.159-.047l.45-.109,1.727-.4,6.468-1.441-.1.162c-.635-2.874-1.419-6.422-2.318-10.484l-.04-.183.184-.043,6.327-1.479.206-.048.048.206c.763,3.227,1.6,6.78,2.485,10.523l-.277-.177,9.065-1.879-.191.3c-.739-3.057-1.51-6.243-2.3-9.5-.593-2.458-1.177-4.879-1.747-7.244l.135.166-14.711-7.038.282-.072-9.4,13.019.028-.142c1.09,4.869,1.974,8.816,2.594,11.584.3,1.356.528,2.421.694,3.183l.175.84a2.465,2.465,0,0,1,.051.3,1.271,1.271,0,0,1-.079-.258c-.053-.206-.121-.47-.206-.8-.184-.748-.443-1.794-.771-3.125l-2.8-11.643-.018-.077.047-.065,9.313-13.079.11-.155.172.082,14.729,7,.107.051.028.116c.571,2.365,1.156,4.785,1.75,7.243.784,3.253,1.551,6.439,2.289,9.5l.06.248-.25.051-9.069,1.858-.226.046-.051-.223c-.867-3.746-1.691-7.3-2.439-10.533l.254.158-6.336,1.438.143-.225c.857,4.071,1.6,7.626,2.211,10.506l.028.135-.133.027-6.578,1.309-1.711.327A4.491,4.491,0,0,1,295.6,170.523Z" transform="translate(-152.48 -58.36)" fill="#fa09a7"/>
      </g>
      <g transform="matrix(1, 0, 0, 1, 95.14, -1.77)" filter="url(#Path_3010)">
        <path id="Path_3010-2" data-name="Path 3010" d="M280.331,133.245s.2-.056.625-.148l1.88-.4,7.237-1.513,26.361-5.427.195-.04.042.2c3.108,14.457,6.995,32.532,11.2,52.1l.052.244-.244.054-.269.059-35.629,7.847-.225.049-.048-.225-8.128-38.132c-.973-4.627-1.746-8.295-2.279-10.83-.254-1.233-.452-2.19-.59-2.861-.061-.307-.108-.547-.144-.73a1.515,1.515,0,0,1-.038-.241,2.455,2.455,0,0,1,.07.261c.043.188.1.434.175.75.154.679.373,1.647.654,2.894.564,2.542,1.381,6.218,2.41,10.856,2.038,9.3,4.921,22.442,8.319,37.937l-.274-.175,35.62-7.888.269-.06-.191.3-11.107-52.123.238.156-26.279,5.194-7.3,1.421-1.927.365C280.569,133.211,280.331,133.245,280.331,133.245Z" transform="translate(-152.06 -57.78)" fill="#fa09a7"/>
      </g>
      <g transform="matrix(1, 0, 0, 1, 95.14, -1.77)" filter="url(#Path_3011)">
        <path id="Path_3011-2" data-name="Path 3011" d="M311.765,122.624l10.4,6.675,1.087-2.266-10.286-5.886Z" transform="translate(-153.22 -57.61)" fill="#fa09a7"/>
      </g>
      <path id="Path_3012" data-name="Path 3012" d="M285.578,186.734l10.4,6.675,1.087-2.266-10.286-5.886Z" transform="translate(-57.106 -61.76)" fill="#455a64"/>
      <path id="Path_3013" data-name="Path 3013" d="M328.355,177.355a11.047,11.047,0,0,1-2.262.684c-1.411.36-3.368.824-5.535,1.306-2.025.45-3.875.837-5.258,1.1l.14-.227a13.228,13.228,0,0,1,.476,2.636,13.3,13.3,0,0,1-.836-2.545l-.051-.179.191-.048c1.365-.345,3.205-.779,5.23-1.229,2.167-.481,4.136-.891,5.567-1.162A11.068,11.068,0,0,1,328.355,177.355Z" transform="translate(-58.201 -61.466)" fill="#fa09a7"/>
      <g transform="matrix(1, 0, 0, 1, 95.14, -1.77)" filter="url(#Rectangle_209)">
        <rect id="Rectangle_209-2" data-name="Rectangle 209" width="35.809" height="49.964" transform="translate(130.32 39.19) rotate(-80.56)" fill="#ebebeb"/>
      </g>
      <path id="Path_3014" data-name="Path 3014" d="M301.336,90.19a3.121,3.121,0,0,1,.434.034l1.2.138,4.459.557-.154.116c.259-1.994.576-4.441.939-7.238l.024-.186.189.022,4.386.519.21.025-.025.211c-.261,2.24-.548,4.705-.85,7.3l-.2-.261,6.228.9-.281.217c.238-2.125.485-4.339.739-6.6.194-1.708.383-3.39.569-5.034l.069.2-7.757-7.92.291.028-9.037,6.121.075-.124c-.445,3.335-.806,6.048-1.064,7.983q-.195,1.378-.311,2.2a6.985,6.985,0,0,1-.134.79,5.33,5.33,0,0,1,.051-.733l.219-2.171c.215-1.965.517-4.722.888-8.111l.009-.078.066-.046,8.98-6.2.156-.108.135.136,7.787,7.89.084.084-.013.118c-.185,1.644-.373,3.326-.564,5.035-.256,2.26-.506,4.473-.746,6.6l-.029.254-.253-.038-6.225-.923-.228-.035.028-.227c.32-2.593.623-5.056.9-7.3l.184.236-4.381-.561.212-.163c-.4,2.791-.759,5.233-1.047,7.223l-.02.138-.134-.021-4.516-.717-1.163-.2A1.994,1.994,0,0,1,301.336,90.19Z" transform="translate(-57.692 -57.577)" fill="#fa09a7"/>
      <path id="Path_3015" data-name="Path 3015" d="M284.433,92.7s.017-.179.073-.545q.1-.588.262-1.629l1.041-6.266c.929-5.475,2.257-13.3,3.872-22.817l.033-.2.2.033,45.225,7.292.246.039-.038.246-.037.234c-1.727,11.045-3.37,21.545-4.846,30.983l-.036.229-.227-.038-33.084-5.417-9.38-1.565-2.472-.425-.628-.114a1.1,1.1,0,0,1-.2-.046,1.75,1.75,0,0,1,.234.024l.658.091,2.526.376,9.451,1.453,32.971,5.168-.263.191c1.463-9.44,3.092-19.942,4.8-30.989l.037-.234.208.286-45.209-7.39.23-.165c-1.693,9.449-3.085,17.22-4.059,22.656-.494,2.7-.881,4.821-1.15,6.293-.134.708-.238,1.259-.313,1.659C284.483,92.5,284.433,92.7,284.433,92.7Z" transform="translate(-57.063 -57.149)" fill="#fa09a7"/>
      <path id="Path_3016" data-name="Path 3016" d="M285.526,65.054l8.593-6.242-1.475-1.578-7.926,6.4Z" transform="translate(-57.074 -57)" fill="#fa09a7"/>
      <path id="Path_3017" data-name="Path 3017" d="M328.69,106.045l8.593-6.242-1.475-1.578-7.926,6.4Z" transform="translate(-58.679 -58.524)" fill="#fa09a7"/>
      <path id="Path_3018" data-name="Path 3018" d="M334.608,68.731A47.868,47.868,0,0,1,333.8,75.6c-.272,1.762-.544,3.364-.768,4.554l-.161-.214a9.835,9.835,0,0,1,2.256.469,9.9,9.9,0,0,1-2.3-.1l-.184-.017.023-.2c.145-1.2.369-2.811.64-4.573A47.906,47.906,0,0,1,334.608,68.731Z" transform="translate(-58.856 -57.428)" fill="#fa09a7"/>
      <path id="Path_3019" data-name="Path 3019" d="M192.344,277.192c-.169.948,0,149.774,0,149.774h-6.6V277.192Z" transform="translate(-53.394 -65.178)" fill="#455a64"/>
      <path id="Path_3020" data-name="Path 3020" d="M311.1,290.782c-.169.948,0,136.424,0,136.424h-6.6V290.782Z" transform="translate(-57.809 -65.684)" fill="#455a64"/>
      <path id="Path_3021" data-name="Path 3021" d="M345.609,264.965c-.169.948,0,161.281,0,161.281H339V264.965Z" transform="translate(-59.092 -64.724)" fill="#455a64"/>
      <path id="Path_3022" data-name="Path 3022" d="M343.145,219.131c.535-.894,0,48.441,0,48.441l-6.09.937,1.445-48.782Z" transform="translate(-59.02 -63.019)" fill="#455a64"/>
      <path id="Path_3023" data-name="Path 3023" d="M303.133,289.908c-.454,1.37,49.109-90.689,49.109-90.689l-.913-4.156L230.81,188.1l-45.854,87.2Z" transform="translate(-53.365 -61.866)" fill="#263238"/>
      <path id="Path_3024" data-name="Path 3024" d="M302.568,286.443c-.12-2.31,48.693-91.9,48.693-91.9L228.217,183.25l-45.1,88.293Z" transform="translate(-53.296 -61.685)" fill="#455a64"/>
      <g id="Group_3287" data-name="Group 3287" transform="translate(170.143 127.934)">
        <path id="Path_3025" data-name="Path 3025" d="M246.959,261.656l42.423,4.427,27.2-68.708-61.011-7.511L225,258.92Z" transform="translate(-224.997 -189.865)" fill="#f5f5f5"/>
        <g id="Group_3276" data-name="Group 3276" transform="translate(34.156 16.822)">
          <g id="Group_3265" data-name="Group 3265" transform="translate(3.155)">
            <path id="Path_3026" data-name="Path 3026" d="M287.352,208.049a6.333,6.333,0,0,1,1.006.27,10.13,10.13,0,0,1,2.658,1.368,11.636,11.636,0,0,1,3.224,3.46,10.513,10.513,0,0,1,1.555,6.046,11.857,11.857,0,0,1-2.8,7.022,9.688,9.688,0,0,1-3.377,2.614c-1.335.622-2.762,1.075-4.2,1.584-.719.253-1.443.515-2.16.812-.359.147-.712.309-1.063.479l-.518.271a2.342,2.342,0,0,0-.4.343,8.287,8.287,0,0,0-1.35,1.92c-.372.689-.577,1.5-.976,2.268a4.463,4.463,0,0,1-1.721,1.982,4.642,4.642,0,0,1-2.637.372l-5.2-.609c-.879-.115-1.749-.243-2.617-.413a5.394,5.394,0,0,1-2.482-1.072,1.539,1.539,0,0,1-.524-1.361,4.767,4.767,0,0,1,.477-1.26c.38-.768.789-1.5,1.191-2.233l1.188-2.166.281-.538.138-.269a.523.523,0,0,0,.05-.206,3.972,3.972,0,0,0-.16-1.111c-.395-1.529-.938-3.017-1.239-4.539a11.686,11.686,0,0,1,1.741-8.46,14.63,14.63,0,0,1,5.545-5.167,17.884,17.884,0,0,1,5.946-1.972,19.663,19.663,0,0,1,4.731,0c1.29.143,2.28.317,2.952.43l.762.144a1.035,1.035,0,0,1,.257.066,1.057,1.057,0,0,1-.265-.015l-.769-.1c-.675-.08-1.669-.223-2.955-.335a20.1,20.1,0,0,0-4.674.078,17.806,17.806,0,0,0-5.819,2.007,14.323,14.323,0,0,0-5.358,5.074,11.283,11.283,0,0,0-1.643,8.147c.3,1.481.842,2.947,1.252,4.517a4.262,4.262,0,0,1,.176,1.27,1.048,1.048,0,0,1-.1.378l-.139.273-.284.546-1.187,2.175c-.4.729-.8,1.463-1.175,2.214a4.49,4.49,0,0,0-.429,1.11,1.031,1.031,0,0,0,.372.929,4.966,4.966,0,0,0,2.241.946c.843.165,1.71.293,2.581.406l5.181.609a4.169,4.169,0,0,0,2.358-.31,3.986,3.986,0,0,0,1.518-1.769c.375-.708.581-1.516.984-2.269a8.76,8.76,0,0,1,1.439-2.032,2.691,2.691,0,0,1,.512-.426l.538-.279c.363-.173.727-.338,1.093-.487.733-.3,1.465-.561,2.189-.813,1.445-.5,2.868-.949,4.166-1.547a9.268,9.268,0,0,0,3.248-2.484,11.54,11.54,0,0,0,2.758-6.771A10.27,10.27,0,0,0,294,213.29a11.646,11.646,0,0,0-3.1-3.446,10.8,10.8,0,0,0-2.579-1.432C287.691,208.166,287.345,208.074,287.352,208.049Z" transform="translate(-263.749 -207.337)" fill="#e8505b"/>
          </g>
          <g id="Group_3266" data-name="Group 3266" transform="translate(0 27.941)">
            <path id="Path_3027" data-name="Path 3027" d="M278.9,236.884a7.14,7.14,0,0,1-.5,1.265c-.346.8-.865,1.954-1.457,3.394-.3.72-.606,1.512-.913,2.374a6.752,6.752,0,0,1-1.447,2.631,6.049,6.049,0,0,1-3,1.448,13.091,13.091,0,0,1-6.991-.4,7.989,7.989,0,0,1-2.911-1.588,3.564,3.564,0,0,1-1.209-2.771,6.35,6.35,0,0,1,.9-2.458l1.752-3.257a7.071,7.071,0,0,1,.7-1.163,7.066,7.066,0,0,1-.531,1.253c-.422.872-.963,1.99-1.61,3.329a6.187,6.187,0,0,0-.8,2.319A3.154,3.154,0,0,0,262,245.668a7.646,7.646,0,0,0,2.753,1.462,12.876,12.876,0,0,0,6.729.386,5.652,5.652,0,0,0,2.778-1.3,6.476,6.476,0,0,0,1.38-2.445c.326-.861.659-1.654.976-2.369.638-1.431,1.207-2.56,1.607-3.337A7.054,7.054,0,0,1,278.9,236.884Z" transform="translate(-260.472 -236.358)" fill="#e8505b"/>
          </g>
          <g id="Group_3267" data-name="Group 3267" transform="translate(1.216 31.948)">
            <path id="Path_3028" data-name="Path 3028" d="M277.14,241.384a10.342,10.342,0,0,1-2.268.061c-1.4-.026-3.322-.1-5.447-.207s-4.049-.236-5.44-.352a10.262,10.262,0,0,1-2.25-.294,10.094,10.094,0,0,1,2.262-.061c1.4.026,3.325.1,5.454.206s4.054.237,5.446.354A10.059,10.059,0,0,1,277.14,241.384Z" transform="translate(-261.735 -240.519)" fill="#e8505b"/>
          </g>
          <g id="Group_3268" data-name="Group 3268" transform="translate(0.365 35.618)">
            <path id="Path_3029" data-name="Path 3029" d="M275.625,244.6a54.615,54.615,0,0,1-7.387.233,54.459,54.459,0,0,1-7.387-.268,54.809,54.809,0,0,1,7.388-.233A54.659,54.659,0,0,1,275.625,244.6Z" transform="translate(-260.851 -244.33)" fill="#e8505b"/>
          </g>
          <g id="Group_3269" data-name="Group 3269" transform="translate(3.336 38.743)">
            <path id="Path_3030" data-name="Path 3030" d="M269.856,248.394c.056.018-.071.495-.663.958a3.935,3.935,0,0,1-2.717.666,4.275,4.275,0,0,1-1.534-.333,1.7,1.7,0,0,1-.925-.969,1.189,1.189,0,0,1,.016-.9c.1-.2.208-.256.23-.237a1.588,1.588,0,0,0,.081,1c.243.591,1.131.9,2.164.937a4.228,4.228,0,0,0,2.485-.46C269.561,248.728,269.789,248.354,269.856,248.394Z" transform="translate(-263.938 -247.576)" fill="#e8505b"/>
          </g>
          <g id="Group_3270" data-name="Group 3270" transform="translate(6.438 17.652)">
            <path id="Path_3031" data-name="Path 3031" d="M272.143,238.963a5.975,5.975,0,0,1,.561-1.12c.449-.786,1.014-1.776,1.689-2.957.746-1.27,1.61-2.738,2.56-4.353a5.891,5.891,0,0,0,1.128-2.574,1.973,1.973,0,0,0-1.884-1.78,3.494,3.494,0,0,0-2.661,1.143,15.591,15.591,0,0,0-1.766,2.334c-1.045,1.577-1.891,3.059-2.559,4.325s-1.158,2.319-1.493,3.048a6.742,6.742,0,0,1-.556,1.121,5.405,5.405,0,0,1,.376-1.2c.281-.755.727-1.835,1.357-3.134a43.473,43.473,0,0,1,2.489-4.416,15.4,15.4,0,0,1,1.806-2.43,3.963,3.963,0,0,1,3.046-1.295,2.456,2.456,0,0,1,2.337,2.272,3.188,3.188,0,0,1-.467,1.56c-.251.45-.511.852-.757,1.26l-2.653,4.3-1.826,2.875A5.916,5.916,0,0,1,272.143,238.963Z" transform="translate(-267.158 -225.671)" fill="#e8505b"/>
          </g>
          <g id="Group_3271" data-name="Group 3271" transform="translate(13.65 12.098)">
            <path id="Path_3032" data-name="Path 3032" d="M274.743,219.9a18.368,18.368,0,0,1,.573,6.024,18.366,18.366,0,0,1-.573-6.024Z" transform="translate(-274.65 -219.902)" fill="#e8505b"/>
          </g>
          <g id="Group_3272" data-name="Group 3272" transform="translate(13.066 11.201)">
            <path id="Path_3033" data-name="Path 3033" d="M274.27,219.314c.056.043.025.184.118.332s.251.225.405.077.09-.3-.071-.406-.288-.066-.331-.122c-.052-.039.086-.263.432-.218a.636.636,0,0,1,.479.353.693.693,0,0,1-.907.9.642.642,0,0,1-.349-.484C274.007,219.4,274.233,219.261,274.27,219.314Z" transform="translate(-274.043 -218.971)" fill="#e8505b"/>
          </g>
          <g id="Group_3273" data-name="Group 3273" transform="translate(17.318 14.532)">
            <path id="Path_3034" data-name="Path 3034" d="M284.766,222.439a19.834,19.834,0,0,1-6.3,4.265,54.3,54.3,0,0,1,6.3-4.265Z" transform="translate(-278.459 -222.43)" fill="#e8505b"/>
          </g>
          <g id="Group_3274" data-name="Group 3274" transform="translate(23.44 13.589)">
            <path id="Path_3035" data-name="Path 3035" d="M285.3,221.655c-.049-.039.153-.292.579-.173a.7.7,0,0,1,.477.578.79.79,0,0,1-.442.823.807.807,0,0,1-.913-.191.654.654,0,0,1-.1-.764.44.44,0,0,1,.467-.215c.123.033.154.1.137.13-.026.045-.245.055-.285.24a.313.313,0,0,0,.111.286.384.384,0,0,0,.377.057.362.362,0,0,0,.188-.324.345.345,0,0,0-.162-.3C285.53,221.666,285.331,221.717,285.3,221.655Z" transform="translate(-284.817 -221.45)" fill="#e8505b"/>
          </g>
          <g id="Group_3275" data-name="Group 3275" transform="translate(14.092 11.803)">
            <path id="Path_3036" data-name="Path 3036" d="M284.858,221.689a49.791,49.791,0,0,1-9.749-2.064,49.561,49.561,0,0,1,9.749,2.064Z" transform="translate(-275.109 -219.596)" fill="#e8505b"/>
          </g>
        </g>
        <g id="Group_3277" data-name="Group 3277" transform="translate(23.338 42.454)">
          <path id="Path_3037" data-name="Path 3037" d="M253.1,233.992c.053.127-.768.594-1.835,1.042a4.6,4.6,0,0,1-2.029.581c-.053-.128.768-.6,1.835-1.043A4.588,4.588,0,0,1,253.1,233.992Z" transform="translate(-249.236 -233.959)" fill="#263238"/>
        </g>
        <g id="Group_3286" data-name="Group 3286" transform="translate(17.427 12.728)">
          <g id="Group_3278" data-name="Group 3278" transform="translate(1.395)">
            <path id="Path_3038" data-name="Path 3038" d="M264.32,203.085c.127.056-4.2,10.152-9.656,22.548s-9.988,22.4-10.115,22.349,4.2-10.151,9.657-22.551S264.193,203.029,264.32,203.085Z" transform="translate(-244.546 -203.085)" fill="#263238"/>
          </g>
          <g id="Group_3279" data-name="Group 3279" transform="translate(20.466 1.557)">
            <path id="Path_3039" data-name="Path 3039" d="M285.154,204.7c.126.056-4.427,10.674-10.169,23.713s-10.5,23.569-10.629,23.514,4.426-10.672,10.17-23.716S285.027,204.646,285.154,204.7Z" transform="translate(-264.353 -204.702)" fill="#263238"/>
          </g>
          <g id="Group_3280" data-name="Group 3280" transform="translate(0 42.283)">
            <path id="Path_3040" data-name="Path 3040" d="M278,251.389c-.016.137-7.846-.731-17.484-1.938s-17.442-2.3-17.424-2.435,7.844.73,17.486,1.938S278.022,251.251,278,251.389Z" transform="translate(-243.097 -247.001)" fill="#263238"/>
          </g>
          <g id="Group_3281" data-name="Group 3281" transform="translate(5.408 30.299)">
            <path id="Path_3041" data-name="Path 3041" d="M283.623,238.941a7.316,7.316,0,0,1-1.385-.075l-3.75-.389c-3.165-.35-7.531-.869-12.35-1.473s-9.181-1.178-12.335-1.619l-3.73-.548a7.365,7.365,0,0,1-1.36-.268,7.244,7.244,0,0,1,1.384.074l3.75.39c3.164.35,7.531.869,12.352,1.473s9.18,1.178,12.333,1.618l3.73.548A7.451,7.451,0,0,1,283.623,238.941Z" transform="translate(-248.714 -234.554)" fill="#263238"/>
          </g>
          <g id="Group_3282" data-name="Group 3282" transform="translate(18.799 1.543)">
            <path id="Path_3042" data-name="Path 3042" d="M297.531,209.075a7.415,7.415,0,0,1-1.384-.075l-3.751-.39c-3.164-.35-7.531-.869-12.35-1.473s-9.181-1.178-12.334-1.618l-3.731-.548a7.342,7.342,0,0,1-1.359-.269,7.311,7.311,0,0,1,1.384.075l3.75.389c3.165.351,7.532.869,12.353,1.474s9.179,1.178,12.332,1.618l3.731.548A7.244,7.244,0,0,1,297.531,209.075Z" transform="translate(-262.622 -204.687)" fill="#263238"/>
          </g>
          <g id="Group_3283" data-name="Group 3283" transform="translate(19.154 0.652)">
            <path id="Path_3043" data-name="Path 3043" d="M266.162,203.788c.068.12-.584.621-1.459,1.117s-1.639.8-1.707.681.585-.62,1.46-1.117S266.093,203.668,266.162,203.788Z" transform="translate(-262.991 -203.762)" fill="#263238"/>
          </g>
          <g id="Group_3284" data-name="Group 3284" transform="translate(0.199 41.576)">
            <path id="Path_3044" data-name="Path 3044" d="M247.808,246.294a12.1,12.1,0,0,1-4.5,1.922,12.055,12.055,0,0,1,4.5-1.922Z" transform="translate(-243.304 -246.266)" fill="#263238"/>
          </g>
          <g id="Group_3285" data-name="Group 3285" transform="translate(20.896 43.96)">
            <path id="Path_3045" data-name="Path 3045" d="M266.617,250.777a6.548,6.548,0,0,1,.242-1.6l.178.277c-.445-.044-.966-.107-1.518-.187l.275-.173-.006.018c-.174.557-.35,1.075-.508,1.511l-.175-.278a6.426,6.426,0,0,1,1.513.431c.057.067-.541.089-1.573,0l-.244-.022.067-.256c.117-.448.268-.973.442-1.532l0-.017.064-.2.211.03c.554.081,1.071.168,1.509.251l.257.05-.079.227C266.929,250.3,266.655,250.858,266.617,250.777Z" transform="translate(-264.8 -248.742)" fill="#263238"/>
          </g>
        </g>
      </g>
      <path id="Path_3046" data-name="Path 3046" d="M307.7,292.711l49.109-29.206H323.638Z" transform="translate(-57.928 -64.669)" fill="#263238"/>
      <path id="Path_3047" data-name="Path 3047" d="M309.782,193.829,320.507,207l2.051-3.967-8.437-10.5Z" transform="translate(-58.006 -62.031)" fill="#fa09a7"/>
      <path id="Path_3048" data-name="Path 3048" d="M357.02,263.281V258.1L327,257.462l-13.515,24.945Z" transform="translate(-58.144 -64.445)" fill="#263238"/>
      <g id="Group_3289" data-name="Group 3289" transform="translate(129.496 272.51)">
        <rect id="Rectangle_210" data-name="Rectangle 210" width="5.279" height="94.421" transform="translate(33.985 29.302)" fill="#455a64"/>
        <path id="Path_3049" data-name="Path 3049" d="M260.964,362.142c0,6.954-17.425,12.592-38.92,12.592s-38.92-5.637-38.92-12.592c0-2.178-1.007-6.758.427-11.121,2.4-7.289,23.731-1.471,38.494-1.471,15.848,0,35.829-2.927,38.359,4.129C261.535,356.84,260.964,360.315,260.964,362.142Z" transform="translate(-182.78 -340.297)" fill="#263238"/>
        <ellipse id="Ellipse_176" data-name="Ellipse 176" cx="38.92" cy="12.592" rx="38.92" ry="12.592" transform="translate(0.344 0)" fill="#455a64"/>
        <path id="Path_3050" data-name="Path 3050" d="M223.456,419.205s29.5-2.014,30.848,39.107H249.53s2.406-33.749-26.074-34.716v-3.651" transform="translate(-184.292 -342.968)" fill="#455a64"/>
        <path id="Path_3051" data-name="Path 3051" d="M218.612,419.205s-29.5-2.014-30.848,39.107h4.774s-2.406-33.749,26.074-34.716v-3.651" transform="translate(-182.965 -342.968)" fill="#455a64"/>
      </g>
      <rect id="Rectangle_211" data-name="Rectangle 211" width="46.59" height="5.386" transform="translate(188.604 144.454) rotate(-7.475)" fill="#fa09a7"/>
      <g id="Group_3342" data-name="Group 3342" transform="translate(183.051 329.522)">
        <g id="Group_3294" data-name="Group 3294" transform="translate(0.051)">
          <g id="Group_3291" data-name="Group 3291">
            <g id="Group_3290" data-name="Group 3290">
              <path id="Path_3052" data-name="Path 3052" d="M258.214,417.151l4.491-9.389-17.533-8.524L238.456,412.9l1.053.6c4.707,2.62,24.12,12.993,27.832,13.585C271.481,427.748,258.214,417.151,258.214,417.151Z" transform="translate(-238.456 -399.238)" fill="#e8505b"/>
            </g>
          </g>
          <g id="Group_3293" data-name="Group 3293" transform="translate(0.14 8.527)" opacity="0.3">
            <g id="Group_3292" data-name="Group 3292">
              <path id="Path_3053" data-name="Path 3053" d="M244.885,416.187a6.757,6.757,0,0,0-.42-4.826,6.562,6.562,0,0,0-3.479-3.267l-2.386,4.9Z" transform="translate(-238.601 -408.094)" fill="#fff"/>
            </g>
          </g>
        </g>
        <g id="Group_3296" data-name="Group 3296" transform="translate(0.051 13.289)">
          <g id="Group_3295" data-name="Group 3295">
            <path id="Path_3054" data-name="Path 3054" d="M264.57,423.1s4.49,4.045,3.42,4.588-21.082-9.2-29.534-14.272l.219-.377L261.921,424.6S263.529,422.648,264.57,423.1Z" transform="translate(-238.456 -413.04)" fill="#fff" opacity="0.3"/>
          </g>
        </g>
        <g id="Group_3299" data-name="Group 3299" transform="translate(0 13.143)">
          <g id="Group_3298" data-name="Group 3298">
            <g id="Group_3297" data-name="Group 3297">
              <path id="Path_3055" data-name="Path 3055" d="M238.4,412.889a1.728,1.728,0,0,0,.285.18l.841.473,3.119,1.689c2.644,1.407,6.322,3.3,10.428,5.306s7.867,3.736,10.6,4.954l3.25,1.418.891.371a1.729,1.729,0,0,0,.317.115,1.793,1.793,0,0,0-.3-.158l-.872-.411-3.219-1.487c-2.717-1.256-6.461-3.012-10.568-5.013s-7.792-3.874-10.454-5.243l-3.153-1.621-.861-.434A1.849,1.849,0,0,0,238.4,412.889Z" transform="translate(-238.403 -412.888)" fill="#263238"/>
            </g>
          </g>
        </g>
        <g id="Group_3302" data-name="Group 3302" transform="translate(23.373 23.171)">
          <g id="Group_3301" data-name="Group 3301">
            <g id="Group_3300" data-name="Group 3300">
              <path id="Path_3056" data-name="Path 3056" d="M262.685,425.257a5.143,5.143,0,0,1,3.016-1.922,3.147,3.147,0,0,0-3.016,1.922Z" transform="translate(-262.678 -423.303)" fill="#263238"/>
            </g>
          </g>
        </g>
        <g id="Group_3305" data-name="Group 3305" transform="translate(19.482 18.963)">
          <g id="Group_3304" data-name="Group 3304">
            <g id="Group_3303" data-name="Group 3303">
              <path id="Path_3057" data-name="Path 3057" d="M258.64,419.952c.035.056.428-.125.88-.4s.79-.549.757-.6-.428.125-.88.4S258.606,419.9,258.64,419.952Z" transform="translate(-258.638 -418.933)" fill="#263238"/>
            </g>
          </g>
        </g>
        <g id="Group_3308" data-name="Group 3308" transform="translate(18.431 18.062)">
          <g id="Group_3307" data-name="Group 3307">
            <g id="Group_3306" data-name="Group 3306">
              <path id="Path_3058" data-name="Path 3058" d="M257.546,418.476c.018.063.384.013.818-.112s.771-.276.753-.339-.384-.013-.818.112S257.528,418.413,257.546,418.476Z" transform="translate(-257.545 -417.998)" fill="#263238"/>
            </g>
          </g>
        </g>
        <g id="Group_3311" data-name="Group 3311" transform="translate(18.337 16.436)">
          <g id="Group_3310" data-name="Group 3310">
            <g id="Group_3309" data-name="Group 3309">
              <path id="Path_3059" data-name="Path 3059" d="M257.45,416.322c-.029.058.355.31.858.561a2.291,2.291,0,0,0,.964.35c.029-.058-.354-.309-.858-.561A2.281,2.281,0,0,0,257.45,416.322Z" transform="translate(-257.448 -416.309)" fill="#263238"/>
            </g>
          </g>
        </g>
        <g id="Group_3314" data-name="Group 3314" transform="translate(18.596 15.127)">
          <g id="Group_3313" data-name="Group 3313">
            <g id="Group_3312" data-name="Group 3312">
              <path id="Path_3060" data-name="Path 3060" d="M257.721,414.954c-.045.043.3.461.875.794a1.991,1.991,0,0,0,1.123.373,83.848,83.848,0,0,1-2-1.167Z" transform="translate(-257.717 -414.949)" fill="#263238"/>
            </g>
          </g>
        </g>
        <g id="Group_3317" data-name="Group 3317" transform="translate(20.824 18.024)">
          <g id="Group_3316" data-name="Group 3316">
            <g id="Group_3315" data-name="Group 3315">
              <path id="Path_3061" data-name="Path 3061" d="M260.031,418.675a3.618,3.618,0,0,0,1.13.542,7.291,7.291,0,0,0,1.328.319,3.62,3.62,0,0,0,.824.052.676.676,0,0,0,.449-.215.491.491,0,0,0,.048-.533,2.3,2.3,0,0,0-2.848-.639,2.255,2.255,0,0,0-.734.573c-.139.17-.189.282-.177.29a3.524,3.524,0,0,1,.981-.711,2.253,2.253,0,0,1,1.266-.157,1.942,1.942,0,0,1,1.3.745c.115.219-.058.4-.314.418a3.787,3.787,0,0,1-.765-.039,8.64,8.64,0,0,1-1.307-.263C260.478,418.849,260.047,418.641,260.031,418.675Z" transform="translate(-260.031 -417.958)" fill="#263238"/>
            </g>
          </g>
        </g>
        <g id="Group_3320" data-name="Group 3320" transform="translate(20.37 16.196)">
          <g id="Group_3319" data-name="Group 3319">
            <g id="Group_3318" data-name="Group 3318">
              <path id="Path_3062" data-name="Path 3062" d="M260.278,418.8a1.238,1.238,0,0,0,.51-.719,2.055,2.055,0,0,0,.093-.972,1.257,1.257,0,0,0-.659-1.03.5.5,0,0,0-.6.35,1.369,1.369,0,0,0-.054.6,3.792,3.792,0,0,0,.2.941,1.789,1.789,0,0,0,.423.769c.033-.017-.126-.311-.263-.819a4.394,4.394,0,0,1-.142-.9c-.039-.314.064-.792.371-.706.3.11.447.53.509.839a2.062,2.062,0,0,1-.039.888A4.6,4.6,0,0,1,260.278,418.8Z" transform="translate(-259.56 -416.06)" fill="#263238"/>
            </g>
          </g>
        </g>
        <g id="Group_3323" data-name="Group 3323" transform="translate(2.693 8.518)">
          <g id="Group_3322" data-name="Group 3322">
            <g id="Group_3321" data-name="Group 3321">
              <path id="Path_3063" data-name="Path 3063" d="M241.2,408.089c-.015.041.525.2,1.272.676a6.106,6.106,0,0,1,2.81,5.894c-.1.882-.319,1.4-.276,1.413a1.118,1.118,0,0,0,.172-.353,5.138,5.138,0,0,0,.27-1.038,5.927,5.927,0,0,0-2.887-6.059,5.174,5.174,0,0,0-.976-.445A1.15,1.15,0,0,0,241.2,408.089Z" transform="translate(-241.2 -408.085)" fill="#263238"/>
            </g>
          </g>
        </g>
        <g id="Group_3326" data-name="Group 3326" transform="translate(4.46 2.112)">
          <g id="Group_3325" data-name="Group 3325">
            <g id="Group_3324" data-name="Group 3324">
              <path id="Path_3064" data-name="Path 3064" d="M246.636,401.432a67.953,67.953,0,0,0-3.6,7.159,68.182,68.182,0,0,0,3.6-7.159Z" transform="translate(-243.035 -401.432)" fill="#263238"/>
            </g>
          </g>
        </g>
        <g id="Group_3329" data-name="Group 3329" transform="translate(9.513 15.981)">
          <g id="Group_3328" data-name="Group 3328">
            <g id="Group_3327" data-name="Group 3327">
              <path id="Path_3065" data-name="Path 3065" d="M248.284,415.84a16.027,16.027,0,0,0,5.1,2.542c.024-.064-1.154-.551-2.558-1.254S248.321,415.781,248.284,415.84Z" transform="translate(-248.283 -415.836)" fill="#263238"/>
            </g>
          </g>
        </g>
        <g id="Group_3332" data-name="Group 3332" transform="translate(6.017 14.305)">
          <g id="Group_3331" data-name="Group 3331">
            <g id="Group_3330" data-name="Group 3330">
              <path id="Path_3066" data-name="Path 3066" d="M244.716,414.1c-.064.022-.024.288-.036.608s-.06.583,0,.609.225-.233.235-.6S244.774,414.073,244.716,414.1Z" transform="translate(-244.653 -414.095)" fill="#263238"/>
            </g>
          </g>
        </g>
        <g id="Group_3335" data-name="Group 3335" transform="translate(5.536 12.064)">
          <g id="Group_3334" data-name="Group 3334">
            <g id="Group_3333" data-name="Group 3333">
              <path id="Path_3067" data-name="Path 3067" d="M244.187,411.769c-.062.021-.038.258.055.531s.216.476.278.454.038-.258-.055-.53S244.248,411.748,244.187,411.769Z" transform="translate(-244.153 -411.767)" fill="#263238"/>
            </g>
          </g>
        </g>
        <g id="Group_3338" data-name="Group 3338" transform="translate(4.075 10.398)">
          <g id="Group_3337" data-name="Group 3337">
            <g id="Group_3336" data-name="Group 3336">
              <path id="Path_3068" data-name="Path 3068" d="M242.636,410.067c-.016.065.218.176.431.393s.332.443.4.426.038-.33-.231-.594S242.645,410,242.636,410.067Z" transform="translate(-242.635 -410.037)" fill="#263238"/>
            </g>
          </g>
        </g>
        <g id="Group_3341" data-name="Group 3341" transform="translate(2.91 9.424)">
          <g id="Group_3340" data-name="Group 3340">
            <g id="Group_3339" data-name="Group 3339">
              <path id="Path_3069" data-name="Path 3069" d="M241.441,409.039c-.047.044.01.183.127.311s.253.194.3.149-.009-.183-.127-.31S241.49,409,241.441,409.039Z" transform="translate(-241.425 -409.026)" fill="#263238"/>
            </g>
          </g>
        </g>
      </g>
      <g id="Group_3397" data-name="Group 3397" transform="translate(184.308 337.826)">
        <g id="Group_3396" data-name="Group 3396" transform="translate(0 0)">
          <g id="Group_3348" data-name="Group 3348">
            <g id="Group_3345" data-name="Group 3345">
              <g id="Group_3344" data-name="Group 3344">
                <path id="Path_3070" data-name="Path 3070" d="M258.773,427.279l5.639-8.747L248.1,407.863l-8.386,12.71.969.726c4.339,3.195,22.289,15.934,25.9,16.989C270.6,439.465,258.773,427.279,258.773,427.279Z" transform="translate(-239.709 -407.863)" fill="#e8505b"/>
              </g>
            </g>
            <g id="Group_3347" data-name="Group 3347" transform="translate(0.168 7.93)" opacity="0.3">
              <g id="Group_3346" data-name="Group 3346">
                <path id="Path_3071" data-name="Path 3071" d="M245.716,424.619a6.76,6.76,0,0,0,.192-4.84,6.569,6.569,0,0,0-3.038-3.68l-2.986,4.558Z" transform="translate(-239.884 -416.099)" fill="#fff"/>
              </g>
            </g>
          </g>
          <g id="Group_3350" data-name="Group 3350" transform="translate(0 12.363)">
            <g id="Group_3349" data-name="Group 3349">
              <path id="Path_3072" data-name="Path 3072" d="M264.392,433.952s3.943,4.578,2.813,4.983-19.752-11.788-27.5-17.884l.265-.348,21.6,14.406S263.416,433.371,264.392,433.952Z" transform="translate(-239.709 -420.703)" fill="#fff" opacity="0.3"/>
            </g>
          </g>
          <g id="Group_3353" data-name="Group 3353" transform="translate(0.014 12.184)">
            <g id="Group_3352" data-name="Group 3352">
              <g id="Group_3351" data-name="Group 3351">
                <path id="Path_3073" data-name="Path 3073" d="M239.724,420.518a1.866,1.866,0,0,0,.261.215l.773.576,2.882,2.068c2.445,1.729,5.854,4.074,9.675,6.58s7.332,4.7,9.893,6.252l3.044,1.818.837.479a1.783,1.783,0,0,0,.3.154,1.871,1.871,0,0,0-.275-.195l-.814-.518-3-1.881c-2.537-1.589-6.03-3.8-9.852-6.306s-7.24-4.826-9.709-6.519l-2.923-2.007-.8-.539A1.87,1.87,0,0,0,239.724,420.518Z" transform="translate(-239.724 -420.518)" fill="#263238"/>
              </g>
            </g>
          </g>
          <g id="Group_3356" data-name="Group 3356" transform="translate(21.691 25.424)">
            <g id="Group_3355" data-name="Group 3355">
              <g id="Group_3354" data-name="Group 3354">
                <path id="Path_3074" data-name="Path 3074" d="M262.242,435.863a8.058,8.058,0,0,1,1.48-1.052,7.929,7.929,0,0,1,1.754-.473,3.149,3.149,0,0,0-3.234,1.525Z" transform="translate(-262.237 -434.269)" fill="#263238"/>
              </g>
            </g>
          </g>
          <g id="Group_3359" data-name="Group 3359" transform="translate(18.48 20.619)">
            <g id="Group_3358" data-name="Group 3358">
              <g id="Group_3357" data-name="Group 3357">
                <path id="Path_3075" data-name="Path 3075" d="M258.9,430.086c.027.06.44-.07.923-.289s.854-.445.827-.5-.441.07-.924.289S258.877,430.026,258.9,430.086Z" transform="translate(-258.903 -429.278)" fill="#263238"/>
              </g>
            </g>
          </g>
          <g id="Group_3362" data-name="Group 3362" transform="translate(17.617 19.569)">
            <g id="Group_3361" data-name="Group 3361">
              <g id="Group_3360" data-name="Group 3360">
                <path id="Path_3076" data-name="Path 3076" d="M258.007,428.483c.01.065.379.061.826-.008s.8-.176.79-.241-.38-.061-.826.008S258,428.418,258.007,428.483Z" transform="translate(-258.007 -428.188)" fill="#263238"/>
              </g>
            </g>
          </g>
          <g id="Group_3365" data-name="Group 3365" transform="translate(17.788 17.769)">
            <g id="Group_3364" data-name="Group 3364">
              <g id="Group_3363" data-name="Group 3363">
                <path id="Path_3077" data-name="Path 3077" d="M258.187,426.327c-.037.055.312.352.78.665s.875.524.912.47-.313-.352-.781-.665S258.223,426.273,258.187,426.327Z" transform="translate(-258.184 -426.318)" fill="#263238"/>
              </g>
            </g>
          </g>
          <g id="Group_3368" data-name="Group 3368" transform="translate(18.209 16.501)">
            <g id="Group_3367" data-name="Group 3367">
              <g id="Group_3366" data-name="Group 3366">
                <path id="Path_3078" data-name="Path 3078" d="M258.627,425c-.05.037.243.5.768.9a1.978,1.978,0,0,0,1.067.511c.028-.063-.425-.313-.922-.7S258.68,424.962,258.627,425Z" transform="translate(-258.621 -425.001)" fill="#263238"/>
              </g>
            </g>
          </g>
          <g id="Group_3371" data-name="Group 3371" transform="translate(19.936 19.884)">
            <g id="Group_3370" data-name="Group 3370">
              <g id="Group_3369" data-name="Group 3369">
                <path id="Path_3079" data-name="Path 3079" d="M260.445,429a3.592,3.592,0,0,0,1.052.68,7.294,7.294,0,0,0,1.277.484,3.571,3.571,0,0,0,.812.155.676.676,0,0,0,.472-.155.492.492,0,0,0,.116-.523,2.3,2.3,0,0,0-2.745-.995,2.239,2.239,0,0,0-.8.476c-.16.152-.223.256-.213.266a3.538,3.538,0,0,1,1.063-.582,2.258,2.258,0,0,1,1.276,0,1.942,1.942,0,0,1,1.194.9c.086.232-.108.385-.365.375a3.775,3.775,0,0,1-.754-.134,8.7,8.7,0,0,1-1.263-.426C260.867,429.226,260.466,428.965,260.445,429Z" transform="translate(-260.415 -428.514)" fill="#263238"/>
              </g>
            </g>
          </g>
          <g id="Group_3374" data-name="Group 3374" transform="translate(19.721 17.848)">
            <g id="Group_3373" data-name="Group 3373">
              <g id="Group_3372" data-name="Group 3372">
                <path id="Path_3080" data-name="Path 3080" d="M260.674,429.148c.007.021.337-.145.6-.649a2.048,2.048,0,0,0,.215-.953,1.256,1.256,0,0,0-.523-1.105.5.5,0,0,0-.639.272,1.374,1.374,0,0,0-.129.585,3.8,3.8,0,0,0,.08.958,1.787,1.787,0,0,0,.323.816c.035-.013-.086-.324-.158-.845a4.436,4.436,0,0,1-.027-.917c0-.316.163-.778.457-.654.279.147.376.583.4.9a2.058,2.058,0,0,1-.149.875A4.616,4.616,0,0,1,260.674,429.148Z" transform="translate(-260.191 -426.4)" fill="#263238"/>
              </g>
            </g>
          </g>
          <g id="Group_3377" data-name="Group 3377" transform="translate(3.269 7.938)">
            <g id="Group_3376" data-name="Group 3376">
              <g id="Group_3375" data-name="Group 3375">
                <path id="Path_3081" data-name="Path 3081" d="M243.1,416.11c-.021.039.5.261,1.177.831a6.107,6.107,0,0,1,2.043,6.2c-.209.863-.493,1.348-.453,1.367a1.127,1.127,0,0,0,.216-.328,5.148,5.148,0,0,0,.4-1,5.923,5.923,0,0,0-2.1-6.375,5.193,5.193,0,0,0-.912-.564A1.12,1.12,0,0,0,243.1,416.11Z" transform="translate(-243.104 -416.107)" fill="#263238"/>
              </g>
            </g>
          </g>
          <g id="Group_3380" data-name="Group 3380" transform="translate(4.928 2.258)">
            <g id="Group_3379" data-name="Group 3379">
              <g id="Group_3378" data-name="Group 3378">
                <path id="Path_3082" data-name="Path 3082" d="M249.3,410.209a68.016,68.016,0,0,0-4.473,6.647,67.74,67.74,0,0,0,4.473-6.647Z" transform="translate(-244.828 -410.208)" fill="#263238"/>
              </g>
            </g>
          </g>
          <g id="Group_3383" data-name="Group 3383" transform="translate(9.093 16.201)">
            <g id="Group_3382" data-name="Group 3382">
              <g id="Group_3381" data-name="Group 3381">
                <path id="Path_3083" data-name="Path 3083" d="M249.154,424.692a15.97,15.97,0,0,0,4.737,3.166c.032-.061-1.076-.692-2.38-1.566S249.2,424.639,249.154,424.692Z" transform="translate(-249.153 -424.689)" fill="#263238"/>
              </g>
            </g>
          </g>
          <g id="Group_3386" data-name="Group 3386" transform="translate(5.694 14.106)">
            <g id="Group_3385" data-name="Group 3385">
              <g id="Group_3384" data-name="Group 3384">
                <path id="Path_3084" data-name="Path 3084" d="M245.829,422.514c-.066.014-.061.282-.112.6s-.134.571-.075.6.252-.2.308-.568S245.89,422.5,245.829,422.514Z" transform="translate(-245.623 -422.513)" fill="#263238"/>
              </g>
            </g>
          </g>
          <g id="Group_3389" data-name="Group 3389" transform="translate(5.624 11.817)">
            <g id="Group_3388" data-name="Group 3388">
              <g id="Group_3387" data-name="Group 3387">
                <path id="Path_3085" data-name="Path 3085" d="M245.6,420.137c-.064.013-.07.252-.013.533s.155.5.219.486.07-.251.013-.533S245.667,420.124,245.6,420.137Z" transform="translate(-245.55 -420.136)" fill="#263238"/>
              </g>
            </g>
          </g>
          <g id="Group_3392" data-name="Group 3392" transform="translate(4.399 9.983)">
            <g id="Group_3391" data-name="Group 3391">
              <g id="Group_3390" data-name="Group 3390">
                <path id="Path_3086" data-name="Path 3086" d="M244.28,418.253c-.025.063.194.2.377.444s.273.481.341.473.078-.324-.155-.618S244.3,418.192,244.28,418.253Z" transform="translate(-244.278 -418.232)" fill="#263238"/>
              </g>
            </g>
          </g>
          <g id="Group_3395" data-name="Group 3395" transform="translate(3.362 8.869)">
            <g id="Group_3394" data-name="Group 3394">
              <g id="Group_3393" data-name="Group 3393">
                <path id="Path_3087" data-name="Path 3087" d="M243.224,417.084c-.053.038-.013.183.088.323s.225.224.278.187.014-.183-.087-.324S243.277,417.045,243.224,417.084Z" transform="translate(-243.201 -417.074)" fill="#263238"/>
              </g>
            </g>
          </g>
        </g>
      </g>
      <path id="Path_3088" data-name="Path 3088" d="M243.889,414.657l16.46,10.6,1-1.551-16.46-10.914Z" transform="translate(-55.556 -70.22)" opacity="0.2"/>
      <path id="Path_3089" data-name="Path 3089" d="M260.673,339.51l-19.243,63.235,17.066,6.63L283.221,352.6Z" transform="translate(-55.465 -67.495)" fill="#263238"/>
      <path id="Path_3090" data-name="Path 3090" d="M219.772,353.816s66.8-16.646,68.623-17.448c0,0,7.447-21.576-8.181-29.746-14.873-7.775-64.3,18.541-64.3,18.541Z" transform="translate(-54.516 -66.219)" fill="#263238"/>
      <path id="Path_3091" data-name="Path 3091" d="M197.49,350.123c7.627,1.167,16.213,3.845,21.2,4.3,13.5,1.231,19.9-4.285,31.112-1.284.059-8.18-.549-23.351-.549-23.351l-62.366-8.271S188.03,343.252,197.49,350.123Z" transform="translate(-53.437 -66.826)" fill="#263238"/>
      <path id="Path_3092" data-name="Path 3092" d="M313.138,349.114l-.038-.01c1.8-3.35,3.139-7.335,2.387-11.138-1.5-7.564-10.539-8.388-19.99-9.527-21.225-2.558-48.781-6.194-48.781-6.194l5.163,30.92,25.137,1.824L242.649,408.01l24.506,16.432L311.8,351.3q.413-.643.814-1.333Z" transform="translate(-55.51 -66.853)" fill="#263238"/>
      <g id="Group_3399" data-name="Group 3399" transform="translate(194.658 256.346)">
        <path id="Path_3093" data-name="Path 3093" d="M293.866,328.245a11.18,11.18,0,0,1-1.719-.055c-1.105-.065-2.7-.2-4.67-.383-3.939-.371-9.366-1.023-15.347-1.809s-11.4-1.494-15.322-1.955l-4.649-.541a11.423,11.423,0,0,1-1.7-.249,11.2,11.2,0,0,1,1.719.055c1.1.065,2.7.2,4.67.383,3.939.37,9.366,1.022,15.349,1.809s11.394,1.494,15.319,1.955l4.649.541A11.122,11.122,0,0,1,293.866,328.245Z" transform="translate(-250.458 -323.236)" fill="#455a64"/>
      </g>
      <g id="Group_3400" data-name="Group 3400" transform="translate(221.262 258.325)">
        <path id="Path_3094" data-name="Path 3094" d="M279.194,325.343c.072.119-.134.374-.405.633s-.539.449-.656.37-.007-.434.311-.734S279.125,325.225,279.194,325.343Z" transform="translate(-278.089 -325.292)" fill="#455a64"/>
      </g>
      <g id="Group_3401" data-name="Group 3401" transform="translate(188.951 285.361)">
        <path id="Path_3095" data-name="Path 3095" d="M278.26,353.372a3.019,3.019,0,0,1-.323.551l-1.008,1.524-3.753,5.572c-3.166,4.705-7.5,11.233-12.155,18.526s-8.756,13.973-11.692,18.827l-3.475,5.748-.958,1.556a3.09,3.09,0,0,1-.363.525,3,3,0,0,1,.275-.576c.225-.412.517-.944.877-1.6.768-1.388,1.908-3.381,3.339-5.832,2.859-4.9,6.913-11.614,11.573-18.915s9.042-13.8,12.285-18.456c1.621-2.329,2.95-4.2,3.886-5.483l1.085-1.47A3.017,3.017,0,0,1,278.26,353.372Z" transform="translate(-244.531 -353.372)" fill="#455a64"/>
      </g>
      <g id="Group_3402" data-name="Group 3402" transform="translate(197.977 286.407)">
        <path id="Path_3096" data-name="Path 3096" d="M276.7,356.134a22.812,22.812,0,0,1-3.353,0c-2.068-.062-4.925-.159-8.079-.345s-6.007-.465-8.061-.736c-1.027-.136-1.856-.259-2.426-.364a3.171,3.171,0,0,1-.879-.209,25.226,25.226,0,0,1,3.343.22c2.059.18,4.9.4,8.053.587s6,.339,8.067.491A21.589,21.589,0,0,1,276.7,356.134Z" transform="translate(-253.905 -354.458)" fill="#455a64"/>
      </g>
      <g id="Group_3404" data-name="Group 3404" transform="translate(233.922 164.736)">
        <path id="Path_3097" data-name="Path 3097" d="M297.241,228.939s1.118-1.489,2.4-.528,6.919,5.514,6.919,5.514l3.857,10.439-5.481,10-9.459-4.057a44.642,44.642,0,0,1,2.06-6.856s-6.347-4.909-4.371-6.843c0,0,.528-.947,3.217,1.278l2.689,2.225s-4.714-6.586-4.423-8.08h0a1.854,1.854,0,0,1,2.337-1.637h0Z" transform="translate(-291.295 -228.088)" fill="#ffbe9d"/>
        <path id="Path_3098" data-name="Path 3098" d="M291.238,231.676l3.906.991,16.944,14.979a1.494,1.494,0,0,1,.145,2.091h0a1.494,1.494,0,0,1-2.111.159l-16.886-14.564Z" transform="translate(-291.238 -228.222)" fill="#e8505b"/>
        <path id="Path_3099" data-name="Path 3099" d="M310.545,250.2l1.86-2.35.634.634a1.476,1.476,0,0,1,.089,1.99h0a1.477,1.477,0,0,1-2.126.143Z" transform="translate(-291.956 -228.823)" fill="#fff" opacity="0.4"/>
        <path id="Path_3100" data-name="Path 3100" d="M291.908,232.772l.654-.768,2.659.675a.883.883,0,0,1,0,.9c-.254.339-.755.062-.755.062a1.051,1.051,0,0,1-.006.965c-.236.344-.833.194-.833.194a.5.5,0,0,1-.067.759l-.246-.212Z" transform="translate(-291.263 -228.234)" fill="#fff" opacity="0.4"/>
        <path id="Path_3101" data-name="Path 3101" d="M294.478,233.7l16.849,14.12-.882,1.114L293.64,234.86a.8.8,0,0,0,.855-.275A.88.88,0,0,0,294.478,233.7Z" transform="translate(-291.327 -228.297)" opacity="0.4"/>
        <path id="Path_3102" data-name="Path 3102" d="M296.2,247.671a37.457,37.457,0,0,0,1.8-4.694c.212-1.159-1.814-8.74,1.221-9.339l.983.456,2.516,12.186-5.031,4.842Z" transform="translate(-291.422 -228.295)" fill="#ffbe9d"/>
      </g>
      <g id="Group_3405" data-name="Group 3405" transform="translate(239.477 164.891)">
        <path id="Path_3103" data-name="Path 3103" d="M303.389,238.736c-.08.018-.249-.7-.772-1.762a9.9,9.9,0,0,0-2.819-3.533,11.316,11.316,0,0,1-2.029-1.655,2.757,2.757,0,0,1-.745-2.075,1.809,1.809,0,0,1,.746-1.287c.3-.2.516-.186.519-.161.013.04-.17.1-.4.314a1.734,1.734,0,0,0-.514,1.167,2.482,2.482,0,0,0,.74,1.738,12.8,12.8,0,0,0,1.98,1.558,8.987,8.987,0,0,1,2.843,3.789A4.225,4.225,0,0,1,303.389,238.736Z" transform="translate(-297.007 -228.249)" fill="#eb996e"/>
      </g>
      <g id="Group_3406" data-name="Group 3406" transform="translate(239.193 170.481)">
        <path id="Path_3104" data-name="Path 3104" d="M302.161,244.411a5.117,5.117,0,0,1-.248-.964c-.141-.621-.41-1.5-.708-2.61a15.129,15.129,0,0,1-.365-1.857c-.086-.676-.128-1.393-.242-2.125a6.9,6.9,0,0,0-.249-1.093,6.427,6.427,0,0,0-.427-1.049.323.323,0,0,0-.314-.159,1.583,1.583,0,0,0-.5.17,2.025,2.025,0,0,0-.8.809,4.477,4.477,0,0,0-.537,2.319,11.187,11.187,0,0,0,.286,2.3,9.281,9.281,0,0,1,.246,2.178,4.93,4.93,0,0,1-.51,1.862,7.473,7.473,0,0,0-.883,2.5,6.025,6.025,0,0,0,.05.971,1.511,1.511,0,0,1-.246-.979,6.789,6.789,0,0,1,.752-2.629,4.7,4.7,0,0,0,.421-1.738,9.231,9.231,0,0,0-.282-2.071,11.219,11.219,0,0,1-.325-2.394,4.9,4.9,0,0,1,.6-2.58,3.34,3.34,0,0,1,.422-.559,1.776,1.776,0,0,1,.58-.436,1.982,1.982,0,0,1,.693-.22.829.829,0,0,1,.747.367,6,6,0,0,1,.482,1.188,7.2,7.2,0,0,1,.251,1.173c.1.764.132,1.486.2,2.145a16.273,16.273,0,0,0,.3,1.823c.248,1.107.472,2.016.554,2.656A3.079,3.079,0,0,1,302.161,244.411Z" transform="translate(-296.713 -234.055)" fill="#eb996e"/>
      </g>
      <path id="Path_3105" data-name="Path 3105" d="M204.936,234.309l25.979-25.147,13.27,9.953L217.1,251.355Z" transform="translate(-54.108 -62.649)" fill="#e8505b"/>
      <path id="Path_3106" data-name="Path 3106" d="M204.936,234.309l25.979-25.147,13.27,9.953L217.1,251.355Z" transform="translate(-54.108 -62.649)" fill="#fa09a7" opacity="0.4"/>
      <g id="Group_3409" data-name="Group 3409" transform="translate(177.432 138.392)">
        <path id="Path_3107" data-name="Path 3107" d="M247.608,206.265l11.771-1.544c-.859-.728-3.661-2.625-10.631-3.835-8.766-1.522-16.181,8.43-16.181,8.43l10.766,8.148,4.014-4s6.222-.907,9.619-1.688a2.974,2.974,0,0,0,1.954-1.56l-.168.022C253.7,209.841,249.168,208.478,247.608,206.265Z" transform="translate(-232.567 -200.728)" fill="#ffbe9d"/>
        <g id="Group_3408" data-name="Group 3408" transform="translate(14.239 4.184)">
          <path id="Path_3108" data-name="Path 3108" d="M252.891,209.3a8.317,8.317,0,0,1-5.526-4.221c.121-.088,1.079,1.164,2.605,2.318S252.944,209.158,252.891,209.3Z" transform="translate(-247.355 -205.074)" fill="#eb996e"/>
        </g>
      </g>
      <path id="Path_3109" data-name="Path 3109" d="M204.053,179.708l-.141,45.942,19.71.941.569-11.174s7,1.389,8.808-5.113c1.153-4.153.866-36.249.866-36.249Z" transform="translate(-54.07 -61.343)" fill="#ffbe9d"/>
      <path id="Path_3110" data-name="Path 3110" d="M232.337,166.647c-6,1.942-7.443,2.589-10.13,2.806-2.579.207-20.946.221-22.612,10.517l-.122,1.26,0-.047c0,.047-3.938-1.588-2.9,5.533.539,3.716,2.062,7.146,3.479,11.226.97,6.047-2.48,7.556-5.317,9.556-.7.493-1.545,1.114-1.429,1.959.106.77.972,1.178,1.74,1.3a6.475,6.475,0,0,0,4.742-1.1,25.6,25.6,0,0,1-1.35,2.578,2.05,2.05,0,0,0,.514,2.6,2.242,2.242,0,0,0,1.572.071,7.965,7.965,0,0,0,4.125-2.475,1.75,1.75,0,0,0,.664,2.231,4.228,4.228,0,0,0,2.473.537c3.9-.065,8.592,0,12.185-3.993,3.32-3.69,4.109-6.062,4.463-11.178,0,0-3.917-.636-3.461-3.787.631-4.36,3.961-4.47,6.442-2.528l2.856-7.653s7.236-4.748,7.65-7.769S238.333,164.7,232.337,166.647Z" transform="translate(-53.675 -61.059)" fill="#263238"/>
      <g id="Group_3412" data-name="Group 3412" transform="translate(128.243 161.539)">
        <path id="Path_3111" data-name="Path 3111" d="M255.734,285.633c-5.929-7.26-11.432-13.768-11.432-13.768.254,9.488,1.237,17.716,1.237,17.716l2.82,29.378a8.622,8.622,0,0,1-6.581,9.2c-18.418,4.449-39.97,5.708-52.05-2.578a11.692,11.692,0,0,1-5-9.662V290.854l-3.172-33.638a54.333,54.333,0,0,1,1.434-15.77,21.93,21.93,0,0,1,19.782-15.628c6.655-.375,14.121-.931,20.8-1.045a35.1,35.1,0,0,1,21.824,7.135c9.839,7.471,17.267,24.623,24.22,35.553l19.037-22.96,15.738,10.052-21.5,31.735A17.888,17.888,0,0,1,255.734,285.633Z" transform="translate(-181.479 -224.768)" fill="#fa09a7"/>
      </g>
      <g id="Group_3413" data-name="Group 3413" transform="translate(142.561 176.172)">
        <path id="Path_3112" data-name="Path 3112" d="M196.366,248.551a42.233,42.233,0,0,1,3.305-8.584,42.386,42.386,0,0,1-3.305,8.584Z" transform="translate(-196.35 -239.966)" fill="#263238"/>
      </g>
      <g id="Group_3414" data-name="Group 3414" transform="translate(160.071 190.137)">
        <path id="Path_3113" data-name="Path 3113" d="M218.951,260.065a25.4,25.4,0,0,1-4.407-5.59,25.4,25.4,0,0,1,4.407,5.59Z" transform="translate(-214.536 -254.47)" fill="#263238"/>
      </g>
      <g id="Group_3415" data-name="Group 3415" transform="translate(171.484 177.779)">
        <path id="Path_3114" data-name="Path 3114" d="M232.2,241.666a18.693,18.693,0,0,1-5.813,1.86,18.691,18.691,0,0,1,5.813-1.86Z" transform="translate(-226.389 -241.635)" fill="#263238"/>
      </g>
      <g id="Group_3416" data-name="Group 3416" transform="translate(144.765 201.566)">
        <path id="Path_3115" data-name="Path 3115" d="M198.655,273.061a27.34,27.34,0,0,1,3.075-6.719,27.34,27.34,0,0,1-3.075,6.719Z" transform="translate(-198.638 -266.341)" fill="#263238"/>
      </g>
      <g id="Group_3417" data-name="Group 3417" transform="translate(139.101 220.627)">
        <path id="Path_3116" data-name="Path 3116" d="M197.207,292.635a31.061,31.061,0,0,1-4.441-6.494,30.966,30.966,0,0,1,4.441,6.494Z" transform="translate(-192.756 -286.138)" fill="#263238"/>
      </g>
      <g id="Group_3418" data-name="Group 3418" transform="translate(164.48 220.157)">
        <path id="Path_3117" data-name="Path 3117" d="M227.765,285.666a21.682,21.682,0,0,1-4.234,1.919,21.7,21.7,0,0,1-4.415,1.452,43.1,43.1,0,0,1,8.649-3.371Z" transform="translate(-219.115 -285.65)" fill="#263238"/>
      </g>
      <g id="Group_3419" data-name="Group 3419" transform="translate(155.64 210.129)">
        <path id="Path_3118" data-name="Path 3118" d="M210.432,281.281a9.41,9.41,0,0,1,0-6.046,18.354,18.354,0,0,1,0,3.023A18.34,18.34,0,0,1,210.432,281.281Z" transform="translate(-209.933 -275.235)" fill="#263238"/>
      </g>
      <g id="Group_3420" data-name="Group 3420" transform="translate(179.019 199.92)">
        <path id="Path_3119" data-name="Path 3119" d="M237.173,274.364a25.808,25.808,0,0,1-2.928-9.733c.142-.026.651,2.19,1.461,4.868S237.307,274.307,237.173,274.364Z" transform="translate(-234.215 -264.631)" fill="#263238"/>
      </g>
      <g id="Group_3421" data-name="Group 3421" transform="translate(193.115 191.771)">
        <path id="Path_3120" data-name="Path 3120" d="M255.824,257.789a29.67,29.67,0,0,1-3.476-.8,29.447,29.447,0,0,1-3.492-.726,12.106,12.106,0,0,1,6.968,1.523Z" transform="translate(-248.856 -256.168)" fill="#263238"/>
      </g>
      <g id="Group_3422" data-name="Group 3422" transform="translate(201.248 205.987)">
        <path id="Path_3121" data-name="Path 3121" d="M264.531,270.958a28.7,28.7,0,0,1-7.228,2.262,28.727,28.727,0,0,1,7.228-2.262Z" transform="translate(-257.302 -270.933)" fill="#263238"/>
      </g>
      <g id="Group_3423" data-name="Group 3423" transform="translate(215.999 213.138)">
        <path id="Path_3122" data-name="Path 3122" d="M273,286.975a14.754,14.754,0,0,1,.623-8.615c.143.038-.292,1.929-.455,4.3S273.152,286.958,273,286.975Z" transform="translate(-272.624 -278.359)" fill="#263238"/>
      </g>
      <g id="Group_3424" data-name="Group 3424" transform="translate(225.443 204.969)">
        <path id="Path_3123" data-name="Path 3123" d="M287.961,274.139c-.111.1-1.2-1.028-2.714-2.188s-2.877-1.929-2.812-2.06a10.729,10.729,0,0,1,5.527,4.249Z" transform="translate(-282.432 -269.875)" fill="#263238"/>
      </g>
      <g id="Group_3425" data-name="Group 3425" transform="translate(232.879 193.393)">
        <path id="Path_3124" data-name="Path 3124" d="M297.6,257.864a36.5,36.5,0,0,1-7.439,4.189,36.38,36.38,0,0,1,7.439-4.189Z" transform="translate(-290.155 -257.852)" fill="#263238"/>
      </g>
      <g id="Group_3426" data-name="Group 3426" transform="translate(181.918 232.661)">
        <path id="Path_3125" data-name="Path 3125" d="M237.247,307.028a38.889,38.889,0,0,1,2.729-8.391,39.031,39.031,0,0,1-2.729,8.391Z" transform="translate(-237.226 -298.636)" fill="#263238"/>
      </g>
      <g id="Group_3427" data-name="Group 3427" transform="translate(153.47 237.825)">
        <path id="Path_3126" data-name="Path 3126" d="M212.892,311.26a18.637,18.637,0,0,1-2.7-3.353c-.918-1.287-1.679-2.442-2.043-3.08L207.68,304l.655.655c.276.276.415.447.385.482s-.222-.067-.546-.287l.184-.171c.484.553,1.327,1.648,2.244,2.936A18.633,18.633,0,0,1,212.892,311.26Z" transform="translate(-207.68 -304)" fill="#263238"/>
      </g>
      <g id="Group_3428" data-name="Group 3428" transform="translate(170.355 243.833)">
        <path id="Path_3127" data-name="Path 3127" d="M225.254,310.24a44.453,44.453,0,0,1,1.646,9.3,44.655,44.655,0,0,1-1.646-9.3Z" transform="translate(-225.217 -310.24)" fill="#263238"/>
      </g>
      <g id="Group_3429" data-name="Group 3429" transform="translate(140.342 248.005)">
        <path id="Path_3128" data-name="Path 3128" d="M199.165,319.927a27.478,27.478,0,0,1-5.115-5.348,27.4,27.4,0,0,1,5.115,5.348Z" transform="translate(-194.044 -314.573)" fill="#263238"/>
      </g>
      <g id="Group_3430" data-name="Group 3430" transform="translate(158.23 262.754)">
        <path id="Path_3129" data-name="Path 3129" d="M219.368,330.141a22.746,22.746,0,0,1-6.744,0,22.829,22.829,0,0,1,6.744,0Z" transform="translate(-212.624 -329.892)" fill="#263238"/>
      </g>
      <g id="Group_3431" data-name="Group 3431" transform="translate(182.038 252.836)">
        <path id="Path_3130" data-name="Path 3130" d="M243.713,319.6a34.035,34.035,0,0,1-6.358,5.25,34.04,34.04,0,0,1,6.358-5.25Z" transform="translate(-237.351 -319.591)" fill="#263238"/>
      </g>
    </g>
  </g>
</svg>
